{
.appVersion = "1271";
DisplayStrings = (
a
);
classes = (
{
automatic = 1;

glyphs = (
{
color = 4;
glyphname = A;
layers = (
{
anchors = (
{
name = bottom;
position = "{260, 0}";
},
{
name = ogonek;
position = "{549, 0}";
},
{
name = top;
position = "{355, 641}";
}
);
background = {
paths = (
{
closed = 1;
nodes = (
"162 0 LINE",
"178 11 OFFCURVE",
"183 19 OFFCURVE",
"187 46 CURVE",
"99 69 LINE",
"102 57 LINE",
"357 559 LINE",
"339 559 LINE",
"446 46 LINE",
"467 79 LINE",
"376 39 LINE",
"364 35 OFFCURVE",
"357 16 OFFCURVE",
"355 0 CURVE",
"575 0 LINE",
"591 11 OFFCURVE",
"596 19 OFFCURVE",
"600 46 CURVE",
"514 69 LINE",
"526 57 LINE",
"403 648 LINE",
"396 651 OFFCURVE",
"385 655 OFFCURVE",
"374 655 CURVE SMOOTH",
"356 655 OFFCURVE",
"342 639 OFFCURVE",
"331 618 CURVE SMOOTH",
"44 52 LINE",
"59 66 LINE",
"-12 39 LINE SMOOTH",
"-24 35 OFFCURVE",
"-31 15 OFFCURVE",
"-33 0 CURVE"
);
},
{
closed = 1;
nodes = (
"420 215 LINE",
"409 267 LINE",
"195 267 LINE",
"169 215 LINE"
);
}
);
};
layerId = "A9E90CC4-8E6C-407E-8E88-16513AA8D05B";
paths = (
{
closed = 1;
nodes = (
"123 0 LINE SMOOTH",
"139 10 OFFCURVE",
"143 20 OFFCURVE",
"147 38 CURVE",
"66 57 LINE",
"66 29 LINE",
"341 582 LINE",
"323 581 LINE",
"435 34 LINE",
"443 55 LINE",
"378 37 LINE SMOOTH",
"367 34 OFFCURVE",
"361 21 OFFCURVE",
"357 0 CURVE",
"549 0 LINE SMOOTH",
"564 10 OFFCURVE",
"569 20 OFFCURVE",
"572 38 CURVE",
"493 56 LINE",
"514 31 LINE",
"388 651 LINE",
"381 654 OFFCURVE",
"373 655 OFFCURVE",
"364 655 CURVE SMOOTH",
"351 655 OFFCURVE",
"328 651 OFFCURVE",
"321 636 CURVE SMOOTH",
"18 28 LINE",
"46 55 LINE",
"-11 37 LINE SMOOTH",
"-22 34 OFFCURVE",
"-28 21 OFFCURVE",
"-32 0 CURVE"
);
},
{
closed = 1;
nodes = (
"409 215 LINE",
"404 258 LINE",
"161 258 LINE",
"143 215 LINE"
);
}
);
width = 604;
},
{
anchors = (
{
name = bottom;
position = "{246, 0}";
},
{
name = ogonek;
position = "{515, 0}";
},
{
name = top;
position = "{338, 641}";
}
);
layerId = "E1BF09ED-4302-4AD3-9939-8FDA35DE0FE8";
paths = (
{
closed = 1;
nodes = (
"83 0 LINE SMOOTH",
"96 0 OFFCURVE",
"99 4 OFFCURVE",
"102 18 CURVE",
"38 32 LINE",
"36 15 LINE",
"330 604 LINE",
"327 602 LINE",
"447 23 LINE",
"457 34 LINE",
"395 20 LINE SMOOTH",
"384 18 OFFCURVE",
"379 12 OFFCURVE",
"377 0 CURVE",
"515 0 LINE SMOOTH",
"528 0 OFFCURVE",
"531 4 OFFCURVE",
"533 18 CURVE",
"460 34 LINE",
"479 18 LINE",
"347 653 LINE",
"347 654 OFFCURVE",
"344 655 OFFCURVE",
"342 655 CURVE SMOOTH",
"336 655 OFFCURVE",
"334 653 OFFCURVE",
"330 645 CURVE SMOOTH",
"16 16 LINE",
"31 30 LINE",
"-13 20 LINE SMOOTH",
"-24 18 OFFCURVE",
"-29 12 OFFCURVE",
"-31 0 CURVE"
);
},
{
closed = 1;
nodes = (
"411 230 LINE",
"405 250 LINE",
"147 250 LINE",
"136 230 LINE"
);
}
);
width = 569;
},
{
anchors = (
{
name = bottom;
position = "{287, 0}";
},
{
name = ogonek;
position = "{615, 0}";
},
{
name = top;
position = "{388, 641}";
}
);
guideLines = (
{
angle = 110.927;
position = "{336, 56}";
}
);
layerId = "7B53E429-1BF0-49C5-9F57-63EEBF39C6CC";
paths = (
{
closed = 1;
nodes = (
"200 0 LINE",
"222 29 OFFCURVE",
"230 50 OFFCURVE",
"234 76 CURVE",
"121 106 LINE",
"124 57 LINE",
"363 539 LINE",
"314 539 LINE",
"410 56 LINE",
"417 96 LINE",
"344 69 LINE SMOOTH",
"334 65 OFFCURVE",
"325 39 OFFCURVE",
"318 0 CURVE",
"615 0 LINE",
"636 29 OFFCURVE",
"644 50 OFFCURVE",
"648 76 CURVE",
"557 100 LINE",
"584 57 LINE",
"467 648 LINE",
"448 653 OFFCURVE",
"429 656 OFFCURVE",
"406 656 CURVE SMOOTH",
"380 656 OFFCURVE",
"317 646 OFFCURVE",
"304 618 CURVE SMOOTH",
"23 52 LINE",
"76 103 LINE",
"-7 69 LINE SMOOTH",
"-17 65 OFFCURVE",
"-27 39 OFFCURVE",
"-33 0 CURVE"
);
},
{
closed = 1;
nodes = (
"406 185 LINE",
"403 275 LINE",
"188 275 LINE",
"158 185 LINE"
);
}
);
width = 673;
}
);
leftKerningGroup = A;
leftMetricsKey = "=H*.05";
rightKerningGroup = A;
rightMetricsKey = "=H*.05";
unicode = 0041;
},
{
color = 1;
glyphname = Aacute;
layers = (
{
background = {
paths = (
{
closed = 1;
nodes = (
"346 651 OFFCURVE",
"333 655 OFFCURVE",
"321 655 CURVE SMOOTH",
"302 655 OFFCURVE",
"289 639 OFFCURVE",
"281 618 CURVE SMOOTH",
"73 62 LINE",
"11 39 LINE SMOOTH",
"-1 34 OFFCURVE",
"-5 15 OFFCURVE",
"-5 0 CURVE",
"205 0 LINE",
"220 11 OFFCURVE",
"224 19 OFFCURVE",
"224 46 CURVE",
"135 67 LINE",
"191 215 LINE",
"431 215 LINE",
"489 66 LINE",
"428 39 LINE",
"416 35 OFFCURVE",
"412 16 OFFCURVE",
"412 0 CURVE",
"649 0 LINE",
"664 11 OFFCURVE",
"668 19 OFFCURVE",
"668 46 CURVE",
"582 67 LINE",
"353 648 LINE"
);
},
{
closed = 1;
nodes = (
"410 267 LINE",
"210 267 LINE",
"308 529 LINE"
);
},
{
closed = 1;
nodes = (
"474 833 OFFCURVE",
"463 858 OFFCURVE",
"440 858 CURVE SMOOTH",
"409 858 OFFCURVE",
"356 825 OFFCURVE",
"220 743 CURVE",
"219 741 OFFCURVE",
"219 738 OFFCURVE",
"219 736 CURVE SMOOTH",
"219 728 OFFCURVE",
"223 721 OFFCURVE",
"233 715 CURVE",
"384 760 OFFCURVE",
"474 781 OFFCURVE",
"474 816 CURVE SMOOTH"
);
}
);
};
components = (
{
name = A;
},
{
name = acutecomb.case;
transform = "{1, 0, 0, 1, 213, 198}";
}
);
layerId = "A9E90CC4-8E6C-407E-8E88-16513AA8D05B";
width = 604;
},
{
components = (
{
name = A;
},
{
name = acutecomb.case;
transform = "{1, 0, 0, 1, 212, 198}";
}
);
layerId = "E1BF09ED-4302-4AD3-9939-8FDA35DE0FE8";
width = 569;
},
{
components = (
{
name = A;
},
{
name = acutecomb.case;
transform = "{1, 0, 0, 1, 212, 198}";
}
);
layerId = "7B53E429-1BF0-49C5-9F57-63EEBF39C6CC";
width = 673;
}
);
leftKerningGroup = A;
rightKerningGroup = A;
unicode = 00C1;
},
{
color = 1;
glyphname = Acircumflex;
layers = (
{
background = {
paths = (
{
closed = 1;
nodes = (
"348 854 OFFCURVE",
"333 858 OFFCURVE",
"324 858 CURVE SMOOTH",
"315 858 OFFCURVE",
"300 853 OFFCURVE",
"280 839 CURVE SMOOTH",
"143 743 LINE",
"143 743 OFFCURVE",
"142 740 OFFCURVE",
"142 737 CURVE SMOOTH",
"142 728 OFFCURVE",
"147 720 OFFCURVE",
"156 715 CURVE",
"324 787 LINE",
"492 715 LINE",
"501 720 OFFCURVE",
"506 728 OFFCURVE",
"506 737 CURVE SMOOTH",
"506 740 OFFCURVE",
"505 743 OFFCURVE",
"505 743 CURVE",
"368 839 LINE SMOOTH"
);
},
{
closed = 1;
nodes = (
"346 651 OFFCURVE",
"333 655 OFFCURVE",
"321 655 CURVE SMOOTH",
"302 655 OFFCURVE",
"289 639 OFFCURVE",
"281 618 CURVE SMOOTH",
"73 62 LINE",
"11 39 LINE SMOOTH",
"-1 34 OFFCURVE",
"-5 15 OFFCURVE",
"-5 0 CURVE",
"205 0 LINE",
"220 11 OFFCURVE",
"224 19 OFFCURVE",
"224 46 CURVE",
"135 67 LINE",
"191 215 LINE",
"431 215 LINE",
"489 66 LINE",
"428 39 LINE",
"416 35 OFFCURVE",
"412 16 OFFCURVE",
"412 0 CURVE",
"649 0 LINE",
"664 11 OFFCURVE",
"668 19 OFFCURVE",
"668 46 CURVE",
"582 67 LINE",
"353 648 LINE"
);
},
{
closed = 1;
nodes = (
"410 267 LINE",
"210 267 LINE",
"308 529 LINE"
);
}
);
};
components = (
{
name = A;
},
{
name = circumflexcomb.case;
transform = "{1, 0, 0, 1, 172, 198}";
}
);
layerId = "A9E90CC4-8E6C-407E-8E88-16513AA8D05B";
width = 604;
},
{
components = (
{
name = A;
},
{
name = circumflexcomb.case;
transform = "{1, 0, 0, 1, 175, 198}";
}
);
layerId = "E1BF09ED-4302-4AD3-9939-8FDA35DE0FE8";
width = 569;
},
{
components = (
{
name = A;
},
{
name = circumflexcomb.case;
transform = "{1, 0, 0, 1, 169, 198}";
}
);
layerId = "7B53E429-1BF0-49C5-9F57-63EEBF39C6CC";
width = 673;
}
);
leftKerningGroup = A;
rightKerningGroup = A;
unicode = 00C2;
},
{
color = 1;
glyphname = Adieresis;
layers = (
{
background = {
paths = (
{
closed = 1;
nodes = (
"173 755 OFFCURVE",
"188 736 OFFCURVE",
"219 736 CURVE SMOOTH",
"243 736 OFFCURVE",
"266 757 OFFCURVE",
"266 782 CURVE SMOOTH",
"266 809 OFFCURVE",
"250 828 OFFCURVE",
"219 828 CURVE SMOOTH",
"196 828 OFFCURVE",
"173 807 OFFCURVE",
"173 782 CURVE SMOOTH"
);
},
{
closed = 1;
nodes = (
"380 755 OFFCURVE",
"395 736 OFFCURVE",
"426 736 CURVE SMOOTH",
"450 736 OFFCURVE",
"473 757 OFFCURVE",
"473 782 CURVE SMOOTH",
"473 809 OFFCURVE",
"457 828 OFFCURVE",
"426 828 CURVE SMOOTH",
"403 828 OFFCURVE",
"380 807 OFFCURVE",
"380 782 CURVE SMOOTH"
);
},
{
closed = 1;
nodes = (
"346 651 OFFCURVE",
"333 655 OFFCURVE",
"321 655 CURVE SMOOTH",
"302 655 OFFCURVE",
"289 639 OFFCURVE",
"281 618 CURVE SMOOTH",
"73 62 LINE",
"11 39 LINE SMOOTH",
"-1 34 OFFCURVE",
"-5 15 OFFCURVE",
"-5 0 CURVE",
"205 0 LINE",
"220 11 OFFCURVE",
"224 19 OFFCURVE",
"224 46 CURVE",
"135 67 LINE",
"191 215 LINE",
"431 215 LINE",
"489 66 LINE",
"428 39 LINE",
"416 35 OFFCURVE",
"412 16 OFFCURVE",
"412 0 CURVE",
"649 0 LINE",
"664 11 OFFCURVE",
"668 19 OFFCURVE",
"668 46 CURVE",
"582 67 LINE",
"353 648 LINE"
);
},
{
closed = 1;
nodes = (
"410 267 LINE",
"210 267 LINE",
"308 529 LINE"
);
}
);
};
components = (
{
name = A;
},
{
name = dieresiscomb.case;
transform = "{1, 0, 0, 1, 171, 198}";
}
);
layerId = "A9E90CC4-8E6C-407E-8E88-16513AA8D05B";
width = 604;
},
{
components = (
{
name = A;
},
{
name = dieresiscomb.case;
transform = "{1, 0, 0, 1, 202, 198}";
}
);
layerId = "E1BF09ED-4302-4AD3-9939-8FDA35DE0FE8";
width = 569;
},
{
components = (
{
name = A;
},
{
name = dieresiscomb.case;
transform = "{1, 0, 0, 1, 139, 198}";
}
);
layerId = "7B53E429-1BF0-49C5-9F57-63EEBF39C6CC";
width = 673;
}
);
leftKerningGroup = A;
rightKerningGroup = A;
unicode = 00C4;
},
{
color = 1;
glyphname = Agrave;
layers = (
{
background = {
paths = (
{
closed = 1;
nodes = (
"346 651 OFFCURVE",
"333 655 OFFCURVE",
"321 655 CURVE SMOOTH",
"302 655 OFFCURVE",
"289 639 OFFCURVE",
"281 618 CURVE SMOOTH",
"73 62 LINE",
"11 39 LINE SMOOTH",
"-1 34 OFFCURVE",
"-5 15 OFFCURVE",
"-5 0 CURVE",
"205 0 LINE",
"220 11 OFFCURVE",
"224 19 OFFCURVE",
"224 46 CURVE",
"135 67 LINE",
"191 215 LINE",
"431 215 LINE",
"489 66 LINE",
"428 39 LINE",
"416 35 OFFCURVE",
"412 16 OFFCURVE",
"412 0 CURVE",
"649 0 LINE",
"664 11 OFFCURVE",
"668 19 OFFCURVE",
"668 46 CURVE",
"582 67 LINE",
"353 648 LINE"
);
},
{
closed = 1;
nodes = (
"410 267 LINE",
"210 267 LINE",
"308 529 LINE"
);
},
{
closed = 1;
nodes = (
"193 781 OFFCURVE",
"283 760 OFFCURVE",
"434 715 CURVE",
"444 721 OFFCURVE",
"448 728 OFFCURVE",
"448 736 CURVE SMOOTH",
"448 738 OFFCURVE",
"448 741 OFFCURVE",
"447 743 CURVE",
"311 825 OFFCURVE",
"258 858 OFFCURVE",
"227 858 CURVE SMOOTH",
"204 858 OFFCURVE",
"193 833 OFFCURVE",
"193 816 CURVE SMOOTH"
);
}
);
};
components = (
{
name = A;
},
{
name = gravecomb.case;
transform = "{1, 0, 0, 1, 177, 198}";
}
);
layerId = "A9E90CC4-8E6C-407E-8E88-16513AA8D05B";
width = 604;
},
{
components = (
{
name = A;
},
{
name = gravecomb.case;
transform = "{1, 0, 0, 1, 240, 198}";
}
);
layerId = "E1BF09ED-4302-4AD3-9939-8FDA35DE0FE8";
width = 569;
},
{
components = (
{
name = A;
},
{
name = gravecomb.case;
transform = "{1, 0, 0, 1, 241, 198}";
}
);
layerId = "7B53E429-1BF0-49C5-9F57-63EEBF39C6CC";
width = 673;
}
);
leftKerningGroup = A;
rightKerningGroup = A;
unicode = 00C0;
},
{
color = 1;
glyphname = Aring;
layers = (
{
background = {
paths = (
{
closed = 1;
nodes = (
"219 727 OFFCURVE",
"244 682 OFFCURVE",
"320 682 CURVE SMOOTH",
"393 682 OFFCURVE",
"434 735 OFFCURVE",
"434 775 CURVE SMOOTH",
"434 818 OFFCURVE",
"404 858 OFFCURVE",
"333 858 CURVE SMOOTH",
"265 858 OFFCURVE",
"219 818 OFFCURVE",
"219 770 CURVE SMOOTH"
);
},
{
closed = 1;
nodes = (
"272 801 OFFCURVE",
"284 837 OFFCURVE",
"323 837 CURVE SMOOTH",
"359 837 OFFCURVE",
"381 809 OFFCURVE",
"381 765 CURVE SMOOTH",
"381 732 OFFCURVE",
"362 705 OFFCURVE",
"327 705 CURVE SMOOTH",
"296 705 OFFCURVE",
"272 730 OFFCURVE",
"272 765 CURVE SMOOTH"
);
},
{
closed = 1;
nodes = (
"346 651 OFFCURVE",
"333 655 OFFCURVE",
"321 655 CURVE SMOOTH",
"302 655 OFFCURVE",
"289 639 OFFCURVE",
"281 618 CURVE SMOOTH",
"73 62 LINE",
"11 39 LINE SMOOTH",
"-1 34 OFFCURVE",
"-5 15 OFFCURVE",
"-5 0 CURVE",
"205 0 LINE",
"220 11 OFFCURVE",
"224 19 OFFCURVE",
"224 46 CURVE",
"135 67 LINE",
"191 215 LINE",
"431 215 LINE",
"489 66 LINE",
"428 39 LINE",
"416 35 OFFCURVE",
"412 16 OFFCURVE",
"412 0 CURVE",
"649 0 LINE",
"664 11 OFFCURVE",
"668 19 OFFCURVE",
"668 46 CURVE",
"582 67 LINE",
"353 648 LINE"
);
},
{
closed = 1;
nodes = (
"410 267 LINE",
"210 267 LINE",
"308 529 LINE"
);
}
);
};
components = (
{
name = A;
},
{
name = ringcomb.case;
transform = "{1, 0, 0, 1, 207, 198}";
}
);
layerId = "A9E90CC4-8E6C-407E-8E88-16513AA8D05B";
width = 604;
},
{
components = (
{
name = A;
},
{
name = ringcomb.case;
transform = "{1, 0, 0, 1, 210, 198}";
}
);
layerId = "E1BF09ED-4302-4AD3-9939-8FDA35DE0FE8";
width = 569;
},
{
components = (
{
name = A;
},
{
name = ringcomb.case;
transform = "{1, 0, 0, 1, 200, 198}";
}
);
layerId = "7B53E429-1BF0-49C5-9F57-63EEBF39C6CC";
width = 673;
}
);
leftKerningGroup = A;
rightKerningGroup = A;
unicode = 00C5;
},
{
color = 1;
glyphname = Atilde;
layers = (
{
background = {
paths = (
{
closed = 1;
nodes = (
"448 722 OFFCURVE",
"502 777 OFFCURVE",
"502 808 CURVE SMOOTH",
"502 817 OFFCURVE",
"499 825 OFFCURVE",
"492 833 CURVE",
"471 797 OFFCURVE",
"446 783 OFFCURVE",
"422 783 CURVE SMOOTH",
"375 783 OFFCURVE",
"324 824 OFFCURVE",
"275 824 CURVE SMOOTH",
"208 824 OFFCURVE",
"161 770 OFFCURVE",
"161 737 CURVE SMOOTH",
"161 730 OFFCURVE",
"164 722 OFFCURVE",
"171 714 CURVE",
"192 750 OFFCURVE",
"215 762 OFFCURVE",
"239 762 CURVE SMOOTH",
"285 762 OFFCURVE",
"334 722 OFFCURVE",
"382 722 CURVE SMOOTH"
);
},
{
closed = 1;
nodes = (
"346 651 OFFCURVE",
"333 655 OFFCURVE",
"321 655 CURVE SMOOTH",
"302 655 OFFCURVE",
"289 639 OFFCURVE",
"281 618 CURVE SMOOTH",
"73 62 LINE",
"11 39 LINE SMOOTH",
"-1 34 OFFCURVE",
"-5 15 OFFCURVE",
"-5 0 CURVE",
"205 0 LINE",
"220 11 OFFCURVE",
"224 19 OFFCURVE",
"224 46 CURVE",
"135 67 LINE",
"191 215 LINE",
"431 215 LINE",
"489 66 LINE",
"428 39 LINE",
"416 35 OFFCURVE",
"412 16 OFFCURVE",
"412 0 CURVE",
"649 0 LINE",
"664 11 OFFCURVE",
"668 19 OFFCURVE",
"668 46 CURVE",
"582 67 LINE",
"353 648 LINE"
);
},
{
closed = 1;
nodes = (
"410 267 LINE",
"210 267 LINE",
"308 529 LINE"
);
}
);
};
components = (
{
name = A;
},
{
name = tildecomb.case;
transform = "{1, 0, 0, 1, 157, 198}";
}
);
layerId = "A9E90CC4-8E6C-407E-8E88-16513AA8D05B";
width = 604;
},
{
components = (
{
name = A;
},
{
name = tildecomb.case;
transform = "{1, 0, 0, 1, 164, 198}";
}
);
layerId = "E1BF09ED-4302-4AD3-9939-8FDA35DE0FE8";
width = 569;
},
{
components = (
{
name = A;
},
{
name = tildecomb.case;
transform = "{1, 0, 0, 1, 154, 198}";
}
);
layerId = "7B53E429-1BF0-49C5-9F57-63EEBF39C6CC";
width = 673;
}
);
leftKerningGroup = A;
rightKerningGroup = A;
unicode = 00C3;
},
{
color = 5;
glyphname = AE;
layers = (
{
anchors = (
{
name = bottom;
position = "{491, 0}";
},
{
name = top;
position = "{593, 641}";
}
);
background = {
anchors = (
{
name = bottom;
position = "{436, 0}";
},
{
name = top;
position = "{436, 641}";
}
);
paths = (
{
closed = 1;
nodes = (
"188 0 LINE",
"204 12 OFFCURVE",
"208 19 OFFCURVE",
"208 46 CURVE",
"108 69 LINE",
"112 58 LINE",
"294 298 LINE",
"258 281 LINE",
"455 281 LINE",
"439 295 LINE",
"439 39 LINE",
"459 69 LINE",
"376 39 LINE SMOOTH",
"364 35 OFFCURVE",
"360 16 OFFCURVE",
"360 0 CURVE",
"831 0 LINE",
"831 149 LINE",
"820 164 OFFCURVE",
"812 168 OFFCURVE",
"785 168 CURVE",
"751 36 LINE",
"764 45 LINE",
"515 68 LINE",
"525 57 LINE",
"525 291 LINE",
"515 281 LINE",
"705 281 LINE",
"692 291 LINE",
"715 221 LINE",
"738 221 OFFCURVE",
"743 224 OFFCURVE",
"754 237 CURVE",
"754 377 LINE",
"743 390 OFFCURVE",
"738 393 OFFCURVE",
"715 393 CURVE",
"692 323 LINE",
"705 333 LINE",
"515 333 LINE",
"525 323 LINE",
"525 591 LINE",
"514 578 LINE",
"738 596 LINE",
"724 605 LINE",
"761 504 LINE SMOOTH",
"765 492 OFFCURVE",
"784 488 OFFCURVE",
"800 488 CURVE",
"800 641 LINE",
"373 641 LINE",
"357 630 OFFCURVE",
"354 618 OFFCURVE",
"354 595 CURVE",
"453 568 LINE",
"445 591 LINE",
"38 57 LINE",
"53 67 LINE",
"-20 40 LINE SMOOTH",
"-33 35 OFFCURVE",
"-36 17 OFFCURVE",
"-36 0 CURVE"
);
},
{
closed = 1;
nodes = (
"452 505 LINE",
"438 509 LINE",
"438 318 LINE",
"453 333 LINE",
"301 333 LINE",
"309 316 LINE"
);
}
);
};
layerId = "A9E90CC4-8E6C-407E-8E88-16513AA8D05B";
paths = (
{
closed = 1;
nodes = (
"140 0 LINE",
"157 12 OFFCURVE",
"161 19 OFFCURVE",
"166 46 CURVE",
"76 69 LINE",
"78 58 LINE",
"286 298 LINE",
"249 281 LINE",
"433 281 LINE",
"420 295 LINE",
"379 39 LINE",
"403 69 LINE",
"321 39 LINE SMOOTH",
"309 35 OFFCURVE",
"302 16 OFFCURVE",
"300 0 CURVE",
"738 0 LINE",
"761 149 LINE",
"753 164 OFFCURVE",
"747 168 OFFCURVE",
"722 168 CURVE",
"669 36 LINE",
"683 45 LINE",
"455 68 LINE",
"462 57 LINE",
"499 291 LINE",
"488 281 LINE",
"665 281 LINE",
"655 291 LINE",
"665 221 LINE",
"686 221 OFFCURVE",
"691 224 OFFCURVE",
"704 237 CURVE",
"726 377 LINE",
"718 390 OFFCURVE",
"714 393 OFFCURVE",
"692 393 CURVE",
"660 323 LINE",
"673 333 LINE",
"497 333 LINE",
"504 323 LINE",
"547 591 LINE",
"534 578 LINE",
"746 596 LINE",
"734 605 LINE",
"752 504 LINE SMOOTH",
"754 492 OFFCURVE",
"771 488 OFFCURVE",
"786 488 CURVE",
"810 641 LINE",
"413 641 LINE",
"397 630 OFFCURVE",
"392 618 OFFCURVE",
"388 595 CURVE",
"476 568 LINE",
"472 591 LINE",
"9 57 LINE",
"25 67 LINE",
"-47 40 LINE SMOOTH",
"-60 35 OFFCURVE",
"-66 17 OFFCURVE",
"-69 0 CURVE"
);
},
{
closed = 1;
nodes = (
"465 505 LINE",
"453 509 LINE",
"423 318 LINE",
"439 333 LINE",
"298 333 LINE",
"302 316 LINE"
);
}
);
width = 847;
},
{
anchors = (
{
name = bottom;
position = "{510, 0}";
},
{
name = top;
position = "{611, 641}";
}
);
layerId = "E1BF09ED-4302-4AD3-9939-8FDA35DE0FE8";
paths = (
{
closed = 1;
nodes = (
"106 0 LINE",
"119 0 OFFCURVE",
"123 4 OFFCURVE",
"125 18 CURVE",
"43 32 LINE",
"38 18 LINE",
"277 302 LINE",
"265 296 LINE",
"474 296 LINE",
"470 302 LINE",
"426 23 LINE",
"440 34 LINE",
"378 20 LINE SMOOTH",
"368 18 OFFCURVE",
"362 12 OFFCURVE",
"360 0 CURVE",
"756 0 LINE",
"773 108 LINE",
"775 115 OFFCURVE",
"773 121 OFFCURVE",
"759 121 CURVE",
"717 2 LINE",
"730 11 LINE",
"449 34 LINE",
"457 23 LINE",
"501 305 LINE",
"491 298 LINE",
"681 298 LINE",
"671 305 LINE",
"676 245 LINE",
"688 245 OFFCURVE",
"691 246 OFFCURVE",
"697 261 CURVE",
"712 353 LINE",
"710 368 OFFCURVE",
"709 369 OFFCURVE",
"696 369 CURVE",
"673 311 LINE",
"684 316 LINE",
"494 316 LINE",
"502 310 LINE",
"552 625 LINE",
"540 612 LINE",
"799 630 LINE",
"788 639 LINE",
"797 558 LINE SMOOTH",
"799 546 OFFCURVE",
"805 542 OFFCURVE",
"813 542 CURVE",
"829 641 LINE",
"465 641 LINE",
"452 641 OFFCURVE",
"449 637 OFFCURVE",
"447 623 CURVE",
"536 608 LINE",
"531 630 LINE",
"13 17 LINE",
"32 33 LINE",
"-13 20 LINE SMOOTH",
"-24 17 OFFCURVE",
"-29 12 OFFCURVE",
"-31 0 CURVE"
);
},
{
closed = 1;
nodes = (
"517 588 LINE",
"519 609 LINE",
"471 308 LINE",
"477 313 LINE",
"274 313 LINE",
"278 305 LINE"
);
}
);
width = 870;
},
{
anchors = (
{
name = bottom;
position = "{491, 0}";
},
{
name = top;
position = "{593, 641}";
}
);
layerId = "7B53E429-1BF0-49C5-9F57-63EEBF39C6CC";
paths = (
{
closed = 1;
nodes = (
"192 0 LINE",
"213 29 OFFCURVE",
"221 50 OFFCURVE",
"225 76 CURVE",
"111 109 LINE",
"134 58 LINE",
"271 238 LINE",
"224 206 LINE",
"420 206 LINE",
"409 235 LINE",
"383 70 LINE",
"407 96 LINE",
"334 69 LINE SMOOTH",
"324 65 OFFCURVE",
"314 39 OFFCURVE",
"308 0 CURVE",
"812 0 LINE",
"841 183 LINE",
"819 200 OFFCURVE",
"798 205 OFFCURVE",
"774 205 CURVE",
"721 72 LINE",
"736 94 LINE",
"554 111 LINE",
"561 100 LINE",
"589 276 LINE",
"578 266 LINE",
"680 266 LINE",
"669 275 LINE",
"679 202 LINE",
"703 202 OFFCURVE",
"734 207 OFFCURVE",
"762 224 CURVE",
"791 404 LINE",
"768 421 OFFCURVE",
"738 426 OFFCURVE",
"714 426 CURVE",
"683 356 LINE",
"696 366 LINE",
"594 366 LINE",
"602 356 LINE",
"631 544 LINE",
"619 531 LINE",
"792 549 LINE",
"781 558 LINE",
"795 478 LINE SMOOTH",
"797 466 OFFCURVE",
"810 458 OFFCURVE",
"857 458 CURVE",
"886 641 LINE",
"374 641 LINE",
"354 614 OFFCURVE",
"346 591 OFFCURVE",
"342 565 CURVE",
"478 541 LINE",
"426 591 LINE",
"-4 32 LINE",
"58 103 LINE",
"-25 69 LINE SMOOTH",
"-35 65 OFFCURVE",
"-45 39 OFFCURVE",
"-51 0 CURVE"
);
},
{
closed = 1;
nodes = (
"470 509 LINE",
"453 509 LINE",
"416 278 LINE",
"435 306 LINE",
"293 306 LINE",
"292 278 LINE"
);
}
);
width = 911;
}
);
leftKerningGroup = A;
rightKerningGroup = E;
rightMetricsKey = E;
unicode = 00C6;
},
{
color = 4;
glyphname = B;
layers = (
{
anchors = (
{
name = bottom;
position = "{256, 0}";
},
{
name = top;
position = "{357, 641}";
}
);
layerId = "A9E90CC4-8E6C-407E-8E88-16513AA8D05B";
paths = (
{
closed = 1;
nodes = (
"285 0 LINE SMOOTH",
"414 0 OFFCURVE",
"518 93 OFFCURVE",
"518 212 CURVE SMOOTH",
"518 291 OFFCURVE",
"462 350 OFFCURVE",
"377 356 CURVE",
"372 349 LINE",
"464 355 OFFCURVE",
"542 438 OFFCURVE",
"542 525 CURVE SMOOTH",
"542 598 OFFCURVE",
"485 641 OFFCURVE",
"386 641 CURVE SMOOTH",
"143 641 LINE SMOOTH",
"129 633 OFFCURVE",
"123 623 OFFCURVE",
"120 603 CURVE",
"196 585 LINE",
"183 600 LINE",
"95 39 LINE",
"111 55 LINE",
"46 37 LINE SMOOTH",
"35 33 OFFCURVE",
"29 22 OFFCURVE",
"25 0 CURVE"
);
},
{
closed = 1;
nodes = (
"204 326 LINE",
"309 326 LINE SMOOTH",
"390 326 OFFCURVE",
"433 287 OFFCURVE",
"433 214 CURVE SMOOTH",
"433 113 OFFCURVE",
"376 44 OFFCURVE",
"273 44 CURVE SMOOTH",
"238 44 OFFCURVE",
"193 52 OFFCURVE",
"167 64 CURVE",
"175 52 LINE",
"260 591 LINE",
"249 581 LINE",
"283 591 OFFCURVE",
"320 597 OFFCURVE",
"351 597 CURVE SMOOTH",
"424 597 OFFCURVE",
"461 565 OFFCURVE",
"461 506 CURVE SMOOTH",
"461 423 OFFCURVE",
"403 370 OFFCURVE",
"313 370 CURVE SMOOTH",
"210 370 LINE"
);
}
);
width = 573;
},
{
anchors = (
{
name = bottom;
position = "{242, 0}";
},
{
name = top;
position = "{344, 641}";
}
);
background = {
paths = (
{
closed = 1;
nodes = (
"258 0 LINE SMOOTH",
"375 0 OFFCURVE",
"466 75 OFFCURVE",
"484 186 CURVE SMOOTH",
"498 275 OFFCURVE",
"435 350 OFFCURVE",
"347 350 CURVE",
"335 346 LINE",
"417 346 OFFCURVE",
"495 417 OFFCURVE",
"509 503 CURVE SMOOTH",
"522 587 OFFCURVE",
"466 641 OFFCURVE",
"362 641 CURVE SMOOTH",
"155 641 LINE SMOOTH",
"143 641 OFFCURVE",
"139 637 OFFCURVE",
"137 623 CURVE",
"210 607 LINE",
"199 618 LINE",
"105 23 LINE",
"118 34 LINE",
"57 20 LINE SMOOTH",
"45 17 OFFCURVE",
"40 12 OFFCURVE",
"39 0 CURVE"
);
},
{
closed = 1;
nodes = (
"176 339 LINE",
"310 339 LINE SMOOTH",
"413 339 OFFCURVE",
"461 282 OFFCURVE",
"444 177 CURVE SMOOTH",
"428 73 OFFCURVE",
"361 18 OFFCURVE",
"254 18 CURVE SMOOTH",
"213 18 OFFCURVE",
"158 27 OFFCURVE",
"128 38 CURVE",
"136 28 LINE",
"229 614 LINE",
"218 605 LINE",
"260 617 OFFCURVE",
"303 623 OFFCURVE",
"338 623 CURVE SMOOTH",
"438 623 OFFCURVE",
"486 573 OFFCURVE",
"473 487 CURVE SMOOTH",
"460 406 OFFCURVE",
"396 357 OFFCURVE",
"302 357 CURVE SMOOTH",
"179 357 LINE"
);
}
);
};
layerId = "E1BF09ED-4302-4AD3-9939-8FDA35DE0FE8";
paths = (
{
closed = 1;
nodes = (
"258 0 LINE SMOOTH",
"383 0 OFFCURVE",
"486 93 OFFCURVE",
"486 211 CURVE SMOOTH",
"486 288 OFFCURVE",
"427 350 OFFCURVE",
"347 350 CURVE",
"335 346 LINE",
"426 346 OFFCURVE",
"511 435 OFFCURVE",
"511 526 CURVE SMOOTH",
"511 597 OFFCURVE",
"456 641 OFFCURVE",
"362 641 CURVE SMOOTH",
"155 641 LINE SMOOTH",
"143 641 OFFCURVE",
"139 637 OFFCURVE",
"137 623 CURVE",
"210 607 LINE",
"199 618 LINE",
"105 23 LINE",
"118 34 LINE",
"57 20 LINE SMOOTH",
"45 17 OFFCURVE",
"40 12 OFFCURVE",
"39 0 CURVE"
);
},
{
closed = 1;
nodes = (
"176 339 LINE",
"310 339 LINE SMOOTH",
"399 339 OFFCURVE",
"447 296 OFFCURVE",
"447 216 CURVE SMOOTH",
"447 97 OFFCURVE",
"380 18 OFFCURVE",
"254 18 CURVE SMOOTH",
"213 18 OFFCURVE",
"158 27 OFFCURVE",
"128 38 CURVE",
"136 28 LINE",
"229 614 LINE",
"218 605 LINE",
"260 617 OFFCURVE",
"303 623 OFFCURVE",
"338 623 CURVE SMOOTH",
"427 623 OFFCURVE",
"475 583 OFFCURVE",
"475 513 CURVE SMOOTH",
"475 419 OFFCURVE",
"406 357 OFFCURVE",
"302 357 CURVE SMOOTH",
"179 357 LINE"
);
}
);
width = 555;
},
{
anchors = (
{
name = bottom;
position = "{282, 0}";
},
{
name = top;
position = "{383, 641}";
}
);
background = {
paths = (
{
closed = 1;
nodes = (
"339 0 LINE SMOOTH",
"468 0 OFFCURVE",
"559 74 OFFCURVE",
"578 193 CURVE SMOOTH",
"592 282 OFFCURVE",
"536 351 OFFCURVE",
"435 367 CURVE",
"444 354 LINE",
"530 373 OFFCURVE",
"591 431 OFFCURVE",
"602 503 CURVE SMOOTH",
"616 590 OFFCURVE",
"553 641 OFFCURVE",
"434 641 CURVE SMOOTH",
"120 641 LINE",
"102 617 OFFCURVE",
"93 594 OFFCURVE",
"88 565 CURVE",
"169 541 LINE",
"152 566 LINE",
"74 70 LINE",
"97 96 LINE",
"24 69 LINE SMOOTH",
"14 65 OFFCURVE",
"5 39 OFFCURVE",
"-1 0 CURVE"
);
},
{
closed = 1;
nodes = (
"259 300 LINE",
"306 300 LINE SMOOTH",
"385 300 OFFCURVE",
"417 264 OFFCURVE",
"405 189 CURVE SMOOTH",
"395 128 OFFCURVE",
"360 95 OFFCURVE",
"310 95 CURVE SMOOTH",
"286 95 OFFCURVE",
"262 102 OFFCURVE",
"244 114 CURVE",
"252 100 LINE",
"322 545 LINE",
"311 533 LINE",
"331 542 OFFCURVE",
"354 546 OFFCURVE",
"378 546 CURVE SMOOTH",
"420 546 OFFCURVE",
"435 524 OFFCURVE",
"428 474 CURVE SMOOTH",
"419 421 OFFCURVE",
"388 396 OFFCURVE",
"334 396 CURVE SMOOTH",
"272 396 LINE"
);
}
);
};
layerId = "7B53E429-1BF0-49C5-9F57-63EEBF39C6CC";
paths = (
{
closed = 1;
nodes = (
"339 0 LINE SMOOTH",
"476 0 OFFCURVE",
"582 94 OFFCURVE",
"582 214 CURVE SMOOTH",
"582 298 OFFCURVE",
"530 351 OFFCURVE",
"435 367 CURVE",
"444 354 LINE",
"538 374 OFFCURVE",
"604 444 OFFCURVE",
"604 523 CURVE SMOOTH",
"604 599 OFFCURVE",
"543 641 OFFCURVE",
"434 641 CURVE SMOOTH",
"120 641 LINE",
"103 618 OFFCURVE",
"93 595 OFFCURVE",
"88 565 CURVE",
"169 541 LINE",
"152 566 LINE",
"74 70 LINE",
"97 96 LINE",
"24 69 LINE SMOOTH",
"14 65 OFFCURVE",
"6 43 OFFCURVE",
"-1 0 CURVE"
);
},
{
closed = 1;
nodes = (
"259 300 LINE",
"306 300 LINE SMOOTH",
"372 300 OFFCURVE",
"407 269 OFFCURVE",
"407 211 CURVE SMOOTH",
"407 143 OFFCURVE",
"367 95 OFFCURVE",
"309 95 CURVE SMOOTH",
"286 95 OFFCURVE",
"262 102 OFFCURVE",
"244 114 CURVE",
"252 100 LINE",
"322 545 LINE",
"311 533 LINE",
"329 541 OFFCURVE",
"353 546 OFFCURVE",
"376 546 CURVE SMOOTH",
"417 546 OFFCURVE",
"434 531 OFFCURVE",
"434 492 CURVE SMOOTH",
"434 432 OFFCURVE",
"397 396 OFFCURVE",
"334 396 CURVE SMOOTH",
"272 396 LINE"
);
}
);
width = 610;
}
);
leftKerningGroup = H;
leftMetricsKey = H;
rightKerningGroup = B;
rightMetricsKey = "=O";
unicode = 0042;
},
{
color = 4;
glyphname = C;
layers = (
{
anchors = (
{
name = bottom;
position = "{305, 0}";
},
{
name = top;
position = "{406, 641}";
}
);
background = {
paths = (
{
closed = 1;
nodes = (
"387 -12 OFFCURVE",
"456 14 OFFCURVE",
"526 73 CURVE",
"535 196 LINE",
"528 205 OFFCURVE",
"512 209 OFFCURVE",
"485 209 CURVE",
"450 75 LINE",
"466 107 LINE",
"423 60 OFFCURVE",
"375 37 OFFCURVE",
"317 37 CURVE SMOOTH",
"193 37 OFFCURVE",
"125 159 OFFCURVE",
"153 333 CURVE SMOOTH",
"180 501 OFFCURVE",
"278 606 OFFCURVE",
"408 606 CURVE SMOOTH",
"462 606 OFFCURVE",
"504 588 OFFCURVE",
"538 550 CURVE",
"530 575 LINE",
"529 474 LINE SMOOTH",
"528 465 OFFCURVE",
"548 455 OFFCURVE",
"569 453 CURVE",
"610 605 LINE",
"568 637 OFFCURVE",
"509 655 OFFCURVE",
"443 655 CURVE SMOOTH",
"256 655 OFFCURVE",
"90 497 OFFCURVE",
"57 289 CURVE SMOOTH",
"28 106 OFFCURVE",
"125 -12 OFFCURVE",
"304 -12 CURVE SMOOTH"
);
}
);
};
layerId = "A9E90CC4-8E6C-407E-8E88-16513AA8D05B";
paths = (
{
closed = 1;
nodes = (
"375 -12 OFFCURVE",
"461 18 OFFCURVE",
"519 66 CURVE",
"534 197 LINE",
"532 208 OFFCURVE",
"522 213 OFFCURVE",
"493 213 CURVE",
"460 75 LINE",
"484 115 LINE",
"450 69 OFFCURVE",
"383 39 OFFCURVE",
"319 39 CURVE SMOOTH",
"212 39 OFFCURVE",
"149 120 OFFCURVE",
"149 259 CURVE SMOOTH",
"149 462 OFFCURVE",
"257 602 OFFCURVE",
"414 602 CURVE SMOOTH",
"470 602 OFFCURVE",
"526 583 OFFCURVE",
"551 556 CURVE",
"540 581 LINE",
"532 483 LINE SMOOTH",
"532 473 OFFCURVE",
"545 465 OFFCURVE",
"565 465 CURVE",
"605 606 LINE",
"563 638 OFFCURVE",
"505 655 OFFCURVE",
"442 655 CURVE SMOOTH",
"232 655 OFFCURVE",
"59 466 OFFCURVE",
"59 237 CURVE SMOOTH",
"59 84 OFFCURVE",
"149 -12 OFFCURVE",
"293 -12 CURVE SMOOTH"
);
}
);
width = 622;
},
{
anchors = (
{
name = bottom;
position = "{297, 0}";
},
{
name = top;
position = "{399, 641}";
}
);
background = {
paths = (
{
closed = 1;
nodes = (
"360 -12 OFFCURVE",
"440 16 OFFCURVE",
"501 62 CURVE",
"515 173 LINE",
"516 184 OFFCURVE",
"508 189 OFFCURVE",
"491 189 CURVE",
"463 65 LINE",
"478 93 LINE",
"445 46 OFFCURVE",
"374 14 OFFCURVE",
"305 14 CURVE SMOOTH",
"166 14 OFFCURVE",
"90 142 OFFCURVE",
"119 325 CURVE SMOOTH",
"148 507 OFFCURVE",
"262 626 OFFCURVE",
"408 626 CURVE SMOOTH",
"468 626 OFFCURVE",
"527 609 OFFCURVE",
"551 584 CURVE",
"546 599 LINE",
"536 503 LINE SMOOTH",
"535 494 OFFCURVE",
"543 487 OFFCURVE",
"553 487 CURVE",
"589 607 LINE",
"544 639 OFFCURVE",
"491 655 OFFCURVE",
"434 655 CURVE SMOOTH",
"264 655 OFFCURVE",
"110 500 OFFCURVE",
"78 298 CURVE SMOOTH",
"50 118 OFFCURVE",
"137 -12 OFFCURVE",
"288 -12 CURVE SMOOTH"
);
}
);
};
layerId = "E1BF09ED-4302-4AD3-9939-8FDA35DE0FE8";
paths = (
{
closed = 1;
nodes = (
"360 -12 OFFCURVE",
"440 16 OFFCURVE",
"501 62 CURVE",
"515 173 LINE",
"516 184 OFFCURVE",
"508 189 OFFCURVE",
"491 189 CURVE",
"463 65 LINE",
"478 93 LINE",
"445 46 OFFCURVE",
"374 14 OFFCURVE",
"305 14 CURVE SMOOTH",
"186 14 OFFCURVE",
"113 106 OFFCURVE",
"113 256 CURVE SMOOTH",
"113 476 OFFCURVE",
"233 626 OFFCURVE",
"411 626 CURVE SMOOTH",
"469 626 OFFCURVE",
"528 608 OFFCURVE",
"551 584 CURVE",
"546 599 LINE",
"536 503 LINE SMOOTH",
"535 495 OFFCURVE",
"543 487 OFFCURVE",
"553 487 CURVE",
"589 607 LINE",
"545 639 OFFCURVE",
"492 655 OFFCURVE",
"434 655 CURVE SMOOTH",
"234 655 OFFCURVE",
"73 467 OFFCURVE",
"73 236 CURVE SMOOTH",
"73 85 OFFCURVE",
"157 -12 OFFCURVE",
"289 -12 CURVE SMOOTH"
);
}
);
width = 607;
},
{
anchors = (
{
name = bottom;
position = "{318, 0}";
},
{
name = top;
position = "{419, 641}";
}
);
background = {
paths = (
{
closed = 1;
nodes = (
"401 -12 OFFCURVE",
"500 22 OFFCURVE",
"551 74 CURVE",
"568 244 LINE",
"560 256 OFFCURVE",
"546 259 OFFCURVE",
"496 259 CURVE",
"453 94 LINE",
"493 157 LINE",
"456 113 OFFCURVE",
"399 87 OFFCURVE",
"342 87 CURVE SMOOTH",
"245 87 OFFCURVE",
"200 180 OFFCURVE",
"224 332 CURVE SMOOTH",
"247 476 OFFCURVE",
"316 556 OFFCURVE",
"415 556 CURVE SMOOTH",
"470 556 OFFCURVE",
"519 536 OFFCURVE",
"549 500 CURVE",
"526 545 LINE",
"523 444 LINE SMOOTH",
"523 431 OFFCURVE",
"547 423 OFFCURVE",
"588 423 CURVE",
"635 605 LINE",
"594 637 OFFCURVE",
"528 655 OFFCURVE",
"454 655 CURVE SMOOTH",
"246 655 OFFCURVE",
"69 502 OFFCURVE",
"36 293 CURVE SMOOTH",
"7 108 OFFCURVE",
"111 -12 OFFCURVE",
"302 -12 CURVE SMOOTH"
);
}
);
};
layerId = "7B53E429-1BF0-49C5-9F57-63EEBF39C6CC";
paths = (
{
closed = 1;
nodes = (
"401 -12 OFFCURVE",
"500 22 OFFCURVE",
"551 74 CURVE",
"568 244 LINE",
"560 256 OFFCURVE",
"546 259 OFFCURVE",
"496 259 CURVE",
"453 94 LINE",
"493 157 LINE",
"457 114 OFFCURVE",
"400 87 OFFCURVE",
"344 87 CURVE SMOOTH",
"261 87 OFFCURVE",
"218 147 OFFCURVE",
"218 264 CURVE SMOOTH",
"218 434 OFFCURVE",
"302 556 OFFCURVE",
"419 556 CURVE SMOOTH",
"471 556 OFFCURVE",
"520 535 OFFCURVE",
"549 500 CURVE",
"526 545 LINE",
"523 444 LINE SMOOTH",
"523 431 OFFCURVE",
"547 423 OFFCURVE",
"588 423 CURVE",
"635 605 LINE",
"595 637 OFFCURVE",
"529 655 OFFCURVE",
"457 655 CURVE SMOOTH",
"227 655 OFFCURVE",
"31 464 OFFCURVE",
"31 240 CURVE SMOOTH",
"31 82 OFFCURVE",
"131 -12 OFFCURVE",
"300 -12 CURVE SMOOTH"
);
}
);
width = 648;
}
);
leftKerningGroup = O;
leftMetricsKey = O;
rightKerningGroup = C;
unicode = 0043;
},
{
color = 1;
glyphname = Ccedilla;
layers = (
{
background = {
paths = (
{
closed = 1;
nodes = (
"567 207 OFFCURVE",
"544 209 OFFCURVE",
"522 209 CURVE",
"509 96 LINE",
"480 63 OFFCURVE",
"436 37 OFFCURVE",
"371 37 CURVE SMOOTH",
"229 37 OFFCURVE",
"150 175 OFFCURVE",
"150 332 CURVE SMOOTH",
"152 483 OFFCURVE",
"217 606 OFFCURVE",
"380 606 CURVE SMOOTH",
"429 606 OFFCURVE",
"479 586 OFFCURVE",
"511 558 CURVE",
"524 474 LINE SMOOTH",
"526 461 OFFCURVE",
"556 454 OFFCURVE",
"571 453 CURVE",
"589 605 LINE",
"533 640 OFFCURVE",
"474 655 OFFCURVE",
"387 655 CURVE SMOOTH",
"175 655 OFFCURVE",
"48 465 OFFCURVE",
"48 289 CURVE SMOOTH",
"48 143 OFFCURVE",
"134 3 OFFCURVE",
"337 -11 CURVE",
"316 -97 LINE",
"327 -96 OFFCURVE",
"335 -95 OFFCURVE",
"343 -95 CURVE SMOOTH",
"402 -95 OFFCURVE",
"439 -120 OFFCURVE",
"439 -167 CURVE SMOOTH",
"439 -214 OFFCURVE",
"410 -238 OFFCURVE",
"365 -238 CURVE SMOOTH",
"329 -238 OFFCURVE",
"305 -215 OFFCURVE",
"305 -164 CURVE",
"301 -160 OFFCURVE",
"290 -150 OFFCURVE",
"274 -150 CURVE SMOOTH",
"254 -150 OFFCURVE",
"241 -162 OFFCURVE",
"241 -185 CURVE SMOOTH",
"241 -230 OFFCURVE",
"284 -270 OFFCURVE",
"363 -270 CURVE SMOOTH",
"456 -270 OFFCURVE",
"504 -212 OFFCURVE",
"504 -160 CURVE SMOOTH",
"504 -76 OFFCURVE",
"433 -53 OFFCURVE",
"371 -53 CURVE",
"380 -12 LINE",
"464 -9 OFFCURVE",
"529 21 OFFCURVE",
"589 73 CURVE",
"578 196 LINE"
);
}
);
};
components = (
{
name = C;
},
{
name = cedillacomb.case;
transform = "{1, 0, 0, 1, 214, 0}";
}
);
layerId = "A9E90CC4-8E6C-407E-8E88-16513AA8D05B";
width = 622;
},
{
components = (
{
name = C;
},
{
name = cedillacomb.case;
transform = "{1, 0, 0, 1, 234, 0}";
}
);
layerId = "E1BF09ED-4302-4AD3-9939-8FDA35DE0FE8";
width = 607;
},
{
components = (
{
name = C;
},
{
name = cedillacomb.case;
transform = "{1, 0, 0, 1, 212, 0}";
}
);
layerId = "7B53E429-1BF0-49C5-9F57-63EEBF39C6CC";
width = 648;
}
);
leftKerningGroup = O;
rightKerningGroup = C;
unicode = 00C7;
},
{
color = 4;
glyphname = D;
layers = (
{
anchors = (
{
name = bottom;
position = "{286, 0}";
},
{
name = center;
position = "{194, 321}";
},
{
name = top;
position = "{403, 641}";
}
);
background = {
paths = (
{
closed = 1;
nodes = (
"268 0 LINE SMOOTH",
"441 0 OFFCURVE",
"599 151 OFFCURVE",
"630 345 CURVE SMOOTH",
"658 524 OFFCURVE",
"561 641 OFFCURVE",
"385 641 CURVE SMOOTH",
"121 641 LINE",
"106 631 OFFCURVE",
"100 620 OFFCURVE",
"96 595 CURVE",
"175 571 LINE",
"168 584 LINE",
"84 52 LINE",
"95 66 LINE",
"23 39 LINE SMOOTH",
"14 36 OFFCURVE",
"5 20 OFFCURVE",
"2 0 CURVE"
);
},
{
closed = 1;
nodes = (
"238 46 OFFCURVE",
"190 56 OFFCURVE",
"157 71 CURVE",
"165 57 LINE",
"249 589 LINE",
"238 577 LINE",
"275 588 OFFCURVE",
"325 595 OFFCURVE",
"366 595 CURVE SMOOTH",
"496 595 OFFCURVE",
"562 483 OFFCURVE",
"535 310 CURVE SMOOTH",
"509 145 OFFCURVE",
"414 46 OFFCURVE",
"283 46 CURVE SMOOTH"
);
}
);
};
layerId = "A9E90CC4-8E6C-407E-8E88-16513AA8D05B";
paths = (
{
closed = 1;
nodes = (
"289 0 LINE SMOOTH",
"469 0 OFFCURVE",
"638 181 OFFCURVE",
"638 404 CURVE SMOOTH",
"638 550 OFFCURVE",
"551 641 OFFCURVE",
"410 641 CURVE SMOOTH",
"142 641 LINE SMOOTH",
"129 633 OFFCURVE",
"123 622 OFFCURVE",
"120 603 CURVE",
"194 585 LINE",
"183 601 LINE",
"95 39 LINE",
"111 55 LINE",
"46 37 LINE SMOOTH",
"35 33 OFFCURVE",
"28 21 OFFCURVE",
"25 0 CURVE"
);
},
{
closed = 1;
nodes = (
"243 46 OFFCURVE",
"189 54 OFFCURVE",
"168 63 CURVE",
"175 49 LINE",
"261 594 LINE",
"245 578 LINE",
"278 589 OFFCURVE",
"332 597 OFFCURVE",
"367 597 CURVE SMOOTH",
"483 597 OFFCURVE",
"549 521 OFFCURVE",
"549 377 CURVE SMOOTH",
"549 184 OFFCURVE",
"432 46 OFFCURVE",
"281 46 CURVE SMOOTH"
);
}
);
width = 666;
},
{
anchors = (
{
name = bottom;
position = "{276, 0}";
},
{
name = center;
position = "{182, 321}";
},
{
name = top;
position = "{396, 641}";
}
);
background = {
paths = (
{
closed = 1;
nodes = (
"269 0 LINE SMOOTH",
"452 0 OFFCURVE",
"587 183 OFFCURVE",
"613 345 CURVE SMOOTH",
"637 499 OFFCURVE",
"569 641 OFFCURVE",
"392 641 CURVE SMOOTH",
"155 641 LINE SMOOTH",
"143 641 OFFCURVE",
"139 637 OFFCURVE",
"137 623 CURVE",
"207 607 LINE",
"199 619 LINE",
"105 23 LINE",
"118 34 LINE",
"57 20 LINE SMOOTH",
"46 18 OFFCURVE",
"40 12 OFFCURVE",
"39 0 CURVE"
);
},
{
closed = 1;
nodes = (
"223 20 OFFCURVE",
"166 25 OFFCURVE",
"128 36 CURVE",
"135 22 LINE",
"230 619 LINE",
"218 607 LINE",
"254 615 OFFCURVE",
"303 623 OFFCURVE",
"367 623 CURVE SMOOTH",
"532 623 OFFCURVE",
"598 479 OFFCURVE",
"572 314 CURVE SMOOTH",
"549 167 OFFCURVE",
"436 20 OFFCURVE",
"277 20 CURVE SMOOTH"
);
}
);
};
guideLines = (
{
angle = 27.1213;
position = "{598, 393}";
}
);
layerId = "E1BF09ED-4302-4AD3-9939-8FDA35DE0FE8";
paths = (
{
closed = 1;
nodes = (
"269 0 LINE SMOOTH",
"448 0 OFFCURVE",
"618 196 OFFCURVE",
"618 403 CURVE SMOOTH",
"618 549 OFFCURVE",
"531 641 OFFCURVE",
"392 641 CURVE SMOOTH",
"155 641 LINE SMOOTH",
"143 641 OFFCURVE",
"139 637 OFFCURVE",
"137 623 CURVE",
"207 607 LINE",
"199 619 LINE",
"105 23 LINE",
"118 34 LINE",
"57 20 LINE SMOOTH",
"45 17 OFFCURVE",
"40 11 OFFCURVE",
"39 0 CURVE"
);
},
{
closed = 1;
nodes = (
"219 20 OFFCURVE",
"154 28 OFFCURVE",
"128 36 CURVE",
"135 22 LINE",
"230 619 LINE",
"218 607 LINE",
"257 616 OFFCURVE",
"317 623 OFFCURVE",
"355 623 CURVE SMOOTH",
"497 623 OFFCURVE",
"577 536 OFFCURVE",
"577 382 CURVE SMOOTH",
"577 176 OFFCURVE",
"441 20 OFFCURVE",
"262 20 CURVE SMOOTH"
);
}
);
width = 659;
},
{
anchors = (
{
name = bottom;
position = "{307, 0}";
},
{
name = center;
position = "{217, 321}";
},
{
name = top;
position = "{418, 641}";
}
);
guideLines = (
{
angle = 27.1213;
position = "{678, 425}";
}
);
layerId = "7B53E429-1BF0-49C5-9F57-63EEBF39C6CC";
paths = (
{
closed = 1;
nodes = (
"329 0 LINE SMOOTH",
"511 0 OFFCURVE",
"678 153 OFFCURVE",
"678 405 CURVE SMOOTH",
"678 552 OFFCURVE",
"590 641 OFFCURVE",
"444 641 CURVE SMOOTH",
"117 641 LINE",
"101 616 OFFCURVE",
"92 593 OFFCURVE",
"88 565 CURVE",
"169 541 LINE",
"152 566 LINE",
"74 70 LINE",
"97 96 LINE",
"24 69 LINE SMOOTH",
"14 65 OFFCURVE",
"5 40 OFFCURVE",
"-1 0 CURVE"
);
},
{
closed = 1;
nodes = (
"289 96 OFFCURVE",
"259 104 OFFCURVE",
"245 116 CURVE",
"252 102 LINE",
"322 544 LINE",
"298 522 LINE",
"320 535 OFFCURVE",
"360 545 OFFCURVE",
"390 545 CURVE SMOOTH",
"457 545 OFFCURVE",
"493 491 OFFCURVE",
"493 368 CURVE SMOOTH",
"493 199 OFFCURVE",
"415 96 OFFCURVE",
"317 96 CURVE SMOOTH"
);
}
);
width = 680;
}
);
leftKerningGroup = H;
leftMetricsKey = H;
rightKerningGroup = O;
rightMetricsKey = O;
unicode = 0044;
},
{
color = 1;
glyphname = Eth;
layers = (
{
background = {
paths = (
{
closed = 1;
nodes = (
"52 630 OFFCURVE",
"49 618 OFFCURVE",
"49 595 CURVE",
"128 574 LINE",
"128 358 LINE",
"126 358 LINE SMOOTH",
"70 358 OFFCURVE",
"49 332 OFFCURVE",
"49 309 CURVE SMOOTH",
"49 301 OFFCURVE",
"52 293 OFFCURVE",
"58 286 CURVE",
"128 290 LINE",
"128 62 LINE",
"65 39 LINE SMOOTH",
"53 35 OFFCURVE",
"49 16 OFFCURVE",
"49 0 CURVE",
"335 0 LINE SMOOTH",
"544 0 OFFCURVE",
"665 175 OFFCURVE",
"665 345 CURVE SMOOTH",
"665 499 OFFCURVE",
"567 641 OFFCURVE",
"352 641 CURVE SMOOTH",
"68 641 LINE"
);
},
{
closed = 1;
nodes = (
"316 302 LINE",
"333 310 OFFCURVE",
"335 336 OFFCURVE",
"335 347 CURVE",
"214 353 LINE",
"214 579 LINE",
"249 586 OFFCURVE",
"293 595 OFFCURVE",
"344 595 CURVE SMOOTH",
"488 595 OFFCURVE",
"563 464 OFFCURVE",
"563 311 CURVE",
"561 164 OFFCURVE",
"497 46 OFFCURVE",
"343 46 CURVE SMOOTH",
"294 46 OFFCURVE",
"252 54 OFFCURVE",
"214 67 CURVE",
"214 296 LINE"
);
}
);
};
components = (
{
name = D;
},
{
name = strokeshortcomb;
transform = "{1, 0, 0, 1, 32, -1}";
}
);
layerId = "A9E90CC4-8E6C-407E-8E88-16513AA8D05B";
width = 666;
},
{
components = (
{
name = D;
},
{
name = strokeshortcomb;
transform = "{1, 0, 0, 1, 71, -1}";
}
);
layerId = "E1BF09ED-4302-4AD3-9939-8FDA35DE0FE8";
width = 659;
},
{
components = (
{
name = D;
},
{
name = strokeshortcomb;
transform = "{1, 0, 0, 1, 35, -1}";
}
);
layerId = "7B53E429-1BF0-49C5-9F57-63EEBF39C6CC";
width = 680;
}
);
leftKerningGroup = H;
rightKerningGroup = O;
unicode = 00D0;
},
{
color = 4;
glyphname = E;
layers = (
{
anchors = (
{
name = "#entry";
position = "{25, 0}";
},
{
name = bottom;
position = "{253, 0}";
},
{
name = ogonek;
position = "{464, 0}";
},
{
name = top;
position = "{355, 641}";
},
{
name = topleft;
position = "{144, 641}";
}
);
background = {
paths = (
{
closed = 1;
nodes = (
"459 0 LINE",
"482 149 LINE",
"474 164 OFFCURVE",
"468 168 OFFCURVE",
"443 168 CURVE",
"390 36 LINE",
"404 45 LINE",
"157 68 LINE",
"165 57 LINE",
"204 309 LINE",
"194 299 LINE",
"389 299 LINE",
"378 309 LINE",
"389 239 LINE",
"410 239 OFFCURVE",
"415 242 OFFCURVE",
"427 255 CURVE",
"450 395 LINE",
"441 408 OFFCURVE",
"437 411 OFFCURVE",
"416 411 CURVE",
"383 341 LINE",
"397 351 LINE",
"202 351 LINE",
"210 341 LINE",
"249 591 LINE",
"237 578 LINE",
"467 596 LINE",
"455 605 LINE",
"473 504 LINE SMOOTH",
"475 492 OFFCURVE",
"492 488 OFFCURVE",
"507 488 CURVE",
"531 641 LINE",
"121 641 LINE",
"105 630 OFFCURVE",
"100 618 OFFCURVE",
"96 595 CURVE",
"175 571 LINE",
"168 584 LINE",
"84 52 LINE",
"95 66 LINE",
"23 39 LINE SMOOTH",
"11 35 OFFCURVE",
"5 16 OFFCURVE",
"2 0 CURVE"
);
}
);
};
layerId = "A9E90CC4-8E6C-407E-8E88-16513AA8D05B";
paths = (
{
closed = 1;
nodes = (
"464 0 LINE",
"485 133 LINE SMOOTH",
"478 144 OFFCURVE",
"470 149 OFFCURVE",
"452 149 CURVE",
"407 29 LINE",
"421 42 LINE",
"167 60 LINE",
"175 49 LINE",
"216 312 LINE",
"205 303 LINE",
"398 303 LINE",
"387 312 LINE",
"389 239 LINE",
"402 239 OFFCURVE",
"416 242 OFFCURVE",
"428 254 CURVE",
"451 395 LINE",
"442 408 OFFCURVE",
"430 410 OFFCURVE",
"416 410 CURVE",
"392 340 LINE",
"404 348 LINE",
"212 348 LINE",
"220 340 LINE",
"261 598 LINE",
"249 585 LINE",
"485 599 LINE",
"474 608 LINE",
"485 531 LINE SMOOTH",
"487 519 OFFCURVE",
"496 514 OFFCURVE",
"517 514 CURVE",
"537 641 LINE",
"144 641 LINE",
"128 632 OFFCURVE",
"123 621 OFFCURVE",
"120 603 CURVE",
"194 585 LINE",
"183 601 LINE",
"95 39 LINE",
"111 55 LINE",
"46 37 LINE SMOOTH",
"35 34 OFFCURVE",
"28 21 OFFCURVE",
"25 0 CURVE"
);
}
);
width = 573;
},
{
anchors = (
{
name = "#entry";
position = "{39, 0}";
},
{
name = bottom;
position = "{252, 0}";
},
{
name = ogonek;
position = "{444, 0}";
},
{
name = top;
position = "{354, 641}";
},
{
name = topleft;
position = "{156, 641}";
}
);
layerId = "E1BF09ED-4302-4AD3-9939-8FDA35DE0FE8";
paths = (
{
closed = 1;
nodes = (
"444 0 LINE",
"461 108 LINE SMOOTH",
"462 115 OFFCURVE",
"460 121 OFFCURVE",
"446 121 CURVE",
"405 7 LINE",
"419 16 LINE",
"128 34 LINE",
"135 23 LINE",
"183 323 LINE",
"172 314 LINE",
"405 314 LINE",
"395 323 LINE",
"394 253 LINE",
"402 253 OFFCURVE",
"409 254 OFFCURVE",
"414 264 CURVE",
"434 386 LINE",
"431 396 OFFCURVE",
"426 397 OFFCURVE",
"417 397 CURVE",
"397 330 LINE",
"408 336 LINE",
"175 336 LINE",
"184 329 LINE",
"231 625 LINE",
"218 612 LINE",
"486 625 LINE",
"475 634 LINE",
"485 558 LINE SMOOTH",
"487 546 OFFCURVE",
"493 542 OFFCURVE",
"501 542 CURVE",
"517 641 LINE",
"156 641 LINE",
"143 641 OFFCURVE",
"139 637 OFFCURVE",
"137 623 CURVE",
"207 607 LINE",
"199 619 LINE",
"105 23 LINE",
"118 34 LINE",
"57 20 LINE SMOOTH",
"46 18 OFFCURVE",
"40 12 OFFCURVE",
"39 0 CURVE"
);
}
);
width = 558;
},
{
anchors = (
{
name = "#entry";
position = "{-1, 0}";
},
{
name = bottom;
position = "{256, 0}";
},
{
name = ogonek;
position = "{503, 0}";
},
{
name = top;
position = "{358, 641}";
},
{
name = topleft;
position = "{121, 641}";
}
);
layerId = "7B53E429-1BF0-49C5-9F57-63EEBF39C6CC";
paths = (
{
closed = 1;
nodes = (
"503 0 LINE",
"532 183 LINE",
"509 200 OFFCURVE",
"489 205 OFFCURVE",
"464 205 CURVE",
"412 72 LINE",
"426 94 LINE",
"244 111 LINE",
"252 100 LINE",
"282 291 LINE",
"271 281 LINE",
"383 281 LINE",
"371 290 LINE",
"380 212 LINE",
"401 212 OFFCURVE",
"429 217 OFFCURVE",
"454 234 CURVE",
"483 414 LINE",
"463 431 OFFCURVE",
"437 436 OFFCURVE",
"415 436 CURVE",
"383 361 LINE",
"397 371 LINE",
"285 371 LINE",
"293 361 LINE",
"322 544 LINE",
"310 531 LINE",
"483 549 LINE",
"471 558 LINE",
"485 478 LINE SMOOTH",
"487 466 OFFCURVE",
"501 458 OFFCURVE",
"547 458 CURVE",
"576 641 LINE",
"121 641 LINE",
"100 614 OFFCURVE",
"92 591 OFFCURVE",
"88 565 CURVE",
"169 541 LINE",
"152 566 LINE",
"74 70 LINE",
"97 96 LINE",
"24 69 LINE SMOOTH",
"14 65 OFFCURVE",
"5 39 OFFCURVE",
"-1 0 CURVE"
);
}
);
width = 602;
}
);
leftKerningGroup = H;
leftMetricsKey = H;
rightKerningGroup = E;
unicode = 0045;
},
{
color = 1;
glyphname = Eacute;
layers = (
{
background = {
paths = (
{
closed = 1;
nodes = (
"64 641 LINE",
"48 630 OFFCURVE",
"45 618 OFFCURVE",
"45 595 CURVE",
"124 574 LINE",
"124 62 LINE",
"61 39 LINE SMOOTH",
"49 35 OFFCURVE",
"45 16 OFFCURVE",
"45 0 CURVE",
"536 0 LINE",
"536 149 LINE",
"525 164 OFFCURVE",
"517 168 OFFCURVE",
"490 168 CURVE",
"459 46 LINE",
"210 67 LINE",
"210 299 LINE",
"400 299 LINE",
"420 224 LINE",
"443 224 OFFCURVE",
"448 227 OFFCURVE",
"459 240 CURVE",
"459 410 LINE",
"448 423 OFFCURVE",
"443 426 OFFCURVE",
"420 426 CURVE",
"400 351 LINE",
"210 351 LINE",
"210 579 LINE",
"433 595 LINE",
"466 504 LINE SMOOTH",
"470 492 OFFCURVE",
"489 488 OFFCURVE",
"505 488 CURVE",
"505 641 LINE"
);
},
{
closed = 1;
nodes = (
"459 833 OFFCURVE",
"448 858 OFFCURVE",
"425 858 CURVE SMOOTH",
"394 858 OFFCURVE",
"341 825 OFFCURVE",
"205 743 CURVE",
"204 741 OFFCURVE",
"204 738 OFFCURVE",
"204 736 CURVE SMOOTH",
"204 728 OFFCURVE",
"208 721 OFFCURVE",
"218 715 CURVE",
"369 760 OFFCURVE",
"459 781 OFFCURVE",
"459 816 CURVE SMOOTH"
);
}
);
};
components = (
{
name = E;
},
{
name = acutecomb.case;
transform = "{1, 0, 0, 1, 213, 198}";
}
);
layerId = "A9E90CC4-8E6C-407E-8E88-16513AA8D05B";
width = 573;
},
{
components = (
{
name = E;
},
{
name = acutecomb.case;
transform = "{1, 0, 0, 1, 228, 198}";
}
);
layerId = "E1BF09ED-4302-4AD3-9939-8FDA35DE0FE8";
width = 558;
},
{
components = (
{
name = E;
},
{
name = acutecomb.case;
transform = "{1, 0, 0, 1, 182, 198}";
}
);
layerId = "7B53E429-1BF0-49C5-9F57-63EEBF39C6CC";
width = 602;
}
);
leftKerningGroup = H;
rightKerningGroup = E;
unicode = 00C9;
},
{
color = 1;
glyphname = Ecircumflex;
layers = (
{
background = {
paths = (
{
closed = 1;
nodes = (
"64 641 LINE",
"48 630 OFFCURVE",
"45 618 OFFCURVE",
"45 595 CURVE",
"124 574 LINE",
"124 62 LINE",
"61 39 LINE SMOOTH",
"49 35 OFFCURVE",
"45 16 OFFCURVE",
"45 0 CURVE",
"536 0 LINE",
"536 149 LINE",
"525 164 OFFCURVE",
"517 168 OFFCURVE",
"490 168 CURVE",
"459 46 LINE",
"210 67 LINE",
"210 299 LINE",
"400 299 LINE",
"420 239 LINE",
"443 239 OFFCURVE",
"448 242 OFFCURVE",
"459 255 CURVE",
"459 395 LINE",
"448 408 OFFCURVE",
"443 411 OFFCURVE",
"420 411 CURVE",
"400 351 LINE",
"210 351 LINE",
"210 579 LINE",
"433 595 LINE",
"466 504 LINE SMOOTH",
"470 492 OFFCURVE",
"489 488 OFFCURVE",
"505 488 CURVE",
"505 641 LINE"
);
},
{
closed = 1;
nodes = (
"321 854 OFFCURVE",
"306 858 OFFCURVE",
"297 858 CURVE SMOOTH",
"288 858 OFFCURVE",
"273 853 OFFCURVE",
"253 839 CURVE SMOOTH",
"116 743 LINE",
"116 743 OFFCURVE",
"115 740 OFFCURVE",
"115 737 CURVE SMOOTH",
"115 728 OFFCURVE",
"120 720 OFFCURVE",
"129 715 CURVE",
"297 787 LINE",
"465 715 LINE",
"474 720 OFFCURVE",
"479 728 OFFCURVE",
"479 737 CURVE SMOOTH",
"479 740 OFFCURVE",
"478 743 OFFCURVE",
"478 743 CURVE",
"341 839 LINE SMOOTH"
);
}
);
};
components = (
{
name = E;
},
{
name = circumflexcomb.case;
transform = "{1, 0, 0, 1, 172, 198}";
}
);
layerId = "A9E90CC4-8E6C-407E-8E88-16513AA8D05B";
width = 573;
},
{
components = (
{
name = E;
},
{
name = circumflexcomb.case;
transform = "{1, 0, 0, 1, 191, 198}";
}
);
layerId = "E1BF09ED-4302-4AD3-9939-8FDA35DE0FE8";
width = 558;
},
{
components = (
{
name = E;
},
{
name = circumflexcomb.case;
transform = "{1, 0, 0, 1, 139, 198}";
}
);
layerId = "7B53E429-1BF0-49C5-9F57-63EEBF39C6CC";
width = 602;
}
);
leftKerningGroup = E;
rightKerningGroup = E;
unicode = 00CA;
},
{
color = 1;
glyphname = Edieresis;
layers = (
{
background = {
paths = (
{
closed = 1;
nodes = (
"150 755 OFFCURVE",
"165 736 OFFCURVE",
"196 736 CURVE SMOOTH",
"220 736 OFFCURVE",
"243 757 OFFCURVE",
"243 782 CURVE SMOOTH",
"243 809 OFFCURVE",
"227 828 OFFCURVE",
"196 828 CURVE SMOOTH",
"173 828 OFFCURVE",
"150 807 OFFCURVE",
"150 782 CURVE SMOOTH"
);
},
{
closed = 1;
nodes = (
"357 755 OFFCURVE",
"372 736 OFFCURVE",
"403 736 CURVE SMOOTH",
"427 736 OFFCURVE",
"450 757 OFFCURVE",
"450 782 CURVE SMOOTH",
"450 809 OFFCURVE",
"434 828 OFFCURVE",
"403 828 CURVE SMOOTH",
"380 828 OFFCURVE",
"357 807 OFFCURVE",
"357 782 CURVE SMOOTH"
);
},
{
closed = 1;
nodes = (
"64 641 LINE",
"48 630 OFFCURVE",
"45 618 OFFCURVE",
"45 595 CURVE",
"124 574 LINE",
"124 62 LINE",
"61 39 LINE SMOOTH",
"49 35 OFFCURVE",
"45 16 OFFCURVE",
"45 0 CURVE",
"536 0 LINE",
"536 149 LINE",
"525 164 OFFCURVE",
"517 168 OFFCURVE",
"490 168 CURVE",
"459 46 LINE",
"210 67 LINE",
"210 299 LINE",
"400 299 LINE",
"420 224 LINE",
"443 224 OFFCURVE",
"448 227 OFFCURVE",
"459 240 CURVE",
"459 410 LINE",
"448 423 OFFCURVE",
"443 426 OFFCURVE",
"420 426 CURVE",
"400 351 LINE",
"210 351 LINE",
"210 579 LINE",
"433 595 LINE",
"466 504 LINE SMOOTH",
"470 492 OFFCURVE",
"489 488 OFFCURVE",
"505 488 CURVE",
"505 641 LINE"
);
}
);
};
components = (
{
name = E;
},
{
name = dieresiscomb.case;
transform = "{1, 0, 0, 1, 171, 198}";
}
);
layerId = "A9E90CC4-8E6C-407E-8E88-16513AA8D05B";
width = 573;
},
{
components = (
{
name = E;
},
{
name = dieresiscomb.case;
transform = "{1, 0, 0, 1, 218, 198}";
}
);
layerId = "E1BF09ED-4302-4AD3-9939-8FDA35DE0FE8";
width = 558;
},
{
components = (
{
name = E;
},
{
name = dieresiscomb.case;
transform = "{1, 0, 0, 1, 109, 198}";
}
);
layerId = "7B53E429-1BF0-49C5-9F57-63EEBF39C6CC";
width = 602;
}
);
leftKerningGroup = H;
rightKerningGroup = E;
unicode = 00CB;
},
{
color = 1;
glyphname = Egrave;
layers = (
{
background = {
paths = (
{
closed = 1;
nodes = (
"64 641 LINE",
"48 630 OFFCURVE",
"45 618 OFFCURVE",
"45 595 CURVE",
"124 574 LINE",
"124 62 LINE",
"61 39 LINE SMOOTH",
"49 35 OFFCURVE",
"45 16 OFFCURVE",
"45 0 CURVE",
"536 0 LINE",
"536 149 LINE",
"525 164 OFFCURVE",
"517 168 OFFCURVE",
"490 168 CURVE",
"459 46 LINE",
"210 67 LINE",
"210 299 LINE",
"400 299 LINE",
"420 224 LINE",
"443 224 OFFCURVE",
"448 227 OFFCURVE",
"459 240 CURVE",
"459 410 LINE",
"448 423 OFFCURVE",
"443 426 OFFCURVE",
"420 426 CURVE",
"400 351 LINE",
"210 351 LINE",
"210 579 LINE",
"433 595 LINE",
"466 504 LINE SMOOTH",
"470 492 OFFCURVE",
"489 488 OFFCURVE",
"505 488 CURVE",
"505 641 LINE"
);
},
{
closed = 1;
nodes = (
"144 781 OFFCURVE",
"234 760 OFFCURVE",
"385 715 CURVE",
"395 721 OFFCURVE",
"399 728 OFFCURVE",
"399 736 CURVE SMOOTH",
"399 738 OFFCURVE",
"399 741 OFFCURVE",
"398 743 CURVE",
"262 825 OFFCURVE",
"209 858 OFFCURVE",
"178 858 CURVE SMOOTH",
"155 858 OFFCURVE",
"144 833 OFFCURVE",
"144 816 CURVE SMOOTH"
);
}
);
};
components = (
{
name = E;
},
{
name = gravecomb.case;
transform = "{1, 0, 0, 1, 177, 198}";
}
);
layerId = "A9E90CC4-8E6C-407E-8E88-16513AA8D05B";
width = 573;
},
{
components = (
{
name = E;
},
{
name = gravecomb.case;
transform = "{1, 0, 0, 1, 256, 198}";
}
);
layerId = "E1BF09ED-4302-4AD3-9939-8FDA35DE0FE8";
width = 558;
},
{
components = (
{
name = E;
},
{
name = gravecomb.case;
transform = "{1, 0, 0, 1, 211, 198}";
}
);
layerId = "7B53E429-1BF0-49C5-9F57-63EEBF39C6CC";
width = 602;
}
);
leftKerningGroup = H;
rightKerningGroup = E;
unicode = 00C8;
},
{
color = 4;
glyphname = F;
layers = (
{
anchors = (
{
name = bottom;
position = "{220, 0}";
},
{
name = top;
position = "{322, 641}";
}
);
background = {
paths = (
{
closed = 1;
nodes = (
"231 0 LINE",
"247 11 OFFCURVE",
"252 19 OFFCURVE",
"256 46 CURVE",
"157 69 LINE",
"165 57 LINE",
"203 299 LINE",
"192 289 LINE",
"387 289 LINE",
"377 299 LINE",
"386 224 LINE",
"408 224 OFFCURVE",
"413 227 OFFCURVE",
"425 240 CURVE",
"448 385 LINE",
"440 398 OFFCURVE",
"436 401 OFFCURVE",
"414 401 CURVE",
"382 331 LINE",
"396 341 LINE",
"200 341 LINE",
"208 331 LINE",
"249 589 LINE",
"238 578 LINE",
"467 596 LINE",
"455 605 LINE",
"473 504 LINE SMOOTH",
"475 492 OFFCURVE",
"492 488 OFFCURVE",
"507 488 CURVE",
"531 641 LINE",
"121 641 LINE",
"105 630 OFFCURVE",
"100 618 OFFCURVE",
"96 595 CURVE",
"175 571 LINE",
"168 584 LINE",
"84 52 LINE",
"95 66 LINE",
"23 39 LINE SMOOTH",
"11 35 OFFCURVE",
"5 16 OFFCURVE",
"2 0 CURVE"
);
}
);
};
layerId = "A9E90CC4-8E6C-407E-8E88-16513AA8D05B";
paths = (
{
closed = 1;
nodes = (
"225 0 LINE SMOOTH",
"241 10 OFFCURVE",
"246 20 OFFCURVE",
"248 38 CURVE",
"160 56 LINE",
"173 40 LINE",
"214 302 LINE",
"203 293 LINE",
"395 293 LINE",
"386 302 LINE",
"388 229 LINE",
"400 229 OFFCURVE",
"414 232 OFFCURVE",
"426 244 CURVE",
"448 385 LINE",
"441 398 OFFCURVE",
"428 400 OFFCURVE",
"414 400 CURVE",
"391 330 LINE",
"403 338 LINE",
"211 338 LINE",
"219 330 LINE",
"261 597 LINE",
"249 584 LINE",
"485 599 LINE",
"474 608 LINE",
"485 531 LINE SMOOTH",
"487 519 OFFCURVE",
"496 514 OFFCURVE",
"517 514 CURVE",
"537 641 LINE",
"144 641 LINE SMOOTH",
"128 632 OFFCURVE",
"123 621 OFFCURVE",
"120 603 CURVE",
"194 585 LINE",
"183 601 LINE",
"95 39 LINE",
"111 55 LINE",
"46 37 LINE SMOOTH",
"35 34 OFFCURVE",
"28 21 OFFCURVE",
"25 0 CURVE"
);
}
);
width = 513;
},
{
anchors = (
{
name = bottom;
position = "{214, 0}";
},
{
name = top;
position = "{316, 641}";
}
);
layerId = "E1BF09ED-4302-4AD3-9939-8FDA35DE0FE8";
paths = (
{
closed = 1;
nodes = (
"190 0 LINE SMOOTH",
"203 0 OFFCURVE",
"207 4 OFFCURVE",
"209 18 CURVE",
"127 34 LINE",
"135 22 LINE",
"181 313 LINE",
"170 304 LINE",
"398 304 LINE",
"389 313 LINE",
"388 243 LINE",
"396 243 OFFCURVE",
"403 244 OFFCURVE",
"408 254 CURVE",
"427 376 LINE",
"425 386 OFFCURVE",
"420 387 OFFCURVE",
"410 387 CURVE",
"391 320 LINE",
"402 326 LINE",
"174 326 LINE",
"182 319 LINE",
"230 625 LINE",
"218 612 LINE",
"486 625 LINE",
"475 634 LINE",
"485 558 LINE SMOOTH",
"487 546 OFFCURVE",
"493 542 OFFCURVE",
"501 542 CURVE",
"517 641 LINE",
"156 641 LINE SMOOTH",
"143 641 OFFCURVE",
"139 637 OFFCURVE",
"137 623 CURVE",
"207 607 LINE",
"199 619 LINE",
"105 23 LINE",
"118 34 LINE",
"57 20 LINE SMOOTH",
"46 18 OFFCURVE",
"40 12 OFFCURVE",
"39 0 CURVE"
);
}
);
width = 502;
},
{
anchors = (
{
name = bottom;
position = "{231, 0}";
},
{
name = top;
position = "{333, 641}";
}
);
layerId = "7B53E429-1BF0-49C5-9F57-63EEBF39C6CC";
paths = (
{
closed = 1;
nodes = (
"294 0 LINE",
"314 29 OFFCURVE",
"321 50 OFFCURVE",
"325 76 CURVE",
"225 100 LINE",
"248 75 LINE",
"280 281 LINE",
"269 271 LINE",
"390 271 LINE",
"379 280 LINE",
"388 202 LINE",
"409 202 OFFCURVE",
"437 207 OFFCURVE",
"462 224 CURVE",
"490 404 LINE",
"471 421 OFFCURVE",
"445 426 OFFCURVE",
"423 426 CURVE",
"391 351 LINE",
"405 361 LINE",
"284 361 LINE",
"291 351 LINE",
"322 542 LINE",
"309 529 LINE",
"482 547 LINE",
"471 556 LINE",
"485 478 LINE SMOOTH",
"487 466 OFFCURVE",
"501 458 OFFCURVE",
"547 458 CURVE",
"576 641 LINE",
"121 641 LINE",
"100 614 OFFCURVE",
"92 591 OFFCURVE",
"88 565 CURVE",
"169 541 LINE",
"152 566 LINE",
"74 70 LINE",
"97 96 LINE",
"24 69 LINE SMOOTH",
"14 65 OFFCURVE",
"5 39 OFFCURVE",
"-1 0 CURVE"
);
}
);
width = 534;
}
);
leftKerningGroup = H;
leftMetricsKey = H;
rightKerningGroup = F;
rightMetricsKey = "=H*.7";
unicode = 0046;
},
{
color = 4;
glyphname = G;
layers = (
{
anchors = (
{
name = bottom;
position = "{304, 0}";
},
{
name = top;
position = "{406, 641}";
}
);
background = {
paths = (
{
closed = 1;
nodes = (
"379 -12 OFFCURVE",
"456 10 OFFCURVE",
"512 47 CURVE",
"544 246 LINE",
"532 231 LINE",
"585 258 LINE SMOOTH",
"595 263 OFFCURVE",
"603 278 OFFCURVE",
"606 297 CURVE",
"394 297 LINE",
"378 286 OFFCURVE",
"373 277 OFFCURVE",
"369 251 CURVE",
"466 228 LINE",
"459 240 LINE",
"431 65 LINE",
"445 95 LINE",
"413 59 OFFCURVE",
"361 37 OFFCURVE",
"309 37 CURVE SMOOTH",
"189 37 OFFCURVE",
"125 158 OFFCURVE",
"153 333 CURVE SMOOTH",
"180 501 OFFCURVE",
"274 606 OFFCURVE",
"399 606 CURVE SMOOTH",
"453 606 OFFCURVE",
"490 588 OFFCURVE",
"520 548 CURVE",
"512 568 LINE",
"513 474 LINE SMOOTH",
"512 464 OFFCURVE",
"529 456 OFFCURVE",
"553 453 CURVE",
"592 605 LINE",
"550 637 OFFCURVE",
"491 655 OFFCURVE",
"427 655 CURVE SMOOTH",
"249 655 OFFCURVE",
"90 502 OFFCURVE",
"58 297 CURVE SMOOTH",
"28 110 OFFCURVE",
"125 -12 OFFCURVE",
"305 -12 CURVE SMOOTH"
);
}
);
};
layerId = "A9E90CC4-8E6C-407E-8E88-16513AA8D05B";
paths = (
{
closed = 1;
nodes = (
"150 461 OFFCURVE",
"261 602 OFFCURVE",
"415 602 CURVE SMOOTH",
"471 602 OFFCURVE",
"527 583 OFFCURVE",
"552 556 CURVE",
"541 581 LINE",
"533 483 LINE SMOOTH",
"533 473 OFFCURVE",
"547 465 OFFCURVE",
"566 465 CURVE",
"606 606 LINE",
"564 638 OFFCURVE",
"507 655 OFFCURVE",
"444 655 CURVE SMOOTH",
"236 655 OFFCURVE",
"60 466 OFFCURVE",
"60 242 CURVE SMOOTH",
"60 83 OFFCURVE",
"149 -12 OFFCURVE",
"296 -12 CURVE SMOOTH",
"370 -12 OFFCURVE",
"448 13 OFFCURVE",
"517 58 CURVE",
"549 261 LINE",
"528 238 LINE",
"579 256 LINE SMOOTH",
"590 260 OFFCURVE",
"596 270 OFFCURVE",
"599 293 CURVE",
"419 293 LINE SMOOTH",
"404 283 OFFCURVE",
"399 275 OFFCURVE",
"396 255 CURVE",
"483 236 LINE",
"473 260 LINE",
"441 60 LINE",
"460 94 LINE",
"422 57 OFFCURVE",
"376 39 OFFCURVE",
"322 39 CURVE SMOOTH",
"212 39 OFFCURVE",
"150 120 OFFCURVE",
"150 265 CURVE SMOOTH"
);
}
);
width = 636;
},
{
anchors = (
{
name = bottom;
position = "{299, 0}";
},
{
name = top;
position = "{401, 641}";
}
);
layerId = "E1BF09ED-4302-4AD3-9939-8FDA35DE0FE8";
paths = (
{
closed = 1;
nodes = (
"114 475 OFFCURVE",
"238 626 OFFCURVE",
"410 626 CURVE SMOOTH",
"469 626 OFFCURVE",
"529 608 OFFCURVE",
"552 584 CURVE",
"547 599 LINE",
"537 503 LINE SMOOTH",
"536 495 OFFCURVE",
"545 487 OFFCURVE",
"554 487 CURVE",
"590 607 LINE",
"546 639 OFFCURVE",
"494 655 OFFCURVE",
"435 655 CURVE SMOOTH",
"238 655 OFFCURVE",
"74 467 OFFCURVE",
"74 242 CURVE SMOOTH",
"74 83 OFFCURVE",
"157 -12 OFFCURVE",
"294 -12 CURVE SMOOTH",
"362 -12 OFFCURVE",
"433 12 OFFCURVE",
"500 58 CURVE",
"531 256 LINE",
"518 245 LINE",
"560 259 LINE SMOOTH",
"572 263 OFFCURVE",
"576 267 OFFCURVE",
"578 279 CURVE",
"445 279 LINE SMOOTH",
"432 279 OFFCURVE",
"428 275 OFFCURVE",
"426 261 CURVE",
"509 245 LINE",
"501 257 LINE",
"470 64 LINE",
"474 78 LINE",
"427 35 OFFCURVE",
"374 14 OFFCURVE",
"313 14 CURVE SMOOTH",
"187 14 OFFCURVE",
"114 106 OFFCURVE",
"114 265 CURVE SMOOTH"
);
}
);
width = 627;
},
{
anchors = (
{
name = bottom;
position = "{310, 0}";
},
{
name = top;
position = "{412, 641}";
}
);
background = {
paths = (
{
closed = 1;
nodes = (
"383 -12 OFFCURVE",
"476 14 OFFCURVE",
"548 57 CURVE",
"582 271 LINE",
"544 223 LINE",
"612 250 LINE SMOOTH",
"622 254 OFFCURVE",
"632 279 OFFCURVE",
"638 319 CURVE",
"364 319 LINE",
"345 291 OFFCURVE",
"338 272 OFFCURVE",
"333 243 CURVE",
"429 219 LINE",
"416 265 LINE",
"382 53 LINE",
"431 125 LINE",
"409 100 OFFCURVE",
"377 87 OFFCURVE",
"338 87 CURVE SMOOTH",
"255 87 OFFCURVE",
"212 139 OFFCURVE",
"212 242 CURVE SMOOTH",
"212 389 OFFCURVE",
"270 556 OFFCURVE",
"401 556 CURVE SMOOTH",
"455 556 OFFCURVE",
"510 536 OFFCURVE",
"525 511 CURVE",
"517 531 LINE",
"513 448 LINE SMOOTH",
"513 433 OFFCURVE",
"539 423 OFFCURVE",
"579 423 CURVE",
"627 605 LINE",
"584 635 OFFCURVE",
"506 655 OFFCURVE",
"430 655 CURVE SMOOTH",
"208 655 OFFCURVE",
"31 456 OFFCURVE",
"31 234 CURVE SMOOTH",
"31 82 OFFCURVE",
"130 -12 OFFCURVE",
"297 -12 CURVE SMOOTH"
);
},
{
closed = 0;
nodes = (
"918 264 LINE SMOOTH",
"918 434 OFFCURVE",
"1002 556 OFFCURVE",
"1119 556 CURVE SMOOTH",
"1171 556 OFFCURVE",
"1220 535 OFFCURVE",
"1249 500 CURVE",
"1226 545 LINE",
"1223 444 LINE SMOOTH",
"1223 431 OFFCURVE",
"1247 423 OFFCURVE",
"1288 423 CURVE",
"1335 605 LINE",
"1295 637 OFFCURVE",
"1229 655 OFFCURVE",
"1157 655 CURVE SMOOTH",
"927 655 OFFCURVE",
"731 464 OFFCURVE",
"731 240 CURVE SMOOTH"
);
}
);
};
layerId = "7B53E429-1BF0-49C5-9F57-63EEBF39C6CC";
paths = (
{
closed = 1;
nodes = (
"218 435 OFFCURVE",
"302 556 OFFCURVE",
"421 556 CURVE SMOOTH",
"472 556 OFFCURVE",
"520 535 OFFCURVE",
"549 500 CURVE",
"526 545 LINE",
"523 444 LINE SMOOTH",
"523 431 OFFCURVE",
"547 423 OFFCURVE",
"588 423 CURVE",
"635 605 LINE",
"596 637 OFFCURVE",
"530 655 OFFCURVE",
"458 655 CURVE SMOOTH",
"228 655 OFFCURVE",
"31 464 OFFCURVE",
"31 241 CURVE SMOOTH",
"31 83 OFFCURVE",
"131 -12 OFFCURVE",
"297 -12 CURVE SMOOTH",
"382 -12 OFFCURVE",
"475 14 OFFCURVE",
"548 57 CURVE",
"582 271 LINE",
"544 223 LINE",
"612 250 LINE SMOOTH",
"623 254 OFFCURVE",
"631 277 OFFCURVE",
"638 319 CURVE",
"364 319 LINE",
"346 292 OFFCURVE",
"338 274 OFFCURVE",
"333 243 CURVE",
"429 219 LINE",
"416 265 LINE",
"382 53 LINE",
"431 125 LINE",
"409 100 OFFCURVE",
"377 87 OFFCURVE",
"338 87 CURVE SMOOTH",
"259 87 OFFCURVE",
"218 147 OFFCURVE",
"218 264 CURVE SMOOTH"
);
}
);
width = 650;
}
);
leftKerningGroup = O;
leftMetricsKey = O;
rightKerningGroup = G;
rightMetricsKey = "=H*.8";
unicode = 0047;
},
{
color = 4;
glyphname = H;
layers = (
{
anchors = (
{
name = bottom;
position = "{316, 0}";
},
{
name = center;
position = "{391, 474}";
},
{
name = top;
position = "{417, 641}";
},
{
name = topleft;
position = "{144, 641}";
}
);
background = {
paths = (
{
closed = 1;
nodes = (
"222 0 LINE",
"237 11 OFFCURVE",
"242 20 OFFCURVE",
"247 46 CURVE",
"155 70 LINE",
"164 55 LINE",
"205 311 LINE",
"192 299 LINE",
"517 299 LINE",
"508 311 LINE",
"467 50 LINE",
"479 66 LINE",
"406 39 LINE SMOOTH",
"396 35 OFFCURVE",
"389 21 OFFCURVE",
"385 0 CURVE",
"605 0 LINE",
"620 11 OFFCURVE",
"626 20 OFFCURVE",
"630 46 CURVE",
"539 70 LINE",
"547 55 LINE",
"632 591 LINE",
"620 575 LINE",
"703 602 LINE SMOOTH",
"713 605 OFFCURVE",
"721 620 OFFCURVE",
"724 641 CURVE",
"504 641 LINE",
"489 630 OFFCURVE",
"484 621 OFFCURVE",
"479 595 CURVE",
"560 571 LINE",
"552 586 LINE",
"512 339 LINE",
"525 351 LINE",
"200 351 LINE",
"209 339 LINE",
"249 591 LINE",
"236 575 LINE",
"320 602 LINE SMOOTH",
"329 605 OFFCURVE",
"337 620 OFFCURVE",
"341 641 CURVE",
"121 641 LINE",
"106 630 OFFCURVE",
"100 621 OFFCURVE",
"96 595 CURVE",
"177 571 LINE",
"168 586 LINE",
"83 50 LINE",
"96 66 LINE",
"23 39 LINE SMOOTH",
"13 35 OFFCURVE",
"5 21 OFFCURVE",
"2 0 CURVE"
);
}
);
};
layerId = "A9E90CC4-8E6C-407E-8E88-16513AA8D05B";
paths = (
{
closed = 1;
nodes = (
"215 0 LINE SMOOTH",
"230 10 OFFCURVE",
"235 20 OFFCURVE",
"238 38 CURVE",
"159 56 LINE",
"173 40 LINE",
"216 312 LINE",
"207 303 LINE",
"521 303 LINE",
"514 312 LINE",
"471 39 LINE",
"488 55 LINE",
"423 37 LINE SMOOTH",
"412 34 OFFCURVE",
"406 21 OFFCURVE",
"402 0 CURVE",
"594 0 LINE SMOOTH",
"610 10 OFFCURVE",
"615 20 OFFCURVE",
"618 38 CURVE",
"539 56 LINE",
"550 40 LINE",
"639 603 LINE",
"624 586 LINE",
"693 604 LINE SMOOTH",
"703 607 OFFCURVE",
"710 620 OFFCURVE",
"714 641 CURVE",
"520 641 LINE SMOOTH",
"505 632 OFFCURVE",
"501 621 OFFCURVE",
"498 603 CURVE",
"573 585 LINE",
"560 600 LINE",
"519 338 LINE",
"528 348 LINE",
"214 348 LINE",
"220 338 LINE",
"262 603 LINE",
"243 586 LINE",
"313 604 LINE SMOOTH",
"323 607 OFFCURVE",
"330 620 OFFCURVE",
"333 641 CURVE",
"144 641 LINE SMOOTH",
"128 632 OFFCURVE",
"123 621 OFFCURVE",
"120 603 CURVE",
"196 585 LINE",
"183 600 LINE",
"95 39 LINE",
"111 55 LINE",
"46 37 LINE SMOOTH",
"35 33 OFFCURVE",
"28 21 OFFCURVE",
"25 0 CURVE"
);
}
);
width = 708;
},
{
anchors = (
{
name = bottom;
position = "{312, 0}";
},
{
name = center;
position = "{387, 475}";
},
{
name = top;
position = "{413, 641}";
},
{
name = topleft;
position = "{155, 641}";
}
);
layerId = "E1BF09ED-4302-4AD3-9939-8FDA35DE0FE8";
paths = (
{
closed = 1;
nodes = (
"181 0 LINE SMOOTH",
"194 0 OFFCURVE",
"197 4 OFFCURVE",
"200 18 CURVE",
"127 34 LINE",
"135 22 LINE",
"182 316 LINE",
"176 314 LINE",
"549 314 LINE",
"543 316 LINE",
"497 23 LINE",
"511 34 LINE",
"449 20 LINE SMOOTH",
"438 18 OFFCURVE",
"433 12 OFFCURVE",
"431 0 CURVE",
"573 0 LINE SMOOTH",
"586 0 OFFCURVE",
"590 4 OFFCURVE",
"592 18 CURVE",
"519 34 LINE",
"527 22 LINE",
"622 619 LINE",
"611 607 LINE",
"673 621 LINE SMOOTH",
"683 623 OFFCURVE",
"689 629 OFFCURVE",
"691 641 CURVE",
"548 641 LINE SMOOTH",
"535 641 OFFCURVE",
"532 637 OFFCURVE",
"530 623 CURVE",
"602 607 LINE",
"591 618 LINE",
"546 334 LINE",
"552 336 LINE",
"179 336 LINE",
"184 334 LINE",
"230 619 LINE",
"218 607 LINE",
"280 621 LINE SMOOTH",
"291 623 OFFCURVE",
"296 629 OFFCURVE",
"298 641 CURVE",
"156 641 LINE SMOOTH",
"143 641 OFFCURVE",
"139 637 OFFCURVE",
"137 623 CURVE",
"210 607 LINE",
"199 618 LINE",
"105 23 LINE",
"118 34 LINE",
"57 20 LINE SMOOTH",
"46 17 OFFCURVE",
"40 12 OFFCURVE",
"39 0 CURVE"
);
}
);
width = 698;
},
{
anchors = (
{
name = bottom;
position = "{323, 0}";
},
{
name = center;
position = "{398, 472}";
},
{
name = top;
position = "{425, 641}";
},
{
name = topleft;
position = "{121, 641}";
}
);
layerId = "7B53E429-1BF0-49C5-9F57-63EEBF39C6CC";
paths = (
{
closed = 1;
nodes = (
"282 0 LINE",
"302 29 OFFCURVE",
"309 50 OFFCURVE",
"313 76 CURVE",
"222 100 LINE",
"248 75 LINE",
"284 304 LINE",
"269 281 LINE",
"465 281 LINE",
"458 304 LINE",
"421 70 LINE",
"444 96 LINE",
"371 69 LINE SMOOTH",
"361 65 OFFCURVE",
"352 39 OFFCURVE",
"346 0 CURVE",
"636 0 LINE",
"657 29 OFFCURVE",
"665 50 OFFCURVE",
"669 76 CURVE",
"578 100 LINE",
"595 75 LINE",
"673 571 LINE",
"649 545 LINE",
"733 572 LINE SMOOTH",
"743 575 OFFCURVE",
"752 602 OFFCURVE",
"759 641 CURVE",
"466 641 LINE",
"447 614 OFFCURVE",
"439 591 OFFCURVE",
"435 565 CURVE",
"516 541 LINE",
"499 566 LINE",
"465 347 LINE",
"480 371 LINE",
"283 371 LINE",
"291 347 LINE",
"326 571 LINE",
"293 545 LINE",
"377 572 LINE SMOOTH",
"386 575 OFFCURVE",
"396 602 OFFCURVE",
"402 641 CURVE",
"121 641 LINE",
"100 614 OFFCURVE",
"92 591 OFFCURVE",
"88 565 CURVE",
"169 541 LINE",
"152 566 LINE",
"74 70 LINE",
"97 96 LINE",
"24 69 LINE SMOOTH",
"14 65 OFFCURVE",
"5 39 OFFCURVE",
"-1 0 CURVE"
);
}
);
width = 727;
}
);
leftKerningGroup = H;
rightKerningGroup = H;
unicode = 0048;
},
{
color = 4;
glyphname = I;
layers = (
{
anchors = (
{
name = bottom;
position = "{126, 0}";
},
{
name = ogonek;
position = "{215, 0}";
},
{
name = top;
position = "{227, 641}";
},
{
name = topleft;
position = "{144, 641}";
}
);
background = {
paths = (
{
closed = 1;
nodes = (
"222 0 LINE",
"237 11 OFFCURVE",
"242 19 OFFCURVE",
"247 46 CURVE",
"157 70 LINE",
"165 57 LINE",
"249 589 LINE",
"237 576 LINE",
"320 602 LINE SMOOTH",
"331 606 OFFCURVE",
"338 625 OFFCURVE",
"341 641 CURVE",
"121 641 LINE",
"106 630 OFFCURVE",
"101 622 OFFCURVE",
"96 595 CURVE",
"175 572 LINE",
"168 584 LINE",
"84 52 LINE",
"95 65 LINE",
"23 39 LINE SMOOTH",
"11 35 OFFCURVE",
"5 16 OFFCURVE",
"2 0 CURVE"
);
}
);
};
layerId = "A9E90CC4-8E6C-407E-8E88-16513AA8D05B";
paths = (
{
closed = 1;
nodes = (
"215 0 LINE",
"230 10 OFFCURVE",
"235 20 OFFCURVE",
"238 38 CURVE",
"159 56 LINE",
"173 40 LINE",
"262 603 LINE",
"243 586 LINE",
"313 604 LINE SMOOTH",
"323 607 OFFCURVE",
"330 620 OFFCURVE",
"333 641 CURVE",
"144 641 LINE",
"128 632 OFFCURVE",
"123 621 OFFCURVE",
"120 603 CURVE",
"196 585 LINE",
"183 600 LINE",
"95 39 LINE",
"111 55 LINE",
"46 37 LINE SMOOTH",
"35 34 OFFCURVE",
"28 21 OFFCURVE",
"25 0 CURVE"
);
}
);
width = 327;
},
{
anchors = (
{
name = bottom;
position = "{116, 0}";
},
{
name = ogonek;
position = "{181, 0}";
},
{
name = top;
position = "{217, 641}";
},
{
name = topleft;
position = "{156, 641}";
}
);
layerId = "E1BF09ED-4302-4AD3-9939-8FDA35DE0FE8";
paths = (
{
closed = 1;
nodes = (
"181 0 LINE",
"194 0 OFFCURVE",
"197 4 OFFCURVE",
"200 18 CURVE",
"127 34 LINE",
"135 22 LINE",
"230 619 LINE",
"218 607 LINE",
"280 621 LINE SMOOTH",
"291 623 OFFCURVE",
"296 629 OFFCURVE",
"298 641 CURVE",
"156 641 LINE",
"143 641 OFFCURVE",
"139 637 OFFCURVE",
"137 623 CURVE",
"210 607 LINE",
"199 618 LINE",
"105 23 LINE",
"118 34 LINE",
"57 20 LINE SMOOTH",
"46 18 OFFCURVE",
"40 12 OFFCURVE",
"39 0 CURVE"
);
}
);
width = 305;
},
{
anchors = (
{
name = bottom;
position = "{146, 0}";
},
{
name = ogonek;
position = "{282, 0}";
},
{
name = top;
position = "{247, 641}";
},
{
name = topleft;
position = "{121, 641}";
}
);
layerId = "7B53E429-1BF0-49C5-9F57-63EEBF39C6CC";
paths = (
{
closed = 1;
nodes = (
"282 0 LINE",
"302 29 OFFCURVE",
"309 50 OFFCURVE",
"313 76 CURVE",
"222 100 LINE",
"248 75 LINE",
"326 571 LINE",
"293 545 LINE",
"377 572 LINE SMOOTH",
"386 575 OFFCURVE",
"396 602 OFFCURVE",
"402 641 CURVE",
"121 641 LINE",
"100 614 OFFCURVE",
"92 591 OFFCURVE",
"88 565 CURVE",
"169 541 LINE",
"152 566 LINE",
"74 70 LINE",
"97 96 LINE",
"24 69 LINE SMOOTH",
"14 65 OFFCURVE",
"5 39 OFFCURVE",
"-1 0 CURVE"
);
}
);
width = 370;
}
);
leftKerningGroup = H;
leftMetricsKey = H;
rightKerningGroup = H;
rightMetricsKey = H;
unicode = 0049;
},
{
color = 1;
glyphname = Iacute;
layers = (
{
background = {
paths = (
{
closed = 1;
nodes = (
"284 602 LINE SMOOTH",
"296 606 OFFCURVE",
"300 625 OFFCURVE",
"300 641 CURVE",
"64 641 LINE",
"49 630 OFFCURVE",
"45 622 OFFCURVE",
"45 595 CURVE",
"124 574 LINE",
"124 62 LINE",
"61 39 LINE SMOOTH",
"49 35 OFFCURVE",
"45 16 OFFCURVE",
"45 0 CURVE",
"281 0 LINE",
"296 11 OFFCURVE",
"300 19 OFFCURVE",
"300 46 CURVE",
"210 67 LINE",
"210 579 LINE"
);
},
{
closed = 1;
nodes = (
"314 833 OFFCURVE",
"303 858 OFFCURVE",
"280 858 CURVE SMOOTH",
"249 858 OFFCURVE",
"196 825 OFFCURVE",
"60 743 CURVE",
"59 741 OFFCURVE",
"59 738 OFFCURVE",
"59 736 CURVE SMOOTH",
"59 728 OFFCURVE",
"63 721 OFFCURVE",
"73 715 CURVE",
"224 760 OFFCURVE",
"314 781 OFFCURVE",
"314 816 CURVE SMOOTH"
);
}
);
};
components = (
{
name = I;
},
{
name = acutecomb.case;
transform = "{1, 0, 0, 1, 85, 198}";
}
);
layerId = "A9E90CC4-8E6C-407E-8E88-16513AA8D05B";
width = 327;
},
{
components = (
{
name = I;
},
{
name = acutecomb.case;
transform = "{1, 0, 0, 1, 91, 198}";
}
);
layerId = "E1BF09ED-4302-4AD3-9939-8FDA35DE0FE8";
width = 305;
},
{
components = (
{
name = I;
},
{
name = acutecomb.case;
transform = "{1, 0, 0, 1, 71, 198}";
}
);
layerId = "7B53E429-1BF0-49C5-9F57-63EEBF39C6CC";
width = 370;
}
);
leftKerningGroup = H;
rightKerningGroup = H;
unicode = 00CD;
},
{
color = 1;
glyphname = Icircumflex;
layers = (
{
background = {
paths = (
{
closed = 1;
nodes = (
"284 602 LINE SMOOTH",
"296 606 OFFCURVE",
"300 625 OFFCURVE",
"300 641 CURVE",
"64 641 LINE",
"49 630 OFFCURVE",
"45 622 OFFCURVE",
"45 595 CURVE",
"124 574 LINE",
"124 62 LINE",
"61 39 LINE SMOOTH",
"49 35 OFFCURVE",
"45 16 OFFCURVE",
"45 0 CURVE",
"281 0 LINE",
"296 11 OFFCURVE",
"300 19 OFFCURVE",
"300 46 CURVE",
"210 67 LINE",
"210 579 LINE"
);
},
{
closed = 1;
nodes = (
"192 854 OFFCURVE",
"177 858 OFFCURVE",
"168 858 CURVE SMOOTH",
"159 858 OFFCURVE",
"144 853 OFFCURVE",
"124 839 CURVE SMOOTH",
"-13 743 LINE",
"-13 743 OFFCURVE",
"-14 740 OFFCURVE",
"-14 737 CURVE SMOOTH",
"-14 728 OFFCURVE",
"-9 720 OFFCURVE",
"0 715 CURVE",
"168 787 LINE",
"336 715 LINE",
"345 720 OFFCURVE",
"350 728 OFFCURVE",
"350 737 CURVE SMOOTH",
"350 740 OFFCURVE",
"349 743 OFFCURVE",
"349 743 CURVE",
"212 839 LINE SMOOTH"
);
}
);
};
components = (
{
name = I;
},
{
name = circumflexcomb.case;
transform = "{1, 0, 0, 1, 44, 198}";
}
);
layerId = "A9E90CC4-8E6C-407E-8E88-16513AA8D05B";
width = 327;
},
{
components = (
{
name = I;
},
{
name = circumflexcomb.case;
transform = "{1, 0, 0, 1, 54, 198}";
}
);
layerId = "E1BF09ED-4302-4AD3-9939-8FDA35DE0FE8";
width = 305;
},
{
components = (
{
name = I;
},
{
name = circumflexcomb.case;
transform = "{1, 0, 0, 1, 28, 198}";
}
);
layerId = "7B53E429-1BF0-49C5-9F57-63EEBF39C6CC";
width = 370;
}
);
leftKerningGroup = H;
rightKerningGroup = H;
unicode = 00CE;
},
{
color = 1;
glyphname = Idieresis;
layers = (
{
background = {
paths = (
{
closed = 1;
nodes = (
"24 755 OFFCURVE",
"39 736 OFFCURVE",
"70 736 CURVE SMOOTH",
"94 736 OFFCURVE",
"117 757 OFFCURVE",
"117 782 CURVE SMOOTH",
"117 809 OFFCURVE",
"101 828 OFFCURVE",
"70 828 CURVE SMOOTH",
"47 828 OFFCURVE",
"24 807 OFFCURVE",
"24 782 CURVE SMOOTH"
);
},
{
closed = 1;
nodes = (
"230 755 OFFCURVE",
"247 736 OFFCURVE",
"277 736 CURVE SMOOTH",
"301 736 OFFCURVE",
"324 757 OFFCURVE",
"324 782 CURVE SMOOTH",
"324 809 OFFCURVE",
"308 828 OFFCURVE",
"277 828 CURVE SMOOTH",
"254 828 OFFCURVE",
"231 807 OFFCURVE",
"231 782 CURVE"
);
},
{
closed = 1;
nodes = (
"284 602 LINE SMOOTH",
"296 606 OFFCURVE",
"300 625 OFFCURVE",
"300 641 CURVE",
"64 641 LINE",
"49 630 OFFCURVE",
"45 622 OFFCURVE",
"45 595 CURVE",
"124 574 LINE",
"124 62 LINE",
"61 39 LINE SMOOTH",
"49 35 OFFCURVE",
"45 16 OFFCURVE",
"45 0 CURVE",
"281 0 LINE",
"296 11 OFFCURVE",
"300 19 OFFCURVE",
"300 46 CURVE",
"210 67 LINE",
"210 579 LINE"
);
}
);
};
components = (
{
name = I;
},
{
name = dieresiscomb.case;
transform = "{1, 0, 0, 1, 43, 198}";
}
);
layerId = "A9E90CC4-8E6C-407E-8E88-16513AA8D05B";
width = 327;
},
{
components = (
{
name = I;
},
{
name = dieresiscomb.case;
transform = "{1, 0, 0, 1, 81, 198}";
}
);
layerId = "E1BF09ED-4302-4AD3-9939-8FDA35DE0FE8";
width = 305;
},
{
components = (
{
name = I;
},
{
name = dieresiscomb.case;
transform = "{1, 0, 0, 1, -2, 198}";
}
);
layerId = "7B53E429-1BF0-49C5-9F57-63EEBF39C6CC";
width = 370;
}
);
leftKerningGroup = H;
rightKerningGroup = H;
unicode = 00CF;
},
{
color = 1;
glyphname = Igrave;
layers = (
{
background = {
paths = (
{
closed = 1;
nodes = (
"284 602 LINE SMOOTH",
"296 606 OFFCURVE",
"300 625 OFFCURVE",
"300 641 CURVE",
"64 641 LINE",
"49 630 OFFCURVE",
"45 622 OFFCURVE",
"45 595 CURVE",
"124 574 LINE",
"124 62 LINE",
"61 39 LINE SMOOTH",
"49 35 OFFCURVE",
"45 16 OFFCURVE",
"45 0 CURVE",
"281 0 LINE",
"296 11 OFFCURVE",
"300 19 OFFCURVE",
"300 46 CURVE",
"210 67 LINE",
"210 579 LINE"
);
},
{
closed = 1;
nodes = (
"30 781 OFFCURVE",
"120 760 OFFCURVE",
"271 715 CURVE",
"281 721 OFFCURVE",
"285 728 OFFCURVE",
"285 736 CURVE SMOOTH",
"285 738 OFFCURVE",
"285 741 OFFCURVE",
"284 743 CURVE",
"148 825 OFFCURVE",
"95 858 OFFCURVE",
"64 858 CURVE SMOOTH",
"41 858 OFFCURVE",
"30 833 OFFCURVE",
"30 816 CURVE SMOOTH"
);
}
);
};
components = (
{
name = I;
},
{
name = gravecomb.case;
transform = "{1, 0, 0, 1, 49, 198}";
}
);
layerId = "A9E90CC4-8E6C-407E-8E88-16513AA8D05B";
width = 327;
},
{
components = (
{
name = I;
},
{
name = gravecomb.case;
transform = "{1, 0, 0, 1, 119, 198}";
}
);
layerId = "E1BF09ED-4302-4AD3-9939-8FDA35DE0FE8";
width = 305;
},
{
components = (
{
name = I;
},
{
name = gravecomb.case;
transform = "{1, 0, 0, 1, 100, 198}";
}
);
layerId = "7B53E429-1BF0-49C5-9F57-63EEBF39C6CC";
width = 370;
}
);
leftKerningGroup = H;
rightKerningGroup = H;
unicode = 00CC;
},
{
color = 4;
glyphname = J;
layers = (
{
anchors = (
{
name = bottom;
position = "{97, 0}";
},
{
name = top;
position = "{198, 641}";
}
);
background = {
paths = (
{
closed = 1;
nodes = (
"271 602 LINE SMOOTH",
"283 606 OFFCURVE",
"287 622 OFFCURVE",
"287 641 CURVE",
"51 641 LINE",
"36 630 OFFCURVE",
"32 622 OFFCURVE",
"32 595 CURVE",
"111 574 LINE",
"111 67 LINE SMOOTH",
"111 -104 OFFCURVE",
"67 -105 OFFCURVE",
"-44 -105 CURVE",
"-54 -117 OFFCURVE",
"-56 -131 OFFCURVE",
"-56 -138 CURVE SMOOTH",
"-56 -165 OFFCURVE",
"-30 -183 OFFCURVE",
"-1 -183 CURVE SMOOTH",
"89 -183 OFFCURVE",
"197 -13 OFFCURVE",
"197 169 CURVE SMOOTH",
"197 574 LINE"
);
}
);
};
layerId = "A9E90CC4-8E6C-407E-8E88-16513AA8D05B";
paths = (
{
closed = 1;
nodes = (
"41 -187 OFFCURVE",
"141 -26 OFFCURVE",
"177 201 CURVE SMOOTH",
"240 603 LINE",
"221 586 LINE",
"290 604 LINE SMOOTH",
"301 607 OFFCURVE",
"308 620 OFFCURVE",
"311 641 CURVE",
"122 641 LINE SMOOTH",
"105 641 OFFCURVE",
"102 622 OFFCURVE",
"98 603 CURVE",
"174 585 LINE",
"161 603 LINE",
"78 76 LINE SMOOTH",
"56 -63 OFFCURVE",
"7 -112 OFFCURVE",
"-106 -112 CURVE",
"-112 -122 OFFCURVE",
"-117 -138 OFFCURVE",
"-117 -148 CURVE SMOOTH",
"-117 -174 OFFCURVE",
"-104 -187 OFFCURVE",
"-74 -187 CURVE SMOOTH"
);
}
);
width = 281;
},
{
anchors = (
{
name = bottom;
position = "{73, 0}";
},
{
name = top;
position = "{174, 641}";
}
);
background = {
paths = (
{
closed = 1;
nodes = (
"92 -184 OFFCURVE",
"149 -33 OFFCURVE",
"149 169 CURVE SMOOTH",
"149 618 LINE",
"139 607 LINE",
"203 621 LINE SMOOTH",
"214 623 OFFCURVE",
"219 629 OFFCURVE",
"219 641 CURVE",
"66 641 LINE SMOOTH",
"52 641 OFFCURVE",
"49 637 OFFCURVE",
"49 623 CURVE",
"130 607 LINE",
"116 618 LINE",
"116 67 LINE SMOOTH",
"116 -64 OFFCURVE",
"79 -149 OFFCURVE",
"-37 -149 CURVE SMOOTH",
"-53 -149 LINE",
"-55 -152 OFFCURVE",
"-56 -155 OFFCURVE",
"-56 -159 CURVE SMOOTH",
"-56 -174 OFFCURVE",
"-36 -184 OFFCURVE",
"-13 -184 CURVE SMOOTH"
);
}
);
};
layerId = "E1BF09ED-4302-4AD3-9939-8FDA35DE0FE8";
paths = (
{
closed = 1;
nodes = (
"25 -184 OFFCURVE",
"98 -50 OFFCURVE",
"132 169 CURVE SMOOTH",
"202 618 LINE",
"192 607 LINE",
"253 621 LINE SMOOTH",
"265 624 OFFCURVE",
"270 629 OFFCURVE",
"271 641 CURVE",
"129 641 LINE SMOOTH",
"116 641 OFFCURVE",
"113 637 OFFCURVE",
"110 623 CURVE",
"183 607 LINE",
"172 618 LINE",
"85 67 LINE SMOOTH",
"60 -90 OFFCURVE",
"5 -149 OFFCURVE",
"-108 -149 CURVE",
"-110 -153 OFFCURVE",
"-111 -158 OFFCURVE",
"-111 -162 CURVE SMOOTH",
"-111 -177 OFFCURVE",
"-102 -184 OFFCURVE",
"-81 -184 CURVE SMOOTH"
);
}
);
width = 249;
},
{
anchors = (
{
name = bottom;
position = "{144, 0}";
},
{
name = top;
position = "{246, 641}";
}
);
layerId = "7B53E429-1BF0-49C5-9F57-63EEBF39C6CC";
paths = (
{
closed = 1;
nodes = (
"73 -193 OFFCURVE",
"225 21 OFFCURVE",
"264 265 CURVE SMOOTH",
"313 574 LINE",
"279 545 LINE",
"363 572 LINE SMOOTH",
"372 575 OFFCURVE",
"382 602 OFFCURVE",
"388 641 CURVE",
"107 641 LINE",
"89 616 OFFCURVE",
"79 594 OFFCURVE",
"74 565 CURVE",
"155 541 LINE",
"140 574 LINE",
"64 94 LINE SMOOTH",
"47 -11 OFFCURVE",
"12 -40 OFFCURVE",
"-102 -40 CURVE",
"-115 -62 OFFCURVE",
"-128 -99 OFFCURVE",
"-128 -121 CURVE SMOOTH",
"-128 -167 OFFCURVE",
"-107 -193 OFFCURVE",
"-61 -193 CURVE SMOOTH"
);
}
);
width = 342;
}
);
leftKerningGroup = J;
rightKerningGroup = J;
rightMetricsKey = U;
unicode = 004A;
},
{
color = 4;
glyphname = K;
layers = (
{
anchors = (
{
name = bottom;
position = "{267, 0}";
},
{
name = top;
position = "{368, 641}";
}
);
guideLines = (
{
angle = -89.0715;
position = "{179, 332}";
}
);
layerId = "A9E90CC4-8E6C-407E-8E88-16513AA8D05B";
paths = (
{
closed = 1;
nodes = (
"500 -11 OFFCURVE",
"521 1 OFFCURVE",
"536 18 CURVE",
"451 65 OFFCURVE",
"353 220 OFFCURVE",
"292 346 CURVE",
"275 313 LINE",
"564 613 LINE",
"521 584 LINE",
"600 603 LINE SMOOTH",
"614 606 OFFCURVE",
"622 618 OFFCURVE",
"625 641 CURVE",
"445 641 LINE SMOOTH",
"431 633 OFFCURVE",
"425 623 OFFCURVE",
"422 603 CURVE",
"506 585 LINE",
"503 608 LINE",
"226 320 LINE",
"327 107 OFFCURVE",
"400 -11 OFFCURVE",
"476 -11 CURVE SMOOTH"
);
},
{
closed = 1;
nodes = (
"215 0 LINE SMOOTH",
"230 10 OFFCURVE",
"235 20 OFFCURVE",
"238 38 CURVE",
"159 56 LINE",
"173 40 LINE",
"262 603 LINE",
"243 586 LINE",
"313 604 LINE SMOOTH",
"323 607 OFFCURVE",
"330 620 OFFCURVE",
"333 641 CURVE",
"144 641 LINE SMOOTH",
"128 632 OFFCURVE",
"123 621 OFFCURVE",
"120 603 CURVE",
"196 585 LINE",
"183 600 LINE",
"95 39 LINE",
"111 55 LINE",
"46 37 LINE SMOOTH",
"35 34 OFFCURVE",
"28 21 OFFCURVE",
"25 0 CURVE"
);
}
);
width = 574;
},
{
anchors = (
{
name = bottom;
position = "{262, 0}";
},
{
name = top;
position = "{363, 641}";
}
);
guideLines = (
{
angle = -89.0715;
position = "{435, 10}";
}
);
layerId = "E1BF09ED-4302-4AD3-9939-8FDA35DE0FE8";
paths = (
{
closed = 1;
nodes = (
"481 -10 OFFCURVE",
"491 0 OFFCURVE",
"492 10 CURVE",
"394 47 OFFCURVE",
"284 213 OFFCURVE",
"218 332 CURVE",
"215 317 LINE",
"522 625 LINE",
"496 607 LINE",
"564 621 LINE SMOOTH",
"574 623 OFFCURVE",
"580 629 OFFCURVE",
"582 641 CURVE",
"430 641 LINE SMOOTH",
"417 641 OFFCURVE",
"414 637 OFFCURVE",
"412 623 CURVE",
"491 607 LINE",
"492 620 LINE",
"195 322 LINE",
"294 156 OFFCURVE",
"396 -10 OFFCURVE",
"466 -10 CURVE SMOOTH"
);
},
{
closed = 1;
nodes = (
"181 0 LINE SMOOTH",
"194 0 OFFCURVE",
"197 4 OFFCURVE",
"200 18 CURVE",
"127 34 LINE",
"135 22 LINE",
"230 619 LINE",
"218 607 LINE",
"280 621 LINE SMOOTH",
"291 623 OFFCURVE",
"296 629 OFFCURVE",
"298 641 CURVE",
"156 641 LINE SMOOTH",
"143 641 OFFCURVE",
"139 637 OFFCURVE",
"137 623 CURVE",
"210 607 LINE",
"199 618 LINE",
"105 23 LINE",
"118 34 LINE",
"57 20 LINE SMOOTH",
"46 18 OFFCURVE",
"40 12 OFFCURVE",
"39 0 CURVE"
);
}
);
width = 533;
},
{
anchors = (
{
name = bottom;
position = "{278, 0}";
},
{
name = top;
position = "{379, 641}";
}
);
guideLines = (
{
angle = 230.005;
position = "{659, 589}";
},
{
angle = -89.0715;
position = "{535, 33}";
}
);
layerId = "7B53E429-1BF0-49C5-9F57-63EEBF39C6CC";
paths = (
{
closed = 1;
nodes = (
"537 -12 OFFCURVE",
"579 3 OFFCURVE",
"623 33 CURVE",
"563 100 OFFCURVE",
"489 235 OFFCURVE",
"436 373 CURVE",
"394 305 LINE",
"647 589 LINE",
"571 540 LINE",
"671 568 LINE SMOOTH",
"691 574 OFFCURVE",
"703 596 OFFCURVE",
"710 641 CURVE",
"474 641 LINE",
"457 617 OFFCURVE",
"448 595 OFFCURVE",
"443 565 CURVE",
"534 541 LINE",
"525 584 LINE",
"287 317 LINE",
"393 10 OFFCURVE",
"407 -12 OFFCURVE",
"497 -12 CURVE SMOOTH"
);
},
{
closed = 1;
nodes = (
"282 0 LINE",
"302 29 OFFCURVE",
"309 50 OFFCURVE",
"313 76 CURVE",
"222 100 LINE",
"248 75 LINE",
"326 571 LINE",
"293 545 LINE",
"377 572 LINE SMOOTH",
"386 575 OFFCURVE",
"396 603 OFFCURVE",
"402 641 CURVE",
"121 641 LINE",
"100 614 OFFCURVE",
"92 591 OFFCURVE",
"88 565 CURVE",
"169 541 LINE",
"152 566 LINE",
"74 70 LINE",
"97 96 LINE",
"24 69 LINE SMOOTH",
"14 65 OFFCURVE",
"5 39 OFFCURVE",
"-1 0 CURVE"
);
}
);
width = 656;
}
);
leftKerningGroup = H;
leftMetricsKey = H;
rightKerningGroup = K;
rightMetricsKey = "=H*.1";
unicode = 004B;
},
{
color = 4;
glyphname = L;
layers = (
{
anchors = (
{
name = bottom;
position = "{257, 0}";
},
{
name = center;
position = "{178, 321}";
},
{
name = top;
position = "{229, 641}";
},
{
name = topright;
position = "{362, 443}";
}
);
background = {
paths = (
{
closed = 1;
nodes = (
"449 0 LINE",
"473 149 LINE",
"465 164 OFFCURVE",
"458 168 OFFCURVE",
"433 168 CURVE",
"391 36 LINE",
"404 45 LINE",
"156 68 LINE",
"165 57 LINE",
"249 589 LINE",
"237 576 LINE",
"320 602 LINE SMOOTH",
"331 606 OFFCURVE",
"338 625 OFFCURVE",
"341 641 CURVE",
"121 641 LINE",
"106 630 OFFCURVE",
"101 622 OFFCURVE",
"96 595 CURVE",
"175 571 LINE",
"168 584 LINE",
"84 52 LINE",
"95 66 LINE",
"23 39 LINE SMOOTH",
"11 35 OFFCURVE",
"5 16 OFFCURVE",
"2 0 CURVE"
);
}
);
};
layerId = "A9E90CC4-8E6C-407E-8E88-16513AA8D05B";
paths = (
{
closed = 1;
nodes = (
"455 0 LINE",
"476 133 LINE SMOOTH",
"469 144 OFFCURVE",
"457 149 OFFCURVE",
"440 149 CURVE",
"401 29 LINE",
"415 42 LINE",
"167 60 LINE",
"175 49 LINE",
"262 603 LINE",
"247 586 LINE",
"316 604 LINE SMOOTH",
"327 607 OFFCURVE",
"333 620 OFFCURVE",
"337 641 CURVE",
"144 641 LINE SMOOTH",
"128 632 OFFCURVE",
"123 621 OFFCURVE",
"120 603 CURVE",
"196 585 LINE",
"183 600 LINE",
"95 39 LINE",
"111 55 LINE",
"46 37 LINE SMOOTH",
"35 34 OFFCURVE",
"28 21 OFFCURVE",
"25 0 CURVE"
);
}
);
width = 542;
},
{
anchors = (
{
name = bottom;
position = "{254, 0}";
},
{
name = center;
position = "{168, 321}";
},
{
name = top;
position = "{219, 641}";
},
{
name = topright;
position = "{338, 443}";
}
);
layerId = "E1BF09ED-4302-4AD3-9939-8FDA35DE0FE8";
paths = (
{
closed = 1;
nodes = (
"435 0 LINE",
"452 108 LINE SMOOTH",
"453 115 OFFCURVE",
"446 121 OFFCURVE",
"433 121 CURVE",
"401 7 LINE",
"414 16 LINE",
"128 34 LINE",
"135 23 LINE",
"230 619 LINE",
"218 607 LINE",
"280 621 LINE SMOOTH",
"291 623 OFFCURVE",
"296 629 OFFCURVE",
"298 641 CURVE",
"156 641 LINE SMOOTH",
"143 641 OFFCURVE",
"139 637 OFFCURVE",
"137 623 CURVE",
"210 607 LINE",
"199 618 LINE",
"105 23 LINE",
"118 34 LINE",
"57 20 LINE SMOOTH",
"46 18 OFFCURVE",
"40 12 OFFCURVE",
"39 0 CURVE"
);
}
);
width = 521;
},
{
anchors = (
{
name = bottom;
position = "{262, 0}";
},
{
name = center;
position = "{199, 321}";
},
{
name = top;
position = "{250, 641}";
},
{
name = topright;
position = "{408, 443}";
}
);
layerId = "7B53E429-1BF0-49C5-9F57-63EEBF39C6CC";
paths = (
{
closed = 1;
nodes = (
"493 0 LINE",
"522 183 LINE",
"500 200 OFFCURVE",
"479 205 OFFCURVE",
"455 205 CURVE",
"402 72 LINE",
"417 94 LINE",
"244 112 LINE",
"252 101 LINE",
"326 571 LINE",
"303 545 LINE",
"387 572 LINE SMOOTH",
"397 575 OFFCURVE",
"406 602 OFFCURVE",
"413 641 CURVE",
"121 641 LINE",
"100 614 OFFCURVE",
"92 591 OFFCURVE",
"88 565 CURVE",
"169 541 LINE",
"152 566 LINE",
"74 70 LINE",
"97 96 LINE",
"24 69 LINE SMOOTH",
"14 65 OFFCURVE",
"5 39 OFFCURVE",
"-1 0 CURVE"
);
}
);
width = 582;
}
);
leftKerningGroup = H;
leftMetricsKey = H;
rightKerningGroup = L;
unicode = 004C;
},
{
color = 1;
glyphname = Lslash;
layers = (
{
background = {
paths = (
{
closed = 1;
nodes = (
"213 67 LINE",
"213 323 LINE",
"343 346 LINE",
"343 351 LINE SMOOTH",
"343 362 OFFCURVE",
"339 375 OFFCURVE",
"328 384 CURVE",
"213 363 LINE",
"213 579 LINE",
"287 602 LINE SMOOTH",
"299 606 OFFCURVE",
"303 625 OFFCURVE",
"303 641 CURVE",
"67 641 LINE",
"52 630 OFFCURVE",
"48 622 OFFCURVE",
"48 595 CURVE",
"127 574 LINE",
"127 348 LINE",
"48 334 LINE",
"48 331 LINE SMOOTH",
"48 320 OFFCURVE",
"52 305 OFFCURVE",
"63 296 CURVE",
"127 307 LINE",
"127 62 LINE",
"64 39 LINE SMOOTH",
"52 35 OFFCURVE",
"48 16 OFFCURVE",
"48 0 CURVE",
"529 0 LINE",
"529 149 LINE",
"518 164 OFFCURVE",
"510 168 OFFCURVE",
"483 168 CURVE",
"462 46 LINE"
);
}
);
};
components = (
{
name = L;
},
{
name = slashshortcomb;
transform = "{1, 0, 0, 1, 49, -13}";
}
);
layerId = "A9E90CC4-8E6C-407E-8E88-16513AA8D05B";
width = 542;
},
{
components = (
{
name = L;
},
{
name = slashshortcomb;
transform = "{1, 0, 0, 1, 68, -14}";
}
);
layerId = "E1BF09ED-4302-4AD3-9939-8FDA35DE0FE8";
width = 521;
},
{
components = (
{
name = L;
},
{
name = slashshortcomb;
transform = "{1, 0, 0, 1, 21, -22}";
}
);
layerId = "7B53E429-1BF0-49C5-9F57-63EEBF39C6CC";
width = 582;
}
);
leftKerningGroup = H;
rightKerningGroup = L;
unicode = 0141;
},
{
color = 4;
glyphname = M;
layers = (
{
anchors = (
{
name = bottom;
position = "{384, 0}";
},
{
name = top;
position = "{486, 641}";
}
);
background = {
paths = (
{
closed = 1;
nodes = (
"448 151 LINE",
"260 641 LINE",
"92 641 LINE",
"77 630 OFFCURVE",
"73 622 OFFCURVE",
"73 595 CURVE",
"152 574 LINE",
"105 63 LINE",
"43 40 LINE SMOOTH",
"30 35 OFFCURVE",
"27 17 OFFCURVE",
"27 0 CURVE",
"234 0 LINE",
"250 12 OFFCURVE",
"254 19 OFFCURVE",
"254 46 CURVE",
"164 67 LINE",
"207 544 LINE",
"415 4 LINE",
"420 0 OFFCURVE",
"424 -3 OFFCURVE",
"435 -3 CURVE SMOOTH",
"444 -3 OFFCURVE",
"454 6 OFFCURVE",
"460 23 CURVE SMOOTH",
"651 544 LINE",
"690 63 LINE",
"627 40 LINE SMOOTH",
"615 35 OFFCURVE",
"611 14 OFFCURVE",
"611 0 CURVE",
"846 0 LINE",
"861 12 OFFCURVE",
"866 19 OFFCURVE",
"866 46 CURVE",
"775 67 LINE",
"734 579 LINE",
"808 602 LINE SMOOTH",
"820 606 OFFCURVE",
"824 625 OFFCURVE",
"824 641 CURVE",
"623 641 LINE"
);
}
);
};
layerId = "A9E90CC4-8E6C-407E-8E88-16513AA8D05B";
paths = (
{
closed = 1;
nodes = (
"386 -3 OFFCURVE",
"399 2 OFFCURVE",
"406 17 CURVE SMOOTH",
"700 612 LINE",
"678 612 LINE",
"629 25 LINE",
"646 55 LINE",
"574 37 LINE SMOOTH",
"564 35 OFFCURVE",
"557 21 OFFCURVE",
"554 0 CURVE",
"752 0 LINE SMOOTH",
"768 9 OFFCURVE",
"773 20 OFFCURVE",
"776 38 CURVE",
"701 55 LINE",
"708 29 LINE",
"757 619 LINE",
"733 587 LINE",
"806 604 LINE SMOOTH",
"816 607 OFFCURVE",
"823 620 OFFCURVE",
"826 641 CURVE",
"667 641 LINE",
"396 96 LINE",
"428 96 LINE",
"328 641 LINE",
"184 641 LINE SMOOTH",
"169 632 OFFCURVE",
"164 621 OFFCURVE",
"161 603 CURVE",
"232 586 LINE",
"232 617 LINE",
"87 27 LINE",
"102 53 LINE",
"37 37 LINE SMOOTH",
"26 35 OFFCURVE",
"19 21 OFFCURVE",
"16 0 CURVE",
"184 0 LINE SMOOTH",
"199 9 OFFCURVE",
"203 20 OFFCURVE",
"207 38 CURVE",
"130 55 LINE",
"132 31 LINE",
"272 607 LINE",
"254 607 LINE",
"366 1 LINE",
"368 -2 OFFCURVE",
"375 -3 OFFCURVE",
"378 -3 CURVE SMOOTH"
);
}
);
width = 856;
},
{
anchors = (
{
name = bottom;
position = "{383, 0}";
},
{
name = top;
position = "{485, 641}";
}
);
layerId = "E1BF09ED-4302-4AD3-9939-8FDA35DE0FE8";
paths = (
{
closed = 1;
nodes = (
"382 -3 OFFCURVE",
"386 0 OFFCURVE",
"393 14 CURVE SMOOTH",
"713 636 LINE",
"700 636 LINE",
"648 11 LINE",
"656 34 LINE",
"588 20 LINE SMOOTH",
"578 18 OFFCURVE",
"572 12 OFFCURVE",
"570 0 CURVE",
"729 0 LINE SMOOTH",
"742 0 OFFCURVE",
"746 4 OFFCURVE",
"748 18 CURVE",
"674 32 LINE",
"679 15 LINE",
"731 634 LINE",
"715 608 LINE",
"780 621 LINE SMOOTH",
"791 623 OFFCURVE",
"796 629 OFFCURVE",
"798 641 CURVE",
"695 641 LINE",
"387 41 LINE",
"399 41 LINE",
"284 641 LINE",
"197 641 LINE SMOOTH",
"184 641 OFFCURVE",
"181 637 OFFCURVE",
"179 623 CURVE",
"245 609 LINE",
"245 634 LINE",
"93 14 LINE",
"101 30 LINE",
"45 20 LINE SMOOTH",
"34 18 OFFCURVE",
"29 12 OFFCURVE",
"27 0 CURVE",
"159 0 LINE SMOOTH",
"172 0 OFFCURVE",
"175 4 OFFCURVE",
"178 18 CURVE",
"110 31 LINE",
"113 18 LINE",
"263 634 LINE",
"254 634 LINE",
"376 -1 LINE",
"377 -3 OFFCURVE",
"378 -3 OFFCURVE",
"379 -3 CURVE SMOOTH"
);
}
);
width = 842;
},
{
anchors = (
{
name = bottom;
position = "{385, 0}";
},
{
name = top;
position = "{487, 641}";
}
);
layerId = "7B53E429-1BF0-49C5-9F57-63EEBF39C6CC";
paths = (
{
closed = 1;
nodes = (
"394 -3 OFFCURVE",
"423 6 OFFCURVE",
"430 23 CURVE SMOOTH",
"675 564 LINE",
"635 564 LINE",
"593 53 LINE",
"626 97 LINE",
"547 70 LINE SMOOTH",
"538 67 OFFCURVE",
"528 40 OFFCURVE",
"522 1 CURVE",
"798 1 LINE",
"818 28 OFFCURVE",
"826 51 OFFCURVE",
"831 77 CURVE",
"754 101 LINE",
"765 57 LINE",
"809 589 LINE",
"768 545 LINE",
"856 572 LINE SMOOTH",
"866 575 OFFCURVE",
"876 602 OFFCURVE",
"882 641 CURVE",
"612 641 LINE",
"415 204 LINE",
"485 204 LINE",
"414 641 LINE",
"159 641 LINE",
"139 614 OFFCURVE",
"131 591 OFFCURVE",
"126 565 CURVE",
"207 541 LINE",
"206 584 LINE",
"76 53 LINE",
"103 97 LINE",
"20 70 LINE SMOOTH",
"10 67 OFFCURVE",
"0 40 OFFCURVE",
"-6 1 CURVE",
"232 1 LINE",
"252 28 OFFCURVE",
"259 51 OFFCURVE",
"263 77 CURVE",
"168 101 LINE",
"169 57 LINE",
"290 554 LINE",
"255 554 LINE",
"345 4 LINE",
"349 0 OFFCURVE",
"368 -3 OFFCURVE",
"377 -3 CURVE SMOOTH"
);
}
);
width = 883;
}
);
leftKerningGroup = M;
leftMetricsKey = "=H*.85";
rightKerningGroup = M;
rightMetricsKey = "=H*.85";
unicode = 004D;
},
{
color = 4;
glyphname = N;
layers = (
{
anchors = (
{
name = bottom;
position = "{324, 0}";
},
{
name = top;
position = "{426, 641}";
}
);
background = {
paths = (
{
closed = 1;
nodes = (
"535 -3 OFFCURVE",
"550 6 OFFCURVE",
"553 27 CURVE SMOOTH",
"642 589 LINE",
"631 576 LINE",
"708 602 LINE SMOOTH",
"720 606 OFFCURVE",
"727 625 OFFCURVE",
"730 641 CURVE",
"539 641 LINE",
"523 630 OFFCURVE",
"518 622 OFFCURVE",
"514 595 CURVE",
"602 568 LINE",
"589 584 LINE",
"517 130 LINE",
"528 130 LINE",
"262 641 LINE",
"121 641 LINE",
"106 630 OFFCURVE",
"101 622 OFFCURVE",
"96 595 CURVE",
"175 571 LINE",
"168 584 LINE",
"84 52 LINE",
"95 66 LINE",
"23 39 LINE SMOOTH",
"11 35 OFFCURVE",
"5 16 OFFCURVE",
"2 0 CURVE",
"197 0 LINE",
"213 11 OFFCURVE",
"218 19 OFFCURVE",
"222 46 CURVE",
"124 71 LINE",
"133 37 LINE",
"217 564 LINE",
"207 564 LINE",
"500 3 LINE",
"506 -1 OFFCURVE",
"512 -3 OFFCURVE",
"521 -3 CURVE SMOOTH"
);
}
);
};
layerId = "A9E90CC4-8E6C-407E-8E88-16513AA8D05B";
paths = (
{
closed = 1;
nodes = (
"533 -2 OFFCURVE",
"555 7 OFFCURVE",
"557 20 CURVE SMOOTH",
"651 612 LINE",
"636 589 LINE",
"704 604 LINE SMOOTH",
"714 607 OFFCURVE",
"721 620 OFFCURVE",
"724 641 CURVE",
"553 641 LINE SMOOTH",
"538 632 OFFCURVE",
"533 621 OFFCURVE",
"530 603 CURVE",
"609 587 LINE",
"607 610 LINE",
"521 71 LINE",
"548 79 LINE",
"262 641 LINE",
"144 641 LINE SMOOTH",
"128 632 OFFCURVE",
"123 621 OFFCURVE",
"120 603 CURVE",
"198 586 LINE",
"190 606 LINE",
"98 26 LINE",
"113 52 LINE",
"46 37 LINE SMOOTH",
"36 34 OFFCURVE",
"28 21 OFFCURVE",
"25 0 CURVE",
"196 0 LINE SMOOTH",
"211 9 OFFCURVE",
"216 20 OFFCURVE",
"219 38 CURVE",
"141 54 LINE",
"143 31 LINE",
"226 558 LINE",
"215 551 LINE",
"494 2 LINE",
"500 0 OFFCURVE",
"510 -2 OFFCURVE",
"522 -2 CURVE SMOOTH"
);
}
);
width = 700;
},
{
anchors = (
{
name = bottom;
position = "{319, 0}";
},
{
name = top;
position = "{421, 641}";
}
);
layerId = "E1BF09ED-4302-4AD3-9939-8FDA35DE0FE8";
paths = (
{
closed = 1;
nodes = (
"534 -1 OFFCURVE",
"538 7 OFFCURVE",
"539 12 CURVE SMOOTH",
"636 623 LINE",
"628 611 LINE",
"685 621 LINE SMOOTH",
"695 623 OFFCURVE",
"701 629 OFFCURVE",
"703 641 CURVE",
"571 641 LINE SMOOTH",
"558 641 OFFCURVE",
"554 637 OFFCURVE",
"552 623 CURVE",
"620 610 LINE",
"617 623 LINE",
"524 38 LINE",
"535 38 LINE",
"239 641 LINE",
"156 641 LINE SMOOTH",
"143 641 OFFCURVE",
"139 637 OFFCURVE",
"137 623 CURVE",
"204 609 LINE",
"201 617 LINE",
"105 12 LINE",
"113 30 LINE",
"57 20 LINE SMOOTH",
"46 18 OFFCURVE",
"40 12 OFFCURVE",
"39 0 CURVE",
"171 0 LINE SMOOTH",
"184 0 OFFCURVE",
"187 4 OFFCURVE",
"189 18 CURVE",
"122 31 LINE",
"125 17 LINE",
"220 618 LINE",
"213 617 LINE",
"516 1 LINE",
"518 0 OFFCURVE",
"520 -1 OFFCURVE",
"525 -1 CURVE SMOOTH"
);
}
);
width = 688;
},
{
anchors = (
{
name = bottom;
position = "{335, 0}";
},
{
name = top;
position = "{437, 641}";
}
);
layerId = "7B53E429-1BF0-49C5-9F57-63EEBF39C6CC";
paths = (
{
closed = 1;
nodes = (
"531 -3 OFFCURVE",
"588 6 OFFCURVE",
"593 37 CURVE SMOOTH",
"681 589 LINE",
"652 545 LINE",
"740 572 LINE SMOOTH",
"750 575 OFFCURVE",
"760 602 OFFCURVE",
"766 641 CURVE",
"519 641 LINE",
"499 614 OFFCURVE",
"492 591 OFFCURVE",
"488 565 CURVE",
"587 541 LINE",
"587 584 LINE",
"516 137 LINE",
"574 158 LINE",
"308 641 LINE",
"119 641 LINE",
"100 614 OFFCURVE",
"92 591 OFFCURVE",
"88 565 CURVE",
"187 541 LINE",
"169 584 LINE",
"85 52 LINE",
"112 96 LINE",
"24 69 LINE SMOOTH",
"15 66 OFFCURVE",
"5 39 OFFCURVE",
"-1 0 CURVE",
"246 0 LINE",
"265 27 OFFCURVE",
"272 50 OFFCURVE",
"277 76 CURVE",
"177 100 LINE",
"179 57 LINE",
"239 439 LINE",
"218 422 LINE",
"450 3 LINE",
"465 -1 OFFCURVE",
"490 -3 OFFCURVE",
"517 -3 CURVE SMOOTH"
);
}
);
width = 724;
}
);
leftKerningGroup = H;
leftMetricsKey = H;
rightKerningGroup = N;
rightMetricsKey = "=H*.7";
unicode = 004E;
},
{
color = 4;
glyphname = Eng;
layers = (
{
guideLines = (
{
angle = 80.9792;
position = "{588, 318}";
},
{
angle = 260.967;
position = "{571, 331}";
}
);
layerId = "E1BF09ED-4302-4AD3-9939-8FDA35DE0FE8";
paths = (
{
closed = 1;
nodes = (
"535 32 LINE",
"235 641 LINE",
"156 641 LINE SMOOTH",
"143 641 OFFCURVE",
"139 637 OFFCURVE",
"137 623 CURVE",
"204 609 LINE",
"201 617 LINE",
"105 12 LINE",
"113 30 LINE",
"57 20 LINE SMOOTH",
"46 18 OFFCURVE",
"40 12 OFFCURVE",
"39 0 CURVE",
"171 0 LINE SMOOTH",
"184 0 OFFCURVE",
"187 4 OFFCURVE",
"189 18 CURVE",
"122 31 LINE",
"125 17 LINE",
"220 618 LINE",
"213 617 LINE",
"522 -10 LINE"
);
},
{
closed = 1;
nodes = (
"430 -184 OFFCURVE",
"519 -116 OFFCURVE",
"544 38 CURVE SMOOTH",
"636 623 LINE",
"628 611 LINE",
"685 621 LINE SMOOTH",
"695 623 OFFCURVE",
"701 629 OFFCURVE",
"703 641 CURVE",
"571 641 LINE SMOOTH",
"558 641 OFFCURVE",
"554 637 OFFCURVE",
"552 623 CURVE",
"620 610 LINE",
"617 623 LINE",
"524 38 LINE SMOOTH",
"502 -104 OFFCURVE",
"450 -149 OFFCURVE",
"324 -149 CURVE",
"322 -153 OFFCURVE",
"321 -158 OFFCURVE",
"321 -162 CURVE SMOOTH",
"321 -177 OFFCURVE",
"330 -184 OFFCURVE",
"351 -184 CURVE SMOOTH"
);
}
);
width = 681;
},
{
background = {
paths = (
{
closed = 1;
nodes = (
"557 20 LINE",
"651 612 LINE",
"636 589 LINE",
"704 604 LINE SMOOTH",
"714 607 OFFCURVE",
"721 620 OFFCURVE",
"724 641 CURVE",
"553 641 LINE SMOOTH",
"538 632 OFFCURVE",
"533 621 OFFCURVE",
"530 603 CURVE",
"609 587 LINE",
"607 610 LINE",
"521 71 LINE",
"548 79 LINE",
"262 641 LINE",
"144 641 LINE SMOOTH",
"128 632 OFFCURVE",
"123 621 OFFCURVE",
"120 603 CURVE",
"198 586 LINE",
"190 606 LINE",
"98 26 LINE",
"113 52 LINE",
"46 37 LINE SMOOTH",
"36 34 OFFCURVE",
"28 21 OFFCURVE",
"25 0 CURVE",
"196 0 LINE SMOOTH",
"211 9 OFFCURVE",
"216 20 OFFCURVE",
"219 38 CURVE",
"141 54 LINE",
"143 31 LINE",
"226 558 LINE",
"215 551 LINE",
"494 2 LINE"
);
},
{
closed = 1;
nodes = (
"741 -187 OFFCURVE",
"841 -26 OFFCURVE",
"877 201 CURVE",
"778 76 LINE",
"756 -63 OFFCURVE",
"707 -112 OFFCURVE",
"594 -112 CURVE",
"588 -122 OFFCURVE",
"583 -138 OFFCURVE",
"583 -148 CURVE SMOOTH",
"583 -174 OFFCURVE",
"596 -187 OFFCURVE",
"626 -187 CURVE SMOOTH"
);
}
);
};
guideLines = (
{
angle = 80.9777;
position = "{604, 316}";
},
{
angle = 260.9346;
position = "{564, 341}";
}
);
layerId = "A9E90CC4-8E6C-407E-8E88-16513AA8D05B";
paths = (
{
closed = 1;
nodes = (
"558 75 LINE",
"260 641 LINE",
"144 641 LINE SMOOTH",
"128 632 OFFCURVE",
"123 621 OFFCURVE",
"120 603 CURVE",
"198 586 LINE",
"190 606 LINE",
"98 26 LINE",
"113 52 LINE",
"46 37 LINE SMOOTH",
"36 34 OFFCURVE",
"28 21 OFFCURVE",
"25 0 CURVE",
"196 0 LINE SMOOTH",
"211 9 OFFCURVE",
"216 20 OFFCURVE",
"219 38 CURVE",
"141 54 LINE",
"143 31 LINE",
"226 558 LINE",
"215 551 LINE",
"508 -6 LINE"
);
},
{
closed = 1;
nodes = (
"430 -187 OFFCURVE",
"539 -98 OFFCURVE",
"566 71 CURVE SMOOTH",
"651 612 LINE",
"636 589 LINE",
"704 604 LINE SMOOTH",
"714 607 OFFCURVE",
"721 620 OFFCURVE",
"724 641 CURVE",
"553 641 LINE SMOOTH",
"538 632 OFFCURVE",
"533 621 OFFCURVE",
"530 603 CURVE",
"609 587 LINE",
"607 610 LINE",
"521 71 LINE SMOOTH",
"499 -72 OFFCURVE",
"446 -112 OFFCURVE",
"303 -112 CURVE",
"298 -122 OFFCURVE",
"293 -138 OFFCURVE",
"293 -148 CURVE SMOOTH",
"293 -174 OFFCURVE",
"306 -187 OFFCURVE",
"335 -187 CURVE SMOOTH"
);
}
);
width = 694;
},
{
guideLines = (
{
angle = 80.9421;
position = "{637, 313}";
},
{
angle = 260.9747;
position = "{552, 361}";
}
);
layerId = "7B53E429-1BF0-49C5-9F57-63EEBF39C6CC";
paths = (
{
closed = 1;
nodes = (
"604 158 LINE",
"308 641 LINE",
"119 641 LINE",
"100 614 OFFCURVE",
"92 591 OFFCURVE",
"88 565 CURVE",
"187 541 LINE",
"169 584 LINE",
"85 52 LINE",
"112 96 LINE",
"24 69 LINE SMOOTH",
"15 66 OFFCURVE",
"5 39 OFFCURVE",
"-1 0 CURVE",
"246 0 LINE",
"265 27 OFFCURVE",
"272 50 OFFCURVE",
"277 76 CURVE",
"177 100 LINE",
"179 57 LINE",
"239 439 LINE",
"218 422 LINE",
"480 3 LINE"
);
},
{
closed = 1;
nodes = (
"429 -193 OFFCURVE",
"577 -62 OFFCURVE",
"609 137 CURVE SMOOTH",
"681 589 LINE",
"652 545 LINE",
"740 572 LINE SMOOTH",
"750 575 OFFCURVE",
"760 602 OFFCURVE",
"766 641 CURVE",
"519 641 LINE",
"499 614 OFFCURVE",
"492 591 OFFCURVE",
"488 565 CURVE",
"587 541 LINE",
"587 584 LINE",
"516 137 LINE SMOOTH",
"494 -8 OFFCURVE",
"437 -40 OFFCURVE",
"263 -40 CURVE",
"250 -62 OFFCURVE",
"237 -99 OFFCURVE",
"237 -121 CURVE SMOOTH",
"237 -167 OFFCURVE",
"258 -193 OFFCURVE",
"304 -193 CURVE SMOOTH"
);
}
);
width = 720;
}
);
leftKerningGroup = H;
leftMetricsKey = N;
rightKerningGroup = J;
rightMetricsKey = J;
unicode = 014A;
},
{
color = 1;
glyphname = Ntilde;
layers = (
{
background = {
paths = (
{
closed = 1;
nodes = (
"493 722 OFFCURVE",
"547 777 OFFCURVE",
"547 808 CURVE SMOOTH",
"547 817 OFFCURVE",
"544 825 OFFCURVE",
"537 833 CURVE",
"516 797 OFFCURVE",
"491 783 OFFCURVE",
"467 783 CURVE SMOOTH",
"420 783 OFFCURVE",
"369 824 OFFCURVE",
"320 824 CURVE SMOOTH",
"253 824 OFFCURVE",
"206 770 OFFCURVE",
"206 737 CURVE SMOOTH",
"206 730 OFFCURVE",
"209 722 OFFCURVE",
"216 714 CURVE",
"237 750 OFFCURVE",
"260 762 OFFCURVE",
"284 762 CURVE SMOOTH",
"330 762 OFFCURVE",
"379 722 OFFCURVE",
"427 722 CURVE SMOOTH"
);
},
{
closed = 1;
nodes = (
"498 630 OFFCURVE",
"494 622 OFFCURVE",
"494 595 CURVE",
"573 574 LINE",
"573 157 LINE",
"215 641 LINE",
"64 641 LINE",
"49 630 OFFCURVE",
"45 622 OFFCURVE",
"45 595 CURVE",
"124 574 LINE",
"124 62 LINE",
"61 39 LINE SMOOTH",
"49 35 OFFCURVE",
"45 16 OFFCURVE",
"45 0 CURVE",
"255 0 LINE",
"270 11 OFFCURVE",
"274 19 OFFCURVE",
"274 46 CURVE",
"184 67 LINE",
"184 535 LINE",
"580 3 LINE",
"587 -1 OFFCURVE",
"594 -3 OFFCURVE",
"603 -3 CURVE SMOOTH",
"618 -3 OFFCURVE",
"633 6 OFFCURVE",
"633 27 CURVE SMOOTH",
"633 579 LINE",
"702 602 LINE SMOOTH",
"714 606 OFFCURVE",
"718 625 OFFCURVE",
"718 641 CURVE",
"513 641 LINE"
);
}
);
};
components = (
{
name = N;
},
{
name = tildecomb.case;
transform = "{1, 0, 0, 1, 228, 198}";
}
);
layerId = "A9E90CC4-8E6C-407E-8E88-16513AA8D05B";
width = 700;
},
{
components = (
{
name = N;
},
{
name = tildecomb.case;
transform = "{1, 0, 0, 1, 247, 198}";
}
);
layerId = "E1BF09ED-4302-4AD3-9939-8FDA35DE0FE8";
width = 688;
},
{
components = (
{
name = N;
},
{
name = tildecomb.case;
transform = "{1, 0, 0, 1, 203, 198}";
}
);
layerId = "7B53E429-1BF0-49C5-9F57-63EEBF39C6CC";
width = 724;
}
);
leftKerningGroup = H;
rightKerningGroup = N;
unicode = 00D1;
},
{
color = 4;
glyphname = O;
layers = (
{
anchors = (
{
name = bottom;
position = "{285, 0}";
},
{
name = center;
position = "{336, 321}";
},
{
name = ogonek;
position = "{344, 0}";
},
{
name = top;
position = "{387, 641}";
},
{
name = topleft;
position = "{324, 641}";
},
{
name = topright;
position = "{484, 641}";
}
);
background = {
paths = (
{
closed = 1;
nodes = (
"466 -12 OFFCURVE",
"630 194 OFFCURVE",
"630 414 CURVE SMOOTH",
"630 559 OFFCURVE",
"547 655 OFFCURVE",
"413 655 CURVE SMOOTH",
"215 655 OFFCURVE",
"52 449 OFFCURVE",
"52 228 CURVE SMOOTH",
"52 83 OFFCURVE",
"134 -12 OFFCURVE",
"269 -12 CURVE SMOOTH"
);
},
{
closed = 1;
nodes = (
"204 37 OFFCURVE",
"145 120 OFFCURVE",
"145 253 CURVE SMOOTH",
"145 428 OFFCURVE",
"228 606 OFFCURVE",
"377 606 CURVE SMOOTH",
"478 606 OFFCURVE",
"537 522 OFFCURVE",
"537 391 CURVE SMOOTH",
"537 216 OFFCURVE",
"453 37 OFFCURVE",
"304 37 CURVE SMOOTH"
);
}
);
};
layerId = "A9E90CC4-8E6C-407E-8E88-16513AA8D05B";
paths = (
{
closed = 1;
nodes = (
"454 -12 OFFCURVE",
"614 201 OFFCURVE",
"614 414 CURVE SMOOTH",
"614 556 OFFCURVE",
"536 655 OFFCURVE",
"407 655 CURVE SMOOTH",
"221 655 OFFCURVE",
"58 444 OFFCURVE",
"58 229 CURVE SMOOTH",
"58 88 OFFCURVE",
"135 -12 OFFCURVE",
"266 -12 CURVE SMOOTH"
);
},
{
closed = 1;
nodes = (
"201 40 OFFCURVE",
"147 115 OFFCURVE",
"147 243 CURVE SMOOTH",
"147 414 OFFCURVE",
"234 602 OFFCURVE",
"372 602 CURVE SMOOTH",
"469 602 OFFCURVE",
"524 526 OFFCURVE",
"524 398 CURVE SMOOTH",
"524 225 OFFCURVE",
"435 40 OFFCURVE",
"299 40 CURVE SMOOTH"
);
}
);
width = 640;
},
{
anchors = (
{
name = bottom;
position = "{289, 0}";
},
{
name = center;
position = "{340, 321}";
},
{
name = ogonek;
position = "{345, 0}";
},
{
name = top;
position = "{391, 641}";
},
{
name = topleft;
position = "{331, 641}";
},
{
name = topright;
position = "{483, 641}";
}
);
background = {
paths = (
{
closed = 1;
nodes = (
"444 -12 OFFCURVE",
"595 152 OFFCURVE",
"626 348 CURVE SMOOTH",
"629 369 OFFCURVE",
"631 390 OFFCURVE",
"631 410 CURVE SMOOTH",
"631 552 OFFCURVE",
"550 655 OFFCURVE",
"415 655 CURVE SMOOTH",
"255 655 OFFCURVE",
"95 501 OFFCURVE",
"62 297 CURVE SMOOTH",
"59 275 OFFCURVE",
"57 254 OFFCURVE",
"57 234 CURVE SMOOTH",
"57 91 OFFCURVE",
"137 -12 OFFCURVE",
"273 -12 CURVE SMOOTH"
);
},
{
closed = 1;
nodes = (
"171 16 OFFCURVE",
"98 101 OFFCURVE",
"98 249 CURVE SMOOTH",
"98 276 OFFCURVE",
"100 304 OFFCURVE",
"105 335 CURVE SMOOTH",
"132 510 OFFCURVE",
"259 626 OFFCURVE",
"380 626 CURVE SMOOTH",
"514 626 OFFCURVE",
"589 540 OFFCURVE",
"589 392 CURVE SMOOTH",
"589 366 OFFCURVE",
"587 338 OFFCURVE",
"582 308 CURVE SMOOTH",
"556 142 OFFCURVE",
"438 16 OFFCURVE",
"305 16 CURVE SMOOTH"
);
}
);
};
guideLines = (
{
angle = 45;
position = "{563, 328}";
}
);
layerId = "E1BF09ED-4302-4AD3-9939-8FDA35DE0FE8";
paths = (
{
closed = 1;
nodes = (
"452 -12 OFFCURVE",
"607 206 OFFCURVE",
"607 415 CURVE SMOOTH",
"607 554 OFFCURVE",
"533 655 OFFCURVE",
"410 655 CURVE SMOOTH",
"231 655 OFFCURVE",
"72 440 OFFCURVE",
"72 229 CURVE SMOOTH",
"72 89 OFFCURVE",
"145 -12 OFFCURVE",
"270 -12 CURVE SMOOTH"
);
},
{
closed = 1;
nodes = (
"179 16 OFFCURVE",
"113 99 OFFCURVE",
"113 243 CURVE SMOOTH",
"113 433 OFFCURVE",
"219 626 OFFCURVE",
"377 626 CURVE SMOOTH",
"497 626 OFFCURVE",
"566 542 OFFCURVE",
"566 397 CURVE SMOOTH",
"566 206 OFFCURVE",
"457 16 OFFCURVE",
"300 16 CURVE SMOOTH"
);
}
);
width = 647;
},
{
anchors = (
{
name = bottom;
position = "{278, 0}";
},
{
name = center;
position = "{329, 321}";
},
{
name = ogonek;
position = "{341, 0}";
},
{
name = top;
position = "{380, 641}";
},
{
name = topleft;
position = "{310, 641}";
},
{
name = topright;
position = "{487, 641}";
}
);
background = {
paths = (
{
closed = 1;
nodes = (
"448 -12 OFFCURVE",
"613 141 OFFCURVE",
"646 345 CURVE SMOOTH",
"675 529 OFFCURVE",
"578 655 OFFCURVE",
"406 655 CURVE SMOOTH",
"218 655 OFFCURVE",
"52 501 OFFCURVE",
"20 298 CURVE SMOOTH",
"-9 114 OFFCURVE",
"87 -12 OFFCURVE",
"260 -12 CURVE SMOOTH"
);
},
{
closed = 1;
nodes = (
"221 87 OFFCURVE",
"184 184 OFFCURVE",
"208 333 CURVE SMOOTH",
"230 472 OFFCURVE",
"288 556 OFFCURVE",
"366 556 CURVE SMOOTH",
"445 556 OFFCURVE",
"481 459 OFFCURVE",
"458 310 CURVE SMOOTH",
"436 171 OFFCURVE",
"377 87 OFFCURVE",
"300 87 CURVE SMOOTH"
);
}
);
};
layerId = "7B53E429-1BF0-49C5-9F57-63EEBF39C6CC";
paths = (
{
closed = 1;
nodes = (
"459 -12 OFFCURVE",
"628 191 OFFCURVE",
"628 413 CURVE SMOOTH",
"628 559 OFFCURVE",
"542 655 OFFCURVE",
"401 655 CURVE SMOOTH",
"200 655 OFFCURVE",
"30 453 OFFCURVE",
"30 230 CURVE SMOOTH",
"30 85 OFFCURVE",
"116 -12 OFFCURVE",
"257 -12 CURVE SMOOTH"
);
},
{
closed = 1;
nodes = (
"245 87 OFFCURVE",
"215 146 OFFCURVE",
"215 243 CURVE SMOOTH",
"215 377 OFFCURVE",
"262 556 OFFCURVE",
"362 556 CURVE SMOOTH",
"414 556 OFFCURVE",
"443 495 OFFCURVE",
"443 399 CURVE SMOOTH",
"443 261 OFFCURVE",
"393 87 OFFCURVE",
"296 87 CURVE SMOOTH"
);
}
);
width = 627;
}
);
leftKerningGroup = O;
rightKerningGroup = O;
unicode = 004F;
},
{
color = 1;
glyphname = Oacute;
layers = (
{
background = {
paths = (
{
closed = 1;
nodes = (
"571 -12 OFFCURVE",
"691 171 OFFCURVE",
"691 347 CURVE SMOOTH",
"691 506 OFFCURVE",
"593 655 OFFCURVE",
"378 655 CURVE SMOOTH",
"168 655 OFFCURVE",
"48 472 OFFCURVE",
"48 296 CURVE SMOOTH",
"48 139 OFFCURVE",
"145 -12 OFFCURVE",
"361 -12 CURVE SMOOTH"
);
},
{
closed = 1;
nodes = (
"226 37 OFFCURVE",
"149 172 OFFCURVE",
"149 326 CURVE SMOOTH",
"149 478 OFFCURVE",
"210 606 OFFCURVE",
"370 606 CURVE SMOOTH",
"512 606 OFFCURVE",
"589 472 OFFCURVE",
"589 317 CURVE SMOOTH",
"589 161 OFFCURVE",
"524 37 OFFCURVE",
"368 37 CURVE SMOOTH"
);
},
{
closed = 1;
nodes = (
"522 833 OFFCURVE",
"511 858 OFFCURVE",
"488 858 CURVE SMOOTH",
"457 858 OFFCURVE",
"404 825 OFFCURVE",
"268 743 CURVE",
"267 741 OFFCURVE",
"267 738 OFFCURVE",
"267 736 CURVE SMOOTH",
"267 728 OFFCURVE",
"271 721 OFFCURVE",
"281 715 CURVE",
"432 760 OFFCURVE",
"522 781 OFFCURVE",
"522 816 CURVE SMOOTH"
);
}
);
};
components = (
{
name = O;
},
{
name = acutecomb.case;
transform = "{1, 0, 0, 1, 245, 198}";
}
);
layerId = "A9E90CC4-8E6C-407E-8E88-16513AA8D05B";
width = 640;
},
{
components = (
{
name = O;
},
{
name = acutecomb.case;
transform = "{1, 0, 0, 1, 265, 198}";
}
);
layerId = "E1BF09ED-4302-4AD3-9939-8FDA35DE0FE8";
width = 647;
},
{
components = (
{
name = O;
},
{
name = acutecomb.case;
transform = "{1, 0, 0, 1, 204, 198}";
}
);
layerId = "7B53E429-1BF0-49C5-9F57-63EEBF39C6CC";
width = 627;
}
);
leftKerningGroup = O;
rightKerningGroup = O;
unicode = 00D3;
},
{
color = 1;
glyphname = Ocircumflex;
layers = (
{
background = {
paths = (
{
closed = 1;
nodes = (
"571 -12 OFFCURVE",
"691 171 OFFCURVE",
"691 347 CURVE SMOOTH",
"691 506 OFFCURVE",
"593 655 OFFCURVE",
"378 655 CURVE SMOOTH",
"168 655 OFFCURVE",
"48 472 OFFCURVE",
"48 296 CURVE SMOOTH",
"48 139 OFFCURVE",
"145 -12 OFFCURVE",
"361 -12 CURVE SMOOTH"
);
},
{
closed = 1;
nodes = (
"226 37 OFFCURVE",
"149 172 OFFCURVE",
"149 326 CURVE SMOOTH",
"149 478 OFFCURVE",
"210 606 OFFCURVE",
"370 606 CURVE SMOOTH",
"512 606 OFFCURVE",
"589 472 OFFCURVE",
"589 317 CURVE SMOOTH",
"589 161 OFFCURVE",
"524 37 OFFCURVE",
"368 37 CURVE SMOOTH"
);
},
{
closed = 1;
nodes = (
"399 854 OFFCURVE",
"384 858 OFFCURVE",
"375 858 CURVE SMOOTH",
"366 858 OFFCURVE",
"351 853 OFFCURVE",
"331 839 CURVE SMOOTH",
"194 743 LINE",
"194 743 OFFCURVE",
"193 740 OFFCURVE",
"193 737 CURVE SMOOTH",
"193 728 OFFCURVE",
"198 720 OFFCURVE",
"207 715 CURVE",
"375 787 LINE",
"543 715 LINE",
"552 720 OFFCURVE",
"557 728 OFFCURVE",
"557 737 CURVE SMOOTH",
"557 740 OFFCURVE",
"556 743 OFFCURVE",
"556 743 CURVE",
"419 839 LINE SMOOTH"
);
}
);
};
components = (
{
name = O;
},
{
name = circumflexcomb.case;
transform = "{1, 0, 0, 1, 204, 198}";
}
);
layerId = "A9E90CC4-8E6C-407E-8E88-16513AA8D05B";
width = 640;
},
{
components = (
{
name = O;
},
{
name = circumflexcomb.case;
transform = "{1, 0, 0, 1, 228, 198}";
}
);
layerId = "E1BF09ED-4302-4AD3-9939-8FDA35DE0FE8";
width = 647;
},
{
components = (
{
name = O;
},
{
name = circumflexcomb.case;
transform = "{1, 0, 0, 1, 161, 198}";
}
);
layerId = "7B53E429-1BF0-49C5-9F57-63EEBF39C6CC";
width = 627;
}
);
leftKerningGroup = O;
rightKerningGroup = O;
unicode = 00D4;
},
{
color = 1;
glyphname = Odieresis;
layers = (
{
background = {
paths = (
{
closed = 1;
nodes = (
"230 755 OFFCURVE",
"245 736 OFFCURVE",
"276 736 CURVE SMOOTH",
"300 736 OFFCURVE",
"323 757 OFFCURVE",
"323 782 CURVE SMOOTH",
"323 809 OFFCURVE",
"307 828 OFFCURVE",
"276 828 CURVE SMOOTH",
"253 828 OFFCURVE",
"230 807 OFFCURVE",
"230 782 CURVE SMOOTH"
);
},
{
closed = 1;
nodes = (
"437 755 OFFCURVE",
"452 736 OFFCURVE",
"483 736 CURVE SMOOTH",
"507 736 OFFCURVE",
"530 757 OFFCURVE",
"530 782 CURVE SMOOTH",
"530 809 OFFCURVE",
"514 828 OFFCURVE",
"483 828 CURVE SMOOTH",
"460 828 OFFCURVE",
"437 807 OFFCURVE",
"437 782 CURVE SMOOTH"
);
},
{
closed = 1;
nodes = (
"571 -12 OFFCURVE",
"691 171 OFFCURVE",
"691 347 CURVE SMOOTH",
"691 506 OFFCURVE",
"593 655 OFFCURVE",
"378 655 CURVE SMOOTH",
"168 655 OFFCURVE",
"48 472 OFFCURVE",
"48 296 CURVE SMOOTH",
"48 139 OFFCURVE",
"145 -12 OFFCURVE",
"361 -12 CURVE SMOOTH"
);
},
{
closed = 1;
nodes = (
"226 37 OFFCURVE",
"149 172 OFFCURVE",
"149 326 CURVE SMOOTH",
"149 478 OFFCURVE",
"210 606 OFFCURVE",
"370 606 CURVE SMOOTH",
"512 606 OFFCURVE",
"589 472 OFFCURVE",
"589 317 CURVE SMOOTH",
"589 161 OFFCURVE",
"524 37 OFFCURVE",
"368 37 CURVE SMOOTH"
);
}
);
};
components = (
{
name = O;
},
{
name = dieresiscomb.case;
transform = "{1, 0, 0, 1, 203, 198}";
}
);
layerId = "A9E90CC4-8E6C-407E-8E88-16513AA8D05B";
width = 640;
},
{
components = (
{
name = O;
},
{
name = dieresiscomb.case;
transform = "{1, 0, 0, 1, 255, 198}";
}
);
layerId = "E1BF09ED-4302-4AD3-9939-8FDA35DE0FE8";
width = 647;
},
{
components = (
{
name = O;
},
{
name = dieresiscomb.case;
transform = "{1, 0, 0, 1, 131, 198}";
}
);
layerId = "7B53E429-1BF0-49C5-9F57-63EEBF39C6CC";
width = 627;
}
);
leftKerningGroup = O;
rightKerningGroup = O;
unicode = 00D6;
},
{
color = 1;
glyphname = Ograve;
layers = (
{
background = {
paths = (
{
closed = 1;
nodes = (
"571 -12 OFFCURVE",
"691 171 OFFCURVE",
"691 347 CURVE SMOOTH",
"691 506 OFFCURVE",
"593 655 OFFCURVE",
"378 655 CURVE SMOOTH",
"168 655 OFFCURVE",
"48 472 OFFCURVE",
"48 296 CURVE SMOOTH",
"48 139 OFFCURVE",
"145 -12 OFFCURVE",
"361 -12 CURVE SMOOTH"
);
},
{
closed = 1;
nodes = (
"226 37 OFFCURVE",
"149 172 OFFCURVE",
"149 326 CURVE SMOOTH",
"149 478 OFFCURVE",
"210 606 OFFCURVE",
"370 606 CURVE SMOOTH",
"512 606 OFFCURVE",
"589 472 OFFCURVE",
"589 317 CURVE SMOOTH",
"589 161 OFFCURVE",
"524 37 OFFCURVE",
"368 37 CURVE SMOOTH"
);
},
{
closed = 1;
nodes = (
"219 781 OFFCURVE",
"309 760 OFFCURVE",
"460 715 CURVE",
"470 721 OFFCURVE",
"474 728 OFFCURVE",
"474 736 CURVE SMOOTH",
"474 738 OFFCURVE",
"474 741 OFFCURVE",
"473 743 CURVE",
"337 825 OFFCURVE",
"284 858 OFFCURVE",
"253 858 CURVE SMOOTH",
"230 858 OFFCURVE",
"219 833 OFFCURVE",
"219 816 CURVE SMOOTH"
);
}
);
};
components = (
{
name = O;
},
{
name = gravecomb.case;
transform = "{1, 0, 0, 1, 209, 198}";
}
);
layerId = "A9E90CC4-8E6C-407E-8E88-16513AA8D05B";
width = 640;
},
{
components = (
{
name = O;
},
{
name = gravecomb.case;
transform = "{1, 0, 0, 1, 293, 198}";
}
);
layerId = "E1BF09ED-4302-4AD3-9939-8FDA35DE0FE8";
width = 647;
},
{
components = (
{
name = O;
},
{
name = gravecomb.case;
transform = "{1, 0, 0, 1, 233, 198}";
}
);
layerId = "7B53E429-1BF0-49C5-9F57-63EEBF39C6CC";
width = 627;
}
);
leftKerningGroup = O;
rightKerningGroup = O;
unicode = 00D2;
},
{
color = 1;
glyphname = Oslash;
layers = (
{
background = {
paths = (
{
closed = 1;
nodes = (
"679 722 OFFCURVE",
"671 734 OFFCURVE",
"629 734 CURVE",
"545 616 LINE",
"500 641 OFFCURVE",
"446 655 OFFCURVE",
"378 655 CURVE SMOOTH",
"168 655 OFFCURVE",
"48 472 OFFCURVE",
"48 296 CURVE SMOOTH",
"48 204 OFFCURVE",
"80 118 OFFCURVE",
"148 59 CURVE",
"51 -78 LINE",
"59 -89 OFFCURVE",
"68 -100 OFFCURVE",
"110 -100 CURVE",
"199 24 LINE",
"242 1 OFFCURVE",
"296 -12 OFFCURVE",
"361 -12 CURVE SMOOTH",
"571 -12 OFFCURVE",
"691 171 OFFCURVE",
"691 347 CURVE SMOOTH",
"691 436 OFFCURVE",
"660 521 OFFCURVE",
"595 581 CURVE",
"688 712 LINE"
);
},
{
closed = 1;
nodes = (
"166 184 OFFCURVE",
"149 252 OFFCURVE",
"149 326 CURVE SMOOTH",
"149 478 OFFCURVE",
"210 606 OFFCURVE",
"370 606 CURVE SMOOTH",
"423 606 OFFCURVE",
"467 587 OFFCURVE",
"502 555 CURVE",
"200 131 LINE"
);
},
{
closed = 1;
nodes = (
"573 455 OFFCURVE",
"589 390 OFFCURVE",
"589 317 CURVE SMOOTH",
"589 162 OFFCURVE",
"524 37 OFFCURVE",
"368 37 CURVE SMOOTH",
"319 37 OFFCURVE",
"276 53 OFFCURVE",
"241 84 CURVE",
"542 506 LINE"
);
}
);
};
components = (
{
name = O;
},
{
name = slashlongcomb;
transform = "{1, 0, 0, 1, 27, 4}";
}
);
layerId = "A9E90CC4-8E6C-407E-8E88-16513AA8D05B";
width = 640;
},
{
components = (
{
name = O;
},
{
name = slashlongcomb;
transform = "{1, 0, 0, 1, 31, 4}";
}
);
layerId = "E1BF09ED-4302-4AD3-9939-8FDA35DE0FE8";
width = 647;
},
{
components = (
{
name = O;
},
{
name = slashlongcomb;
transform = "{1, 0, 0, 1, 20, 4}";
}
);
layerId = "7B53E429-1BF0-49C5-9F57-63EEBF39C6CC";
width = 627;
}
);
leftKerningGroup = O;
rightKerningGroup = O;
unicode = 00D8;
},
{
color = 1;
glyphname = Otilde;
layers = (
{
background = {
paths = (
{
closed = 1;
nodes = (
"492 722 OFFCURVE",
"546 777 OFFCURVE",
"546 808 CURVE SMOOTH",
"546 817 OFFCURVE",
"543 825 OFFCURVE",
"536 833 CURVE",
"515 797 OFFCURVE",
"490 783 OFFCURVE",
"466 783 CURVE SMOOTH",
"419 783 OFFCURVE",
"368 824 OFFCURVE",
"319 824 CURVE SMOOTH",
"252 824 OFFCURVE",
"205 770 OFFCURVE",
"205 737 CURVE SMOOTH",
"205 730 OFFCURVE",
"208 722 OFFCURVE",
"215 714 CURVE",
"236 750 OFFCURVE",
"259 762 OFFCURVE",
"283 762 CURVE SMOOTH",
"329 762 OFFCURVE",
"378 722 OFFCURVE",
"426 722 CURVE SMOOTH"
);
},
{
closed = 1;
nodes = (
"571 -12 OFFCURVE",
"691 171 OFFCURVE",
"691 347 CURVE SMOOTH",
"691 506 OFFCURVE",
"593 655 OFFCURVE",
"378 655 CURVE SMOOTH",
"168 655 OFFCURVE",
"48 472 OFFCURVE",
"48 296 CURVE SMOOTH",
"48 139 OFFCURVE",
"145 -12 OFFCURVE",
"361 -12 CURVE SMOOTH"
);
},
{
closed = 1;
nodes = (
"226 37 OFFCURVE",
"149 172 OFFCURVE",
"149 326 CURVE SMOOTH",
"149 478 OFFCURVE",
"210 606 OFFCURVE",
"370 606 CURVE SMOOTH",
"512 606 OFFCURVE",
"589 472 OFFCURVE",
"589 317 CURVE SMOOTH",
"589 161 OFFCURVE",
"524 37 OFFCURVE",
"368 37 CURVE SMOOTH"
);
}
);
};
components = (
{
name = O;
},
{
name = tildecomb.case;
transform = "{1, 0, 0, 1, 189, 198}";
}
);
layerId = "A9E90CC4-8E6C-407E-8E88-16513AA8D05B";
width = 640;
},
{
components = (
{
name = O;
},
{
name = tildecomb.case;
transform = "{1, 0, 0, 1, 217, 198}";
}
);
layerId = "E1BF09ED-4302-4AD3-9939-8FDA35DE0FE8";
width = 647;
},
{
components = (
{
name = O;
},
{
name = tildecomb.case;
transform = "{1, 0, 0, 1, 146, 198}";
}
);
layerId = "7B53E429-1BF0-49C5-9F57-63EEBF39C6CC";
width = 627;
}
);
leftKerningGroup = O;
rightKerningGroup = O;
unicode = 00D5;
},
{
color = 1;
glyphname = OE;
layers = (
{
background = {
components = (
{
name = O;
},
{
name = E;
transform = "{1, 0, 0, 1, 379, 0}";
}
);
paths = (
{
closed = 1;
nodes = (
"392 -12 OFFCURVE",
"422 -8 OFFCURVE",
"450 0 CURVE",
"915 0 LINE",
"915 149 LINE",
"904 164 OFFCURVE",
"896 168 OFFCURVE",
"869 168 CURVE",
"838 46 LINE",
"589 67 LINE",
"589 299 LINE",
"779 299 LINE",
"799 239 LINE",
"822 239 OFFCURVE",
"827 242 OFFCURVE",
"838 255 CURVE",
"838 395 LINE",
"827 408 OFFCURVE",
"822 411 OFFCURVE",
"799 411 CURVE",
"779 351 LINE",
"589 351 LINE",
"589 579 LINE",
"812 595 LINE",
"845 504 LINE SMOOTH",
"849 492 OFFCURVE",
"868 488 OFFCURVE",
"884 488 CURVE",
"884 641 LINE",
"483 641 LINE",
"451 650 OFFCURVE",
"416 655 OFFCURVE",
"378 655 CURVE SMOOTH",
"168 655 OFFCURVE",
"48 472 OFFCURVE",
"48 296 CURVE SMOOTH",
"48 139 OFFCURVE",
"145 -12 OFFCURVE",
"361 -12 CURVE SMOOTH"
);
},
{
closed = 1;
nodes = (
"226 37 OFFCURVE",
"149 172 OFFCURVE",
"149 326 CURVE SMOOTH",
"149 478 OFFCURVE",
"210 606 OFFCURVE",
"370 606 CURVE SMOOTH",
"425 606 OFFCURVE",
"468 587 OFFCURVE",
"503 555 CURVE",
"503 82 LINE",
"468 54 OFFCURVE",
"425 37 OFFCURVE",
"368 37 CURVE SMOOTH"
);
}
);
};
components = (
{
name = O.OE;
},
{
name = E;
transform = "{1, 0, 0, 1, 294, 0}";
}
);
layerId = "A9E90CC4-8E6C-407E-8E88-16513AA8D05B";
width = 867;
},
{
components = (
{
name = O.OE;
},
{
name = E;
transform = "{1, 0, 0, 1, 270, 0}";
}
);
layerId = "E1BF09ED-4302-4AD3-9939-8FDA35DE0FE8";
width = 828;
},
{
components = (
{
name = O.OE;
},
{
name = E;
transform = "{1, 0, 0, 1, 299, 0}";
}
);
layerId = "7B53E429-1BF0-49C5-9F57-63EEBF39C6CC";
width = 901;
}
);
leftKerningGroup = O;
leftMetricsKey = O;
rightKerningGroup = E;
rightMetricsKey = E;
unicode = 0152;
},
{
color = 4;
glyphname = P;
layers = (
{
anchors = (
{
name = bottom;
position = "{237, 0}";
},
{
name = top;
position = "{335, 641}";
}
);
background = {
paths = (
{
closed = 1;
nodes = (
"190 275 LINE",
"209 268 OFFCURVE",
"239 263 OFFCURVE",
"269 263 CURVE SMOOTH",
"410 263 OFFCURVE",
"528 367 OFFCURVE",
"528 493 CURVE SMOOTH",
"528 586 OFFCURVE",
"462 641 OFFCURVE",
"352 641 CURVE SMOOTH",
"121 641 LINE",
"106 631 OFFCURVE",
"100 620 OFFCURVE",
"96 595 CURVE",
"175 571 LINE",
"168 584 LINE",
"84 52 LINE",
"95 66 LINE",
"23 39 LINE SMOOTH",
"13 36 OFFCURVE",
"4 18 OFFCURVE",
"2 0 CURVE",
"231 0 LINE",
"247 11 OFFCURVE",
"252 20 OFFCURVE",
"256 46 CURVE",
"157 69 LINE",
"165 57 LINE",
"249 589 LINE",
"238 577 LINE",
"273 587 OFFCURVE",
"305 591 OFFCURVE",
"329 591 CURVE SMOOTH",
"399 591 OFFCURVE",
"437 551 OFFCURVE",
"437 480 CURVE SMOOTH",
"437 381 OFFCURVE",
"366 308 OFFCURVE",
"268 308 CURVE SMOOTH",
"242 308 OFFCURVE",
"209 313 OFFCURVE",
"197 319 CURVE"
);
}
);
};
layerId = "A9E90CC4-8E6C-407E-8E88-16513AA8D05B";
paths = (
{
closed = 1;
nodes = (
"195 270 LINE",
"219 262 OFFCURVE",
"259 256 OFFCURVE",
"292 256 CURVE SMOOTH",
"436 256 OFFCURVE",
"547 361 OFFCURVE",
"547 496 CURVE SMOOTH",
"547 586 OFFCURVE",
"486 641 OFFCURVE",
"384 641 CURVE SMOOTH",
"144 641 LINE SMOOTH",
"130 633 OFFCURVE",
"124 623 OFFCURVE",
"121 603 CURVE",
"195 585 LINE",
"184 601 LINE",
"95 39 LINE",
"112 55 LINE",
"45 37 LINE SMOOTH",
"34 33 OFFCURVE",
"27 20 OFFCURVE",
"25 0 CURVE",
"224 0 LINE SMOOTH",
"238 8 OFFCURVE",
"244 18 OFFCURVE",
"247 38 CURVE",
"160 56 LINE",
"173 34 LINE",
"262 597 LINE",
"246 583 LINE",
"278 591 OFFCURVE",
"315 595 OFFCURVE",
"341 595 CURVE SMOOTH",
"419 595 OFFCURVE",
"460 557 OFFCURVE",
"460 483 CURVE SMOOTH",
"460 377 OFFCURVE",
"389 303 OFFCURVE",
"289 303 CURVE SMOOTH",
"255 303 OFFCURVE",
"217 309 OFFCURVE",
"204 315 CURVE"
);
}
);
width = 558;
},
{
anchors = (
{
name = bottom;
position = "{220, 0}";
},
{
name = top;
position = "{321, 641}";
}
);
background = {
paths = (
{
closed = 1;
nodes = (
"168 285 LINE",
"190 277 OFFCURVE",
"229 273 OFFCURVE",
"259 273 CURVE SMOOTH",
"405 273 OFFCURVE",
"502 376 OFFCURVE",
"517 475 CURVE SMOOTH",
"531 561 OFFCURVE",
"485 641 OFFCURVE",
"358 641 CURVE SMOOTH",
"156 641 LINE SMOOTH",
"144 641 OFFCURVE",
"140 637 OFFCURVE",
"138 623 CURVE",
"208 607 LINE",
"200 619 LINE",
"105 23 LINE",
"119 34 LINE",
"56 20 LINE SMOOTH",
"45 18 OFFCURVE",
"39 12 OFFCURVE",
"38 0 CURVE",
"189 0 LINE SMOOTH",
"202 0 OFFCURVE",
"206 4 OFFCURVE",
"208 18 CURVE",
"128 34 LINE",
"136 22 LINE",
"231 621 LINE",
"220 609 LINE",
"244 615 OFFCURVE",
"291 623 OFFCURVE",
"339 623 CURVE SMOOTH",
"438 623 OFFCURVE",
"493 561 OFFCURVE",
"476 457 CURVE SMOOTH",
"463 374 OFFCURVE",
"396 293 OFFCURVE",
"281 293 CURVE SMOOTH",
"236 293 OFFCURVE",
"190 298 OFFCURVE",
"172 307 CURVE"
);
}
);
};
layerId = "E1BF09ED-4302-4AD3-9939-8FDA35DE0FE8";
paths = (
{
closed = 1;
nodes = (
"168 285 LINE",
"188 278 OFFCURVE",
"231 273 OFFCURVE",
"265 273 CURVE SMOOTH",
"406 273 OFFCURVE",
"519 375 OFFCURVE",
"519 502 CURVE SMOOTH",
"519 588 OFFCURVE",
"458 641 OFFCURVE",
"358 641 CURVE SMOOTH",
"156 641 LINE SMOOTH",
"144 641 OFFCURVE",
"140 637 OFFCURVE",
"138 623 CURVE",
"208 607 LINE",
"200 619 LINE",
"105 23 LINE",
"119 34 LINE",
"56 20 LINE SMOOTH",
"44 17 OFFCURVE",
"39 11 OFFCURVE",
"38 0 CURVE",
"189 0 LINE SMOOTH",
"202 0 OFFCURVE",
"206 4 OFFCURVE",
"208 18 CURVE",
"128 34 LINE",
"136 22 LINE",
"231 621 LINE",
"220 609 LINE",
"252 617 OFFCURVE",
"301 623 OFFCURVE",
"333 623 CURVE SMOOTH",
"428 623 OFFCURVE",
"479 577 OFFCURVE",
"479 490 CURVE SMOOTH",
"479 373 OFFCURVE",
"393 290 OFFCURVE",
"272 290 CURVE SMOOTH",
"230 290 OFFCURVE",
"185 297 OFFCURVE",
"172 302 CURVE"
);
}
);
width = 527;
},
{
anchors = (
{
name = bottom;
position = "{271, 0}";
},
{
name = top;
position = "{363, 641}";
}
);
background = {
paths = (
{
closed = 1;
nodes = (
"247 242 LINE",
"281 229 OFFCURVE",
"315 223 OFFCURVE",
"346 223 CURVE SMOOTH",
"471 223 OFFCURVE",
"579 320 OFFCURVE",
"600 449 CURVE SMOOTH",
"618 566 OFFCURVE",
"553 641 OFFCURVE",
"435 641 CURVE SMOOTH",
"120 641 LINE",
"102 617 OFFCURVE",
"93 594 OFFCURVE",
"88 565 CURVE",
"169 541 LINE",
"152 566 LINE",
"74 70 LINE",
"97 96 LINE",
"24 69 LINE SMOOTH",
"14 65 OFFCURVE",
"5 39 OFFCURVE",
"-1 0 CURVE",
"292 0 LINE",
"309 25 OFFCURVE",
"317 46 OFFCURVE",
"322 76 CURVE",
"222 100 LINE",
"245 57 LINE",
"323 549 LINE",
"298 531 LINE",
"327 538 OFFCURVE",
"342 541 OFFCURVE",
"356 541 CURVE SMOOTH",
"410 541 OFFCURVE",
"430 510 OFFCURVE",
"419 442 CURVE SMOOTH",
"407 368 OFFCURVE",
"373 327 OFFCURVE",
"323 327 CURVE SMOOTH",
"304 327 OFFCURVE",
"280 333 OFFCURVE",
"266 340 CURVE"
);
}
);
};
layerId = "7B53E429-1BF0-49C5-9F57-63EEBF39C6CC";
paths = (
{
closed = 1;
nodes = (
"247 242 LINE",
"280 230 OFFCURVE",
"314 223 OFFCURVE",
"346 223 CURVE SMOOTH",
"494 223 OFFCURVE",
"603 334 OFFCURVE",
"603 483 CURVE SMOOTH",
"603 582 OFFCURVE",
"541 641 OFFCURVE",
"435 641 CURVE SMOOTH",
"120 641 LINE",
"103 618 OFFCURVE",
"93 595 OFFCURVE",
"88 565 CURVE",
"169 541 LINE",
"152 566 LINE",
"74 70 LINE",
"97 96 LINE",
"24 69 LINE SMOOTH",
"15 65 OFFCURVE",
"4 37 OFFCURVE",
"-1 0 CURVE",
"292 0 LINE",
"309 24 OFFCURVE",
"317 45 OFFCURVE",
"322 76 CURVE",
"222 100 LINE",
"245 57 LINE",
"323 549 LINE",
"298 531 LINE",
"330 539 OFFCURVE",
"343 541 OFFCURVE",
"356 541 CURVE SMOOTH",
"402 541 OFFCURVE",
"422 519 OFFCURVE",
"422 470 CURVE SMOOTH",
"422 386 OFFCURVE",
"381 327 OFFCURVE",
"323 327 CURVE SMOOTH",
"305 327 OFFCURVE",
"281 333 OFFCURVE",
"266 340 CURVE"
);
}
);
width = 618;
}
);
leftKerningGroup = H;
leftMetricsKey = H;
rightKerningGroup = P;
unicode = 0050;
},
{
color = 4;
glyphname = Thorn;
layers = (
{
components = (
{
name = I;
}
);
layerId = "A9E90CC4-8E6C-407E-8E88-16513AA8D05B";
paths = (
{
closed = 1;
nodes = (
"215 463 LINE",
"247 471 OFFCURVE",
"284 475 OFFCURVE",
"310 475 CURVE SMOOTH",
"388 475 OFFCURVE",
"429 437 OFFCURVE",
"429 363 CURVE SMOOTH",
"429 257 OFFCURVE",
"358 183 OFFCURVE",
"258 183 CURVE SMOOTH",
"224 183 OFFCURVE",
"186 189 OFFCURVE",
"173 195 CURVE",
"164 150 LINE",
"188 142 OFFCURVE",
"228 136 OFFCURVE",
"261 136 CURVE SMOOTH",
"405 136 OFFCURVE",
"516 241 OFFCURVE",
"516 376 CURVE SMOOTH",
"516 466 OFFCURVE",
"455 521 OFFCURVE",
"353 521 CURVE SMOOTH",
"224 521 LINE"
);
}
);
width = 546;
},
{
components = (
{
name = I;
}
);
layerId = "E1BF09ED-4302-4AD3-9939-8FDA35DE0FE8";
paths = (
{
closed = 1;
nodes = (
"198 479 LINE",
"230 487 OFFCURVE",
"279 493 OFFCURVE",
"311 493 CURVE SMOOTH",
"406 493 OFFCURVE",
"457 447 OFFCURVE",
"457 360 CURVE SMOOTH",
"457 243 OFFCURVE",
"371 160 OFFCURVE",
"250 160 CURVE SMOOTH",
"208 160 OFFCURVE",
"163 167 OFFCURVE",
"150 172 CURVE",
"146 155 LINE",
"166 148 OFFCURVE",
"209 143 OFFCURVE",
"243 143 CURVE SMOOTH",
"384 143 OFFCURVE",
"497 245 OFFCURVE",
"497 372 CURVE SMOOTH",
"497 458 OFFCURVE",
"436 511 OFFCURVE",
"336 511 CURVE SMOOTH",
"202 511 LINE"
);
}
);
width = 526;
},
{
components = (
{
name = I;
}
);
layerId = "7B53E429-1BF0-49C5-9F57-63EEBF39C6CC";
paths = (
{
closed = 1;
nodes = (
"273 424 LINE",
"305 432 OFFCURVE",
"318 434 OFFCURVE",
"331 434 CURVE SMOOTH",
"377 434 OFFCURVE",
"397 412 OFFCURVE",
"397 363 CURVE SMOOTH",
"397 279 OFFCURVE",
"356 220 OFFCURVE",
"298 220 CURVE SMOOTH",
"280 220 OFFCURVE",
"256 226 OFFCURVE",
"241 233 CURVE",
"222 135 LINE",
"255 123 OFFCURVE",
"289 116 OFFCURVE",
"321 116 CURVE SMOOTH",
"469 116 OFFCURVE",
"578 227 OFFCURVE",
"578 376 CURVE SMOOTH",
"578 475 OFFCURVE",
"516 534 OFFCURVE",
"410 534 CURVE SMOOTH",
"290 534 LINE"
);
}
);
width = 610;
}
);
leftKerningGroup = H;
leftMetricsKey = H;
rightKerningGroup = P;
rightMetricsKey = P;
unicode = 00DE;
},
{
color = 4;
glyphname = Q;
layers = (
{
background = {
components = (
{
name = O;
}
);
paths = (
{
closed = 1;
nodes = (
"512 -182 OFFCURVE",
"553 -153 OFFCURVE",
"575 -105 CURVE",
"489 -105 OFFCURVE",
"382 -49 OFFCURVE",
"281 27 CURVE",
"254 3 LINE",
"361 -128 OFFCURVE",
"424 -182 OFFCURVE",
"476 -182 CURVE SMOOTH"
);
}
);
};
components = (
{
name = O;
}
);
layerId = "A9E90CC4-8E6C-407E-8E88-16513AA8D05B";
paths = (
{
closed = 1;
nodes = (
"512 -182 OFFCURVE",
"553 -153 OFFCURVE",
"575 -105 CURVE",
"489 -105 OFFCURVE",
"382 -49 OFFCURVE",
"281 27 CURVE",
"254 3 LINE",
"361 -128 OFFCURVE",
"424 -182 OFFCURVE",
"476 -182 CURVE SMOOTH"
);
}
);
width = 649;
},
{
components = (
{
name = O;
}
);
layerId = "E1BF09ED-4302-4AD3-9939-8FDA35DE0FE8";
paths = (
{
closed = 1;
nodes = (
"514 -166 OFFCURVE",
"536 -151 OFFCURVE",
"551 -121 CURVE",
"465 -121 OFFCURVE",
"342 -61 OFFCURVE",
"282 10 CURVE",
"272 -7 LINE",
"335 -98 OFFCURVE",
"427 -166 OFFCURVE",
"488 -166 CURVE SMOOTH"
);
}
);
width = 647;
},
{
components = (
{
name = O;
}
);
layerId = "7B53E429-1BF0-49C5-9F57-63EEBF39C6CC";
paths = (
{
closed = 1;
nodes = (
"481 -207 OFFCURVE",
"543 -157 OFFCURVE",
"579 -73 CURVE",
"489 -73 OFFCURVE",
"376 -12 OFFCURVE",
"267 64 CURVE",
"217 14 LINE",
"314 -163 OFFCURVE",
"377 -207 OFFCURVE",
"427 -207 CURVE SMOOTH"
);
}
);
width = 627;
}
);
leftKerningGroup = O;
leftMetricsKey = O;
rightKerningGroup = Q;
unicode = 0051;
},
{
color = 4;
glyphname = R;
layers = (
{
anchors = (
{
name = bottom;
position = "{285, 0}";
},
{
name = top;
position = "{338, 641}";
}
);
guideLines = (
{
angle = 101.5442;
position = "{97, 250}";
}
);
layerId = "A9E90CC4-8E6C-407E-8E88-16513AA8D05B";
paths = (
{
closed = 1;
nodes = (
"523 -11 OFFCURVE",
"548 3 OFFCURVE",
"562 18 CURVE",
"484 63 OFFCURVE",
"403 201 OFFCURVE",
"376 321 CURVE",
"311 300 LINE",
"349 102 OFFCURVE",
"429 -11 OFFCURVE",
"494 -11 CURVE SMOOTH"
);
},
{
closed = 1;
nodes = (
"195 293 LINE",
"219 284 OFFCURVE",
"259 279 OFFCURVE",
"292 279 CURVE SMOOTH",
"432 279 OFFCURVE",
"541 373 OFFCURVE",
"541 496 CURVE SMOOTH",
"541 586 OFFCURVE",
"482 641 OFFCURVE",
"384 641 CURVE SMOOTH",
"144 641 LINE SMOOTH",
"130 633 OFFCURVE",
"124 623 OFFCURVE",
"121 603 CURVE",
"195 585 LINE",
"184 601 LINE",
"95 39 LINE",
"112 55 LINE",
"45 37 LINE SMOOTH",
"34 33 OFFCURVE",
"27 20 OFFCURVE",
"25 0 CURVE",
"224 0 LINE SMOOTH",
"238 8 OFFCURVE",
"244 18 OFFCURVE",
"247 38 CURVE",
"160 56 LINE",
"173 34 LINE",
"262 597 LINE",
"246 583 LINE",
"278 591 OFFCURVE",
"315 595 OFFCURVE",
"341 595 CURVE SMOOTH",
"415 595 OFFCURVE",
"453 557 OFFCURVE",
"453 483 CURVE SMOOTH",
"453 391 OFFCURVE",
"385 325 OFFCURVE",
"289 325 CURVE SMOOTH",
"255 325 OFFCURVE",
"217 332 OFFCURVE",
"204 337 CURVE"
);
}
);
width = 612;
},
{
anchors = (
{
name = bottom;
position = "{276, 0}";
},
{
name = top;
position = "{332, 641}";
}
);
background = {
paths = (
{
closed = 1;
nodes = (
"189 0 LINE SMOOTH",
"202 0 OFFCURVE",
"206 4 OFFCURVE",
"208 18 CURVE",
"128 34 LINE",
"136 22 LINE",
"181 307 LINE",
"172 307 LINE",
"194 299 OFFCURVE",
"232 295 OFFCURVE",
"263 295 CURVE SMOOTH",
"403 295 OFFCURVE",
"495 391 OFFCURVE",
"510 485 CURVE SMOOTH",
"522 565 OFFCURVE",
"479 641 OFFCURVE",
"358 641 CURVE SMOOTH",
"156 641 LINE SMOOTH",
"144 641 OFFCURVE",
"140 637 OFFCURVE",
"138 623 CURVE",
"208 607 LINE",
"200 619 LINE",
"105 23 LINE",
"119 34 LINE",
"56 20 LINE SMOOTH",
"45 18 OFFCURVE",
"39 12 OFFCURVE",
"38 0 CURVE"
);
},
{
closed = 1;
nodes = (
"231 621 LINE",
"220 609 LINE",
"244 615 OFFCURVE",
"291 623 OFFCURVE",
"339 623 CURVE SMOOTH",
"433 623 OFFCURVE",
"484 565 OFFCURVE",
"469 468 CURVE SMOOTH",
"457 391 OFFCURVE",
"393 315 OFFCURVE",
"285 315 CURVE SMOOTH",
"240 315 OFFCURVE",
"193 320 OFFCURVE",
"175 329 CURVE",
"182 315 LINE"
);
},
{
closed = 1;
nodes = (
"513 -10 OFFCURVE",
"523 2 OFFCURVE",
"525 11 CURVE",
"475 32 OFFCURVE",
"391 157 OFFCURVE",
"322 313 CURVE",
"301 303 LINE",
"362 140 OFFCURVE",
"460 -10 OFFCURVE",
"498 -10 CURVE SMOOTH"
);
}
);
};
guideLines = (
{
angle = 101.5442;
position = "{440, 11}";
}
);
layerId = "E1BF09ED-4302-4AD3-9939-8FDA35DE0FE8";
paths = (
{
closed = 1;
nodes = (
"517 -10 OFFCURVE",
"530 2 OFFCURVE",
"535 11 CURVE",
"448 47 OFFCURVE",
"352 198 OFFCURVE",
"326 313 CURVE",
"301 303 LINE",
"347 140 OFFCURVE",
"445 -10 OFFCURVE",
"498 -10 CURVE SMOOTH"
);
},
{
closed = 1;
nodes = (
"168 309 LINE",
"188 302 OFFCURVE",
"231 297 OFFCURVE",
"265 297 CURVE SMOOTH",
"400 297 OFFCURVE",
"509 388 OFFCURVE",
"509 502 CURVE SMOOTH",
"509 588 OFFCURVE",
"452 641 OFFCURVE",
"358 641 CURVE SMOOTH",
"156 641 LINE SMOOTH",
"144 641 OFFCURVE",
"140 637 OFFCURVE",
"138 623 CURVE",
"208 607 LINE",
"200 619 LINE",
"105 23 LINE",
"119 34 LINE",
"56 20 LINE SMOOTH",
"44 17 OFFCURVE",
"39 11 OFFCURVE",
"38 0 CURVE",
"189 0 LINE SMOOTH",
"202 0 OFFCURVE",
"206 4 OFFCURVE",
"208 18 CURVE",
"128 34 LINE",
"136 22 LINE",
"231 621 LINE",
"220 609 LINE",
"252 617 OFFCURVE",
"301 623 OFFCURVE",
"333 623 CURVE SMOOTH",
"421 623 OFFCURVE",
"469 577 OFFCURVE",
"469 490 CURVE SMOOTH",
"469 387 OFFCURVE",
"387 314 OFFCURVE",
"272 314 CURVE SMOOTH",
"230 314 OFFCURVE",
"185 321 OFFCURVE",
"172 326 CURVE"
);
}
);
width = 590;
},
{
anchors = (
{
name = bottom;
position = "{283, 0}";
},
{
name = top;
position = "{350, 641}";
}
);
background = {
paths = (
{
closed = 1;
nodes = (
"282 0 LINE",
"300 25 OFFCURVE",
"308 46 OFFCURVE",
"313 76 CURVE",
"213 100 LINE",
"245 57 LINE",
"277 262 LINE",
"250 262 LINE",
"284 249 OFFCURVE",
"318 243 OFFCURVE",
"350 243 CURVE SMOOTH",
"474 243 OFFCURVE",
"582 336 OFFCURVE",
"601 459 CURVE SMOOTH",
"619 570 OFFCURVE",
"553 641 OFFCURVE",
"435 641 CURVE SMOOTH",
"120 641 LINE",
"102 617 OFFCURVE",
"93 594 OFFCURVE",
"88 565 CURVE",
"169 541 LINE",
"152 566 LINE",
"74 70 LINE",
"97 96 LINE",
"24 69 LINE SMOOTH",
"14 65 OFFCURVE",
"5 39 OFFCURVE",
"-1 0 CURVE"
);
},
{
closed = 1;
nodes = (
"323 549 LINE",
"298 531 LINE",
"327 538 OFFCURVE",
"342 541 OFFCURVE",
"356 541 CURVE SMOOTH",
"410 541 OFFCURVE",
"431 514 OFFCURVE",
"421 452 CURVE SMOOTH",
"410 384 OFFCURVE",
"376 347 OFFCURVE",
"326 347 CURVE SMOOTH",
"307 347 OFFCURVE",
"283 353 OFFCURVE",
"269 360 CURVE",
"289 335 LINE"
);
},
{
closed = 1;
nodes = (
"521 -12 OFFCURVE",
"569 5 OFFCURVE",
"615 33 CURVE",
"554 93 OFFCURVE",
"502 207 OFFCURVE",
"473 337 CURVE",
"330 293 LINE",
"352 28 OFFCURVE",
"398 -12 OFFCURVE",
"485 -12 CURVE SMOOTH"
);
}
);
};
guideLines = (
{
angle = 101.5442;
position = "{582, 459}";
}
);
layerId = "7B53E429-1BF0-49C5-9F57-63EEBF39C6CC";
paths = (
{
closed = 1;
nodes = (
"521 -12 OFFCURVE",
"569 5 OFFCURVE",
"615 33 CURVE",
"554 93 OFFCURVE",
"502 207 OFFCURVE",
"473 337 CURVE",
"330 293 LINE",
"352 28 OFFCURVE",
"398 -12 OFFCURVE",
"485 -12 CURVE SMOOTH"
);
},
{
closed = 1;
nodes = (
"247 262 LINE",
"280 250 OFFCURVE",
"314 243 OFFCURVE",
"346 243 CURVE SMOOTH",
"494 243 OFFCURVE",
"603 345 OFFCURVE",
"603 483 CURVE SMOOTH",
"603 582 OFFCURVE",
"541 641 OFFCURVE",
"435 641 CURVE SMOOTH",
"120 641 LINE",
"103 618 OFFCURVE",
"93 595 OFFCURVE",
"88 565 CURVE",
"169 541 LINE",
"152 566 LINE",
"74 70 LINE",
"97 96 LINE",
"24 69 LINE SMOOTH",
"15 65 OFFCURVE",
"4 37 OFFCURVE",
"-1 0 CURVE",
"292 0 LINE",
"309 24 OFFCURVE",
"317 45 OFFCURVE",
"322 76 CURVE",
"222 100 LINE",
"245 57 LINE",
"323 549 LINE",
"298 531 LINE",
"330 539 OFFCURVE",
"343 541 OFFCURVE",
"356 541 CURVE SMOOTH",
"402 541 OFFCURVE",
"422 519 OFFCURVE",
"422 470 CURVE SMOOTH",
"422 398 OFFCURVE",
"381 347 OFFCURVE",
"323 347 CURVE SMOOTH",
"305 347 OFFCURVE",
"281 353 OFFCURVE",
"266 360 CURVE"
);
}
);
width = 655;
}
);
leftKerningGroup = H;
leftMetricsKey = H;
rightKerningGroup = R;
rightMetricsKey = "=H*.3";
unicode = 0052;
},
{
color = 4;
glyphname = S;
layers = (
{
anchors = (
{
name = bottom;
position = "{203, 0}";
},
{
name = top;
position = "{304, 641}";
}
);
background = {
paths = (
{
closed = 1;
nodes = (
"317 -12 OFFCURVE",
"405 76 OFFCURVE",
"421 178 CURVE SMOOTH",
"440 298 OFFCURVE",
"355 335 OFFCURVE",
"277 369 CURVE SMOOTH",
"214 398 OFFCURVE",
"156 426 OFFCURVE",
"168 500 CURVE SMOOTH",
"179 568 OFFCURVE",
"223 608 OFFCURVE",
"285 608 CURVE SMOOTH",
"355 608 OFFCURVE",
"383 572 OFFCURVE",
"396 553 CURVE",
"381 590 LINE",
"381 484 LINE SMOOTH",
"381 471 OFFCURVE",
"408 464 OFFCURVE",
"422 463 CURVE",
"461 599 LINE",
"431 619 OFFCURVE",
"375 655 OFFCURVE",
"293 655 CURVE SMOOTH",
"180 655 OFFCURVE",
"106 575 OFFCURVE",
"91 476 CURVE SMOOTH",
"73 362 OFFCURVE",
"151 327 OFFCURVE",
"224 295 CURVE SMOOTH",
"286 265 OFFCURVE",
"345 237 OFFCURVE",
"332 157 CURVE SMOOTH",
"320 81 OFFCURVE",
"264 35 OFFCURVE",
"189 35 CURVE SMOOTH",
"118 35 OFFCURVE",
"75 77 OFFCURVE",
"63 90 CURVE",
"78 56 LINE",
"88 198 LINE",
"85 200 OFFCURVE",
"81 201 OFFCURVE",
"76 201 CURVE SMOOTH",
"62 201 OFFCURVE",
"43 194 OFFCURVE",
"33 185 CURVE",
"-3 50 LINE",
"31 28 OFFCURVE",
"101 -12 OFFCURVE",
"195 -12 CURVE SMOOTH"
);
}
);
};
guideLines = (
{
angle = 59.0362;
position = "{36, 296}";
}
);
layerId = "A9E90CC4-8E6C-407E-8E88-16513AA8D05B";
paths = (
{
closed = 1;
nodes = (
"330 -12 OFFCURVE",
"430 79 OFFCURVE",
"430 195 CURVE SMOOTH",
"430 267 OFFCURVE",
"395 312 OFFCURVE",
"293 367 CURVE SMOOTH",
"192 422 OFFCURVE",
"172 442 OFFCURVE",
"172 491 CURVE SMOOTH",
"172 561 OFFCURVE",
"225 610 OFFCURVE",
"301 610 CURVE SMOOTH",
"351 610 OFFCURVE",
"398 590 OFFCURVE",
"420 559 CURVE",
"407 597 LINE",
"402 497 LINE SMOOTH",
"402 488 OFFCURVE",
"415 480 OFFCURVE",
"434 480 CURVE",
"469 611 LINE",
"419 639 OFFCURVE",
"360 655 OFFCURVE",
"309 655 CURVE SMOOTH",
"190 655 OFFCURVE",
"102 570 OFFCURVE",
"102 455 CURVE SMOOTH",
"102 386 OFFCURVE",
"130 351 OFFCURVE",
"233 294 CURVE SMOOTH",
"328 241 OFFCURVE",
"351 215 OFFCURVE",
"351 165 CURVE SMOOTH",
"351 93 OFFCURVE",
"288 33 OFFCURVE",
"209 33 CURVE SMOOTH",
"160 33 OFFCURVE",
"100 55 OFFCURVE",
"68 86 CURVE",
"80 56 LINE",
"93 185 LINE",
"90 188 OFFCURVE",
"84 189 OFFCURVE",
"78 189 CURVE SMOOTH",
"67 189 OFFCURVE",
"57 185 OFFCURVE",
"50 175 CURVE",
"11 38 LINE",
"65 9 OFFCURVE",
"143 -12 OFFCURVE",
"203 -12 CURVE SMOOTH"
);
}
);
width = 506;
},
{
anchors = (
{
name = bottom;
position = "{193, 0}";
},
{
name = top;
position = "{294, 641}";
}
);
background = {
paths = (
{
closed = 1;
nodes = (
"298 -12 OFFCURVE",
"384 62 OFFCURVE",
"401 169 CURVE SMOOTH",
"414 248 OFFCURVE",
"381 294 OFFCURVE",
"274 347 CURVE SMOOTH",
"161 403 OFFCURVE",
"131 441 OFFCURVE",
"142 512 CURVE SMOOTH",
"154 587 OFFCURVE",
"212 637 OFFCURVE",
"289 637 CURVE SMOOTH",
"338 637 OFFCURVE",
"389 617 OFFCURVE",
"414 588 CURVE",
"407 611 LINE",
"400 519 LINE SMOOTH",
"399 511 OFFCURVE",
"406 504 OFFCURVE",
"415 504 CURVE",
"445 614 LINE",
"389 642 OFFCURVE",
"340 655 OFFCURVE",
"298 655 CURVE SMOOTH",
"201 655 OFFCURVE",
"127 592 OFFCURVE",
"112 497 CURVE SMOOTH",
"99 418 OFFCURVE",
"132 373 OFFCURVE",
"240 318 CURVE SMOOTH",
"347 264 OFFCURVE",
"376 227 OFFCURVE",
"365 156 CURVE SMOOTH",
"351 69 OFFCURVE",
"281 7 OFFCURVE",
"199 7 CURVE SMOOTH",
"148 7 OFFCURVE",
"79 30 OFFCURVE",
"45 58 CURVE",
"52 17 LINE",
"70 159 LINE",
"68 161 OFFCURVE",
"62 162 OFFCURVE",
"59 162 CURVE SMOOTH",
"52 162 OFFCURVE",
"49 158 OFFCURVE",
"44 147 CURVE",
"17 35 LINE",
"71 7 OFFCURVE",
"143 -12 OFFCURVE",
"190 -12 CURVE SMOOTH"
);
}
);
};
guideLines = (
{
angle = 22.0679;
position = "{386, 176}";
}
);
layerId = "E1BF09ED-4302-4AD3-9939-8FDA35DE0FE8";
paths = (
{
closed = 1;
nodes = (
"308 -12 OFFCURVE",
"404 77 OFFCURVE",
"404 183 CURVE SMOOTH",
"404 249 OFFCURVE",
"370 292 OFFCURVE",
"273 346 CURVE SMOOTH",
"162 409 OFFCURVE",
"140 432 OFFCURVE",
"140 488 CURVE SMOOTH",
"140 575 OFFCURVE",
"203 637 OFFCURVE",
"289 637 CURVE SMOOTH",
"338 637 OFFCURVE",
"389 617 OFFCURVE",
"414 588 CURVE",
"407 611 LINE",
"400 519 LINE SMOOTH",
"399 511 OFFCURVE",
"407 504 OFFCURVE",
"415 504 CURVE",
"445 614 LINE",
"391 641 OFFCURVE",
"341 655 OFFCURVE",
"298 655 CURVE SMOOTH",
"192 655 OFFCURVE",
"109 574 OFFCURVE",
"109 469 CURVE SMOOTH",
"109 407 OFFCURVE",
"133 379 OFFCURVE",
"240 317 CURVE SMOOTH",
"337 261 OFFCURVE",
"367 226 OFFCURVE",
"367 168 CURVE SMOOTH",
"367 81 OFFCURVE",
"290 7 OFFCURVE",
"199 7 CURVE SMOOTH",
"148 7 OFFCURVE",
"79 30 OFFCURVE",
"45 58 CURVE",
"54 31 LINE",
"70 159 LINE",
"68 161 OFFCURVE",
"63 162 OFFCURVE",
"59 162 CURVE SMOOTH",
"52 162 OFFCURVE",
"49 159 OFFCURVE",
"44 147 CURVE",
"17 35 LINE",
"71 7 OFFCURVE",
"142 -12 OFFCURVE",
"194 -12 CURVE SMOOTH"
);
}
);
width = 486;
},
{
anchors = (
{
name = bottom;
position = "{222, 0}";
},
{
name = top;
position = "{323, 641}";
}
);
background = {
paths = (
{
closed = 1;
nodes = (
"362 -12 OFFCURVE",
"457 61 OFFCURVE",
"477 184 CURVE SMOOTH",
"493 284 OFFCURVE",
"458 339 OFFCURVE",
"332 407 CURVE SMOOTH",
"249 453 OFFCURVE",
"232 469 OFFCURVE",
"237 501 CURVE SMOOTH",
"243 537 OFFCURVE",
"275 558 OFFCURVE",
"323 558 CURVE SMOOTH",
"375 558 OFFCURVE",
"417 537 OFFCURVE",
"432 503 CURVE",
"408 570 LINE",
"407 455 LINE SMOOTH",
"407 442 OFFCURVE",
"432 434 OFFCURVE",
"472 434 CURVE",
"517 604 LINE",
"475 634 OFFCURVE",
"397 655 OFFCURVE",
"330 655 CURVE SMOOTH",
"203 655 OFFCURVE",
"111 583 OFFCURVE",
"93 470 CURVE SMOOTH",
"77 367 OFFCURVE",
"110 309 OFFCURVE",
"220 248 CURVE SMOOTH",
"312 199 OFFCURVE",
"326 183 OFFCURVE",
"320 145 CURVE SMOOTH",
"314 110 OFFCURVE",
"277 85 OFFCURVE",
"231 85 CURVE SMOOTH",
"183 85 OFFCURVE",
"141 104 OFFCURVE",
"112 140 CURVE",
"130 106 LINE",
"138 237 LINE",
"132 240 OFFCURVE",
"123 241 OFFCURVE",
"112 241 CURVE SMOOTH",
"94 241 OFFCURVE",
"74 236 OFFCURVE",
"62 229 CURVE",
"0 45 LINE",
"52 12 OFFCURVE",
"145 -12 OFFCURVE",
"222 -12 CURVE SMOOTH"
);
}
);
};
guideLines = (
{
angle = 154.9037;
position = "{322, 407}";
},
{
angle = 22.0679;
position = "{321, 158}";
},
{
angle = 153.189;
position = "{332, 407}";
}
);
layerId = "7B53E429-1BF0-49C5-9F57-63EEBF39C6CC";
paths = (
{
closed = 1;
nodes = (
"374 -12 OFFCURVE",
"481 83 OFFCURVE",
"481 218 CURVE SMOOTH",
"481 303 OFFCURVE",
"443 351 OFFCURVE",
"332 407 CURVE SMOOTH",
"250 448 OFFCURVE",
"236 461 OFFCURVE",
"236 497 CURVE SMOOTH",
"236 535 OFFCURVE",
"269 558 OFFCURVE",
"324 558 CURVE SMOOTH",
"375 558 OFFCURVE",
"417 537 OFFCURVE",
"432 503 CURVE",
"408 570 LINE",
"407 455 LINE SMOOTH",
"407 442 OFFCURVE",
"432 434 OFFCURVE",
"472 434 CURVE",
"517 604 LINE",
"475 634 OFFCURVE",
"397 655 OFFCURVE",
"330 655 CURVE SMOOTH",
"187 655 OFFCURVE",
"89 562 OFFCURVE",
"89 428 CURVE SMOOTH",
"89 345 OFFCURVE",
"124 297 OFFCURVE",
"220 248 CURVE SMOOTH",
"309 203 OFFCURVE",
"321 193 OFFCURVE",
"321 160 CURVE SMOOTH",
"321 116 OFFCURVE",
"283 85 OFFCURVE",
"228 85 CURVE SMOOTH",
"183 85 OFFCURVE",
"140 105 OFFCURVE",
"112 140 CURVE",
"130 106 LINE",
"138 237 LINE",
"134 240 OFFCURVE",
"126 241 OFFCURVE",
"114 241 CURVE SMOOTH",
"95 241 OFFCURVE",
"74 236 OFFCURVE",
"62 229 CURVE",
"0 45 LINE",
"52 12 OFFCURVE",
"145 -12 OFFCURVE",
"222 -12 CURVE SMOOTH"
);
}
);
width = 545;
}
);
leftKerningGroup = S;
rightKerningGroup = S;
unicode = 0053;
},
{
color = 1;
glyphname = Scaron;
layers = (
{
background = {
paths = (
{
closed = 1;
nodes = (
"90 858 LINE",
"81 853 OFFCURVE",
"76 845 OFFCURVE",
"76 836 CURVE SMOOTH",
"76 833 OFFCURVE",
"77 830 OFFCURVE",
"77 830 CURVE",
"214 734 LINE SMOOTH",
"232 721 OFFCURVE",
"247 715 OFFCURVE",
"256 715 CURVE SMOOTH",
"266 715 OFFCURVE",
"279 718 OFFCURVE",
"302 734 CURVE SMOOTH",
"439 830 LINE",
"439 830 OFFCURVE",
"440 833 OFFCURVE",
"440 836 CURVE SMOOTH",
"440 845 OFFCURVE",
"435 853 OFFCURVE",
"426 858 CURVE",
"258 786 LINE"
);
},
{
closed = 1;
nodes = (
"113 199 OFFCURVE",
"110 199 OFFCURVE",
"107 199 CURVE SMOOTH",
"83 199 OFFCURVE",
"70 196 OFFCURVE",
"59 185 CURVE",
"43 50 LINE",
"83 28 OFFCURVE",
"165 -12 OFFCURVE",
"266 -12 CURVE SMOOTH",
"400 -12 OFFCURVE",
"477 78 OFFCURVE",
"477 178 CURVE SMOOTH",
"477 405 OFFCURVE",
"150 346 OFFCURVE",
"150 500 CURVE SMOOTH",
"150 568 OFFCURVE",
"191 608 OFFCURVE",
"258 608 CURVE SMOOTH",
"322 608 OFFCURVE",
"353 581 OFFCURVE",
"368 570 CURVE",
"382 484 LINE SMOOTH",
"384 471 OFFCURVE",
"414 464 OFFCURVE",
"429 463 CURVE",
"448 599 LINE",
"413 617 OFFCURVE",
"346 655 OFFCURVE",
"258 655 CURVE SMOOTH",
"137 655 OFFCURVE",
"71 575 OFFCURVE",
"71 476 CURVE SMOOTH",
"71 257 OFFCURVE",
"385 322 OFFCURVE",
"385 157 CURVE SMOOTH",
"385 81 OFFCURVE",
"333 35 OFFCURVE",
"252 35 CURVE SMOOTH",
"190 35 OFFCURVE",
"142 63 OFFCURVE",
"127 76 CURVE",
"116 198 LINE"
);
}
);
};
components = (
{
name = S;
},
{
name = caroncomb.case;
transform = "{1, 0, 0, 1, 121, 198}";
}
);
layerId = "A9E90CC4-8E6C-407E-8E88-16513AA8D05B";
width = 506;
},
{
components = (
{
name = S;
},
{
name = caroncomb.case;
transform = "{1, 0, 0, 1, 131, 198}";
}
);
layerId = "E1BF09ED-4302-4AD3-9939-8FDA35DE0FE8";
width = 486;
},
{
components = (
{
name = S;
},
{
name = caroncomb.case;
transform = "{1, 0, 0, 1, 104, 198}";
}
);
layerId = "7B53E429-1BF0-49C5-9F57-63EEBF39C6CC";
width = 545;
}
);
leftKerningGroup = S;
rightKerningGroup = S;
unicode = 0160;
},
{
color = 4;
glyphname = Germandbls;
layers = (
{
layerId = "E1BF09ED-4302-4AD3-9939-8FDA35DE0FE8";
paths = (
{
closed = 1;
nodes = (
"467 -12 OFFCURVE",
"537 44 OFFCURVE",
"549 121 CURVE SMOOTH",
"559 182 OFFCURVE",
"530 219 OFFCURVE",
"440 260 CURVE SMOOTH",
"371 292 OFFCURVE",
"351 318 OFFCURVE",
"358 364 CURVE",
"547 501 LINE",
"561 589 OFFCURVE",
"506 655 OFFCURVE",
"417 655 CURVE SMOOTH",
"294 655 OFFCURVE",
"205 573 OFFCURVE",
"184 437 CURVE",
"193 445 LINE",
"117 443 LINE",
"109 437 OFFCURVE",
"107 432 OFFCURVE",
"105 421 CURVE",
"188 420 LINE",
"182 427 LINE",
"118 22 LINE",
"130 34 LINE",
"75 20 LINE SMOOTH",
"63 17 OFFCURVE",
"59 11 OFFCURVE",
"57 0 CURVE",
"146 0 LINE",
"207 389 LINE SMOOTH",
"234 559 OFFCURVE",
"295 632 OFFCURVE",
"406 632 CURVE SMOOTH",
"483 632 OFFCURVE",
"526 581 OFFCURVE",
"513 501 CURVE",
"324 351 LINE",
"316 300 OFFCURVE",
"346 262 OFFCURVE",
"418 230 CURVE SMOOTH",
"500 194 OFFCURVE",
"524 164 OFFCURVE",
"514 106 CURVE SMOOTH",
"504 42 OFFCURVE",
"459 4 OFFCURVE",
"393 4 CURVE SMOOTH",
"327 4 OFFCURVE",
"298 43 OFFCURVE",
"310 116 CURVE",
"306 124 OFFCURVE",
"300 128 OFFCURVE",
"292 128 CURVE SMOOTH",
"279 128 OFFCURVE",
"269 115 OFFCURVE",
"265 94 CURVE SMOOTH",
"256 34 OFFCURVE",
"308 -12 OFFCURVE",
"383 -12 CURVE SMOOTH"
);
}
);
width = 633;
},
{
background = {
paths = (
{
closed = 1;
nodes = (
"450 -12 OFFCURVE",
"524 46 OFFCURVE",
"537 128 CURVE SMOOTH",
"547 191 OFFCURVE",
"516 230 OFFCURVE",
"423 271 CURVE SMOOTH",
"359 299 OFFCURVE",
"341 319 OFFCURVE",
"347 354 CURVE",
"538 506 LINE",
"551 592 OFFCURVE",
"488 655 OFFCURVE",
"387 655 CURVE SMOOTH",
"259 655 OFFCURVE",
"157 564 OFFCURVE",
"136 430 CURVE",
"151 449 LINE",
"97 445 LINE",
"86 440 OFFCURVE",
"76 422 OFFCURVE",
"73 401 CURVE",
"141 397 LINE",
"133 412 LINE",
"76 51 LINE",
"87 66 LINE",
"22 39 LINE SMOOTH",
"11 35 OFFCURVE",
"4 23 OFFCURVE",
"1 0 CURVE",
"144 0 LINE",
"209 409 LINE SMOOTH",
"232 553 OFFCURVE",
"273 606 OFFCURVE",
"366 606 CURVE SMOOTH",
"429 606 OFFCURVE",
"466 563 OFFCURVE",
"456 501 CURVE",
"272 337 LINE",
"262 275 OFFCURVE",
"290 238 OFFCURVE",
"376 199 CURVE SMOOTH",
"445 169 OFFCURVE",
"460 150 OFFCURVE",
"453 105 CURVE SMOOTH",
"445 55 OFFCURVE",
"415 29 OFFCURVE",
"366 29 CURVE SMOOTH",
"313 29 OFFCURVE",
"291 61 OFFCURVE",
"301 124 CURVE",
"291 137 OFFCURVE",
"278 144 OFFCURVE",
"263 144 CURVE SMOOTH",
"237 144 OFFCURVE",
"220 127 OFFCURVE",
"215 98 CURVE SMOOTH",
"205 36 OFFCURVE",
"268 -12 OFFCURVE",
"357 -12 CURVE SMOOTH"
);
}
);
};
guideLines = (
{
angle = 76.6755;
position = "{396, 592}";
}
);
layerId = "A9E90CC4-8E6C-407E-8E88-16513AA8D05B";
paths = (
{
closed = 1;
nodes = (
"501 -12 OFFCURVE",
"578 45 OFFCURVE",
"591 129 CURVE SMOOTH",
"602 194 OFFCURVE",
"570 233 OFFCURVE",
"475 274 CURVE SMOOTH",
"403 305 OFFCURVE",
"384 326 OFFCURVE",
"390 365 CURVE",
"578 499 LINE",
"592 590 OFFCURVE",
"530 655 OFFCURVE",
"427 655 CURVE SMOOTH",
"290 655 OFFCURVE",
"184 567 OFFCURVE",
"162 431 CURVE",
"181 445 LINE",
"107 443 LINE",
"97 436 OFFCURVE",
"91 421 OFFCURVE",
"88 401 CURVE",
"170 399 LINE",
"159 413 LINE",
"101 42 LINE",
"113 55 LINE",
"57 37 LINE SMOOTH",
"45 33 OFFCURVE",
"40 21 OFFCURVE",
"36 0 CURVE",
"173 0 LINE",
"233 380 LINE SMOOTH",
"260 547 OFFCURVE",
"312 614 OFFCURVE",
"410 614 CURVE SMOOTH",
"478 614 OFFCURVE",
"514 568 OFFCURVE",
"502 493 CURVE",
"319 338 LINE",
"310 280 OFFCURVE",
"341 240 OFFCURVE",
"423 205 CURVE SMOOTH",
"503 172 OFFCURVE",
"524 148 OFFCURVE",
"516 101 CURVE SMOOTH",
"508 50 OFFCURVE",
"470 19 OFFCURVE",
"416 19 CURVE SMOOTH",
"357 19 OFFCURVE",
"332 54 OFFCURVE",
"344 125 CURVE",
"337 135 OFFCURVE",
"325 140 OFFCURVE",
"312 140 CURVE SMOOTH",
"288 140 OFFCURVE",
"270 122 OFFCURVE",
"265 95 CURVE SMOOTH",
"256 34 OFFCURVE",
"314 -12 OFFCURVE",
"400 -12 CURVE SMOOTH"
);
}
);
width = 652;
},
{
background = {
paths = (
{
closed = 0;
nodes = (
"409 723 LINE SMOOTH"
);
}
);
};
guideLines = (
{
angle = 76.6755;
position = "{467, 617}";
}
);
layerId = "7B53E429-1BF0-49C5-9F57-63EEBF39C6CC";
paths = (
{
closed = 1;
nodes = (
"571 -12 OFFCURVE",
"662 46 OFFCURVE",
"677 144 CURVE SMOOTH",
"689 218 OFFCURVE",
"652 261 OFFCURVE",
"546 301 CURVE SMOOTH",
"468 330 OFFCURVE",
"453 342 OFFCURVE",
"457 367 CURVE",
"642 496 LINE",
"657 592 OFFCURVE",
"581 655 OFFCURVE",
"449 655 CURVE SMOOTH",
"286 655 OFFCURVE",
"145 554 OFFCURVE",
"123 418 CURVE",
"159 446 LINE",
"90 442 LINE",
"77 434 OFFCURVE",
"63 399 OFFCURVE",
"58 362 CURVE",
"139 359 LINE",
"118 385 LINE",
"70 80 LINE",
"83 97 LINE",
"25 69 LINE SMOOTH",
"14 64 OFFCURVE",
"6 42 OFFCURVE",
"-1 0 CURVE",
"230 0 LINE",
"288 363 LINE SMOOTH",
"313 524 OFFCURVE",
"347 579 OFFCURVE",
"420 579 CURVE SMOOTH",
"471 579 OFFCURVE",
"494 542 OFFCURVE",
"484 478 CURVE",
"312 313 LINE",
"301 240 OFFCURVE",
"335 197 OFFCURVE",
"437 157 CURVE SMOOTH",
"512 128 OFFCURVE",
"527 116 OFFCURVE",
"523 91 CURVE SMOOTH",
"519 67 OFFCURVE",
"494 49 OFFCURVE",
"464 49 CURVE SMOOTH",
"418 49 OFFCURVE",
"403 77 OFFCURVE",
"414 144 CURVE",
"400 156 OFFCURVE",
"376 164 OFFCURVE",
"353 164 CURVE SMOOTH",
"309 164 OFFCURVE",
"275 137 OFFCURVE",
"269 97 CURVE SMOOTH",
"259 33 OFFCURVE",
"328 -12 OFFCURVE",
"436 -12 CURVE SMOOTH"
);
}
);
width = 712;
}
);
leftKerningGroup = Germandbls;
leftMetricsKey = H;
rightKerningGroup = Germandbls;
rightMetricsKey = s;
unicode = 1E9E;
},
{
color = 4;
glyphname = Schwa;
layers = (
{
background = {
paths = (
{
closed = 1;
nodes = (
"290 655 OFFCURVE",
"198 604 OFFCURVE",
"118 509 CURVE",
"129 494 LINE",
"201 578 OFFCURVE",
"277 623 OFFCURVE",
"350 623 CURVE SMOOTH",
"483 623 OFFCURVE",
"537 515 OFFCURVE",
"506 318 CURVE SMOOTH",
"473 110 OFFCURVE",
"392 12 OFFCURVE",
"248 12 CURVE SMOOTH",
"137 12 OFFCURVE",
"76 112 OFFCURVE",
"103 247 CURVE",
"88 239 LINE",
"508 248 LINE",
"511 265 LINE",
"91 265 LINE SMOOTH",
"79 265 OFFCURVE",
"69 246 OFFCURVE",
"64 217 CURVE SMOOTH",
"45 93 OFFCURVE",
"122 -12 OFFCURVE",
"233 -12 CURVE SMOOTH",
"400 -12 OFFCURVE",
"512 117 OFFCURVE",
"550 358 CURVE SMOOTH",
"578 536 OFFCURVE",
"511 655 OFFCURVE",
"382 655 CURVE SMOOTH"
);
}
);
};
guideLines = (
{
angle = 45;
position = "{533, 358}";
}
);
layerId = "E1BF09ED-4302-4AD3-9939-8FDA35DE0FE8";
paths = (
{
closed = 1;
nodes = (
"290 655 OFFCURVE",
"198 604 OFFCURVE",
"118 509 CURVE",
"129 494 LINE",
"201 578 OFFCURVE",
"277 623 OFFCURVE",
"350 623 CURVE SMOOTH",
"459 623 OFFCURVE",
"515 551 OFFCURVE",
"515 417 CURVE SMOOTH",
"515 209 OFFCURVE",
"437 12 OFFCURVE",
"248 12 CURVE SMOOTH",
"155 12 OFFCURVE",
"97 83 OFFCURVE",
"97 186 CURVE SMOOTH",
"97 205 OFFCURVE",
"99 226 OFFCURVE",
"103 247 CURVE",
"88 239 LINE",
"508 248 LINE",
"511 265 LINE",
"91 265 LINE SMOOTH",
"71 265 OFFCURVE",
"61 217 OFFCURVE",
"61 180 CURVE SMOOTH",
"61 73 OFFCURVE",
"133 -12 OFFCURVE",
"233 -12 CURVE SMOOTH",
"441 -12 OFFCURVE",
"556 209 OFFCURVE",
"556 435 CURVE SMOOTH",
"556 569 OFFCURVE",
"491 655 OFFCURVE",
"382 655 CURVE SMOOTH"
);
}
);
width = 595;
},
{
background = {
paths = (
{
closed = 1;
nodes = (
"270 655 OFFCURVE",
"178 605 OFFCURVE",
"96 513 CURVE",
"110 487 LINE",
"178 551 OFFCURVE",
"254 587 OFFCURVE",
"322 587 CURVE SMOOTH",
"443 587 OFFCURVE",
"503 476 OFFCURVE",
"475 300 CURVE SMOOTH",
"449 135 OFFCURVE",
"365 33 OFFCURVE",
"255 33 CURVE SMOOTH",
"152 33 OFFCURVE",
"109 120 OFFCURVE",
"139 267 CURVE",
"105 234 LINE",
"480 241 LINE",
"488 282 LINE",
"75 282 LINE SMOOTH",
"63 282 OFFCURVE",
"54 274 OFFCURVE",
"49 242 CURVE SMOOTH",
"27 103 OFFCURVE",
"108 -12 OFFCURVE",
"228 -12 CURVE SMOOTH",
"388 -12 OFFCURVE",
"539 143 OFFCURVE",
"570 341 CURVE SMOOTH",
"600 528 OFFCURVE",
"516 655 OFFCURVE",
"364 655 CURVE SMOOTH"
);
}
);
};
layerId = "A9E90CC4-8E6C-407E-8E88-16513AA8D05B";
paths = (
{
closed = 1;
nodes = (
"280 655 OFFCURVE",
"185 606 OFFCURVE",
"102 513 CURVE",
"114 488 LINE",
"184 558 OFFCURVE",
"255 596 OFFCURVE",
"323 596 CURVE SMOOTH",
"429 596 OFFCURVE",
"484 526 OFFCURVE",
"484 396 CURVE SMOOTH",
"484 217 OFFCURVE",
"416 29 OFFCURVE",
"255 29 CURVE SMOOTH",
"176 29 OFFCURVE",
"128 89 OFFCURVE",
"128 182 CURVE SMOOTH",
"128 205 OFFCURVE",
"131 230 OFFCURVE",
"136 258 CURVE",
"114 239 LINE",
"490 247 LINE",
"497 283 LINE",
"85 283 LINE SMOOTH",
"59 283 OFFCURVE",
"50 237 OFFCURVE",
"50 190 CURVE SMOOTH",
"50 74 OFFCURVE",
"126 -12 OFFCURVE",
"238 -12 CURVE SMOOTH",
"444 -12 OFFCURVE",
"575 201 OFFCURVE",
"575 423 CURVE SMOOTH",
"575 564 OFFCURVE",
"500 655 OFFCURVE",
"377 655 CURVE SMOOTH"
);
}
);
width = 601;
},
{
layerId = "7B53E429-1BF0-49C5-9F57-63EEBF39C6CC";
paths = (
{
closed = 1;
nodes = (
"261 656 OFFCURVE",
"159 609 OFFCURVE",
"71 522 CURVE",
"86 475 LINE",
"151 520 OFFCURVE",
"213 542 OFFCURVE",
"269 542 CURVE SMOOTH",
"369 542 OFFCURVE",
"423 477 OFFCURVE",
"423 356 CURVE SMOOTH",
"423 232 OFFCURVE",
"375 62 OFFCURVE",
"268 62 CURVE SMOOTH",
"216 62 OFFCURVE",
"190 100 OFFCURVE",
"190 175 CURVE SMOOTH",
"190 204 OFFCURVE",
"194 239 OFFCURVE",
"202 279 CURVE",
"164 238 LINE",
"456 244 LINE",
"469 319 LINE",
"73 319 LINE SMOOTH",
"35 319 OFFCURVE",
"27 275 OFFCURVE",
"27 210 CURVE SMOOTH",
"27 76 OFFCURVE",
"111 -12 OFFCURVE",
"248 -12 CURVE SMOOTH",
"449 -12 OFFCURVE",
"612 184 OFFCURVE",
"612 398 CURVE SMOOTH",
"612 553 OFFCURVE",
"517 656 OFFCURVE",
"366 656 CURVE SMOOTH"
);
}
);
width = 613;
}
);
leftKerningGroup = O;
leftMetricsKey = O;
rightKerningGroup = O;
rightMetricsKey = O;
unicode = 018F;
},
{
color = 4;
glyphname = T;
layers = (
{
anchors = (
{
name = bottom;
position = "{218, 0}";
},
{
name = center;
position = "{269, 321}";
},
{
name = top;
position = "{319, 641}";
}
);
background = {
paths = (
{
closed = 1;
nodes = (
"365 0 LINE",
"381 11 OFFCURVE",
"386 19 OFFCURVE",
"390 46 CURVE",
"292 69 LINE",
"299 57 LINE",
"383 589 LINE",
"372 578 LINE",
"545 596 LINE",
"534 605 LINE",
"550 494 LINE SMOOTH",
"552 482 OFFCURVE",
"569 478 OFFCURVE",
"583 478 CURVE",
"609 641 LINE",
"94 641 LINE",
"68 478 LINE",
"83 478 OFFCURVE",
"101 482 OFFCURVE",
"107 494 CURVE SMOOTH",
"158 605 LINE",
"145 596 LINE",
"311 578 LINE",
"303 589 LINE",
"218 52 LINE",
"230 66 LINE",
"148 39 LINE SMOOTH",
"137 35 OFFCURVE",
"130 16 OFFCURVE",
"127 0 CURVE"
);
}
);
};
layerId = "A9E90CC4-8E6C-407E-8E88-16513AA8D05B";
paths = (
{
closed = 1;
nodes = (
"331 0 LINE SMOOTH",
"346 10 OFFCURVE",
"350 20 OFFCURVE",
"354 38 CURVE",
"250 58 LINE",
"263 40 LINE",
"351 598 LINE",
"339 585 LINE",
"508 599 LINE",
"497 608 LINE",
"504 515 LINE SMOOTH",
"505 503 OFFCURVE",
"515 498 OFFCURVE",
"536 498 CURVE",
"559 641 LINE",
"79 641 LINE",
"56 498 LINE",
"77 498 OFFCURVE",
"87 503 OFFCURVE",
"93 515 CURVE SMOOTH",
"130 608 LINE",
"116 599 LINE",
"281 585 LINE",
"272 598 LINE",
"184 39 LINE",
"202 59 LINE",
"120 37 LINE SMOOTH",
"109 34 OFFCURVE",
"103 21 OFFCURVE",
"99 0 CURVE"
);
}
);
width = 505;
},
{
anchors = (
{
name = bottom;
position = "{203, 0}";
},
{
name = center;
position = "{254, 321}";
},
{
name = top;
position = "{305, 641}";
}
);
layerId = "E1BF09ED-4302-4AD3-9939-8FDA35DE0FE8";
paths = (
{
closed = 1;
nodes = (
"286 0 LINE SMOOTH",
"299 0 OFFCURVE",
"302 4 OFFCURVE",
"305 18 CURVE",
"213 34 LINE",
"222 22 LINE",
"317 625 LINE",
"305 612 LINE",
"499 625 LINE",
"487 634 LINE",
"493 543 LINE SMOOTH",
"493 531 OFFCURVE",
"501 527 OFFCURVE",
"509 527 CURVE",
"527 641 LINE",
"81 641 LINE",
"63 527 LINE",
"71 527 OFFCURVE",
"79 531 OFFCURVE",
"84 543 CURVE SMOOTH",
"119 634 LINE",
"105 625 LINE",
"295 612 LINE",
"286 625 LINE",
"191 23 LINE",
"205 34 LINE",
"134 20 LINE SMOOTH",
"123 18 OFFCURVE",
"118 12 OFFCURVE",
"116 0 CURVE"
);
}
);
width = 476;
},
{
anchors = (
{
name = bottom;
position = "{246, 0}";
},
{
name = center;
position = "{297, 321}";
},
{
name = top;
position = "{347, 641}";
}
);
layerId = "7B53E429-1BF0-49C5-9F57-63EEBF39C6CC";
paths = (
{
closed = 1;
nodes = (
"419 0 LINE",
"438 29 OFFCURVE",
"445 50 OFFCURVE",
"449 76 CURVE",
"322 106 LINE",
"344 75 LINE",
"418 544 LINE",
"406 531 LINE",
"527 549 LINE",
"516 558 LINE",
"527 460 LINE SMOOTH",
"528 448 OFFCURVE",
"542 440 OFFCURVE",
"589 440 CURVE",
"621 641 LINE",
"74 641 LINE",
"42 440 LINE",
"88 440 OFFCURVE",
"104 448 OFFCURVE",
"110 460 CURVE SMOOTH",
"153 558 LINE",
"138 549 LINE",
"254 531 LINE",
"245 544 LINE",
"170 70 LINE",
"196 107 LINE",
"93 69 LINE SMOOTH",
"82 65 OFFCURVE",
"73 39 OFFCURVE",
"67 0 CURVE"
);
}
);
width = 562;
}
);
leftKerningGroup = T;
leftMetricsKey = "=H*.2";
rightKerningGroup = T;
rightMetricsKey = "=H*.2";
unicode = 0054;
},
{
color = 4;
glyphname = U;
layers = (
{
anchors = (
{
name = bottom;
position = "{309, 0}";
},
{
name = ogonek;
position = "{387, 0}";
},
{
name = top;
position = "{411, 641}";
},
{
name = topright;
position = "{580, 641}";
}
);
background = {
paths = (
{
closed = 1;
nodes = (
"436 -12 OFFCURVE",
"530 69 OFFCURVE",
"553 214 CURVE SMOOTH",
"613 589 LINE",
"592 575 LINE",
"670 602 LINE SMOOTH",
"679 605 OFFCURVE",
"688 621 OFFCURVE",
"691 641 CURVE",
"513 641 LINE",
"497 630 OFFCURVE",
"492 621 OFFCURVE",
"488 595 CURVE",
"567 571 LINE",
"560 584 LINE",
"500 206 LINE SMOOTH",
"483 98 OFFCURVE",
"415 38 OFFCURVE",
"310 38 CURVE SMOOTH",
"200 38 OFFCURVE",
"155 92 OFFCURVE",
"172 204 CURVE SMOOTH",
"233 589 LINE",
"216 573 LINE",
"308 602 LINE SMOOTH",
"318 605 OFFCURVE",
"326 620 OFFCURVE",
"329 641 CURVE",
"106 641 LINE",
"90 630 OFFCURVE",
"85 621 OFFCURVE",
"81 595 CURVE",
"160 571 LINE",
"153 584 LINE",
"93 211 LINE SMOOTH",
"71 69 OFFCURVE",
"143 -12 OFFCURVE",
"290 -12 CURVE SMOOTH"
);
}
);
};
layerId = "A9E90CC4-8E6C-407E-8E88-16513AA8D05B";
paths = (
{
closed = 1;
nodes = (
"453 -12 OFFCURVE",
"537 79 OFFCURVE",
"558 214 CURVE SMOOTH",
"621 612 LINE",
"608 589 LINE",
"667 604 LINE SMOOTH",
"677 607 OFFCURVE",
"684 621 OFFCURVE",
"688 641 CURVE",
"530 641 LINE",
"515 632 OFFCURVE",
"511 622 OFFCURVE",
"508 603 CURVE",
"580 586 LINE",
"577 607 LINE",
"516 223 LINE SMOOTH",
"499 117 OFFCURVE",
"440 34 OFFCURVE",
"319 34 CURVE SMOOTH",
"191 34 OFFCURVE",
"158 103 OFFCURVE",
"177 221 CURVE SMOOTH",
"238 603 LINE",
"219 586 LINE",
"289 604 LINE SMOOTH",
"299 607 OFFCURVE",
"306 620 OFFCURVE",
"309 641 CURVE",
"120 641 LINE SMOOTH",
"105 632 OFFCURVE",
"99 621 OFFCURVE",
"97 603 CURVE",
"172 585 LINE",
"159 600 LINE",
"97 211 LINE SMOOTH",
"75 70 OFFCURVE",
"142 -12 OFFCURVE",
"293 -12 CURVE SMOOTH"
);
}
);
width = 658;
},
{
anchors = (
{
name = bottom;
position = "{295, 0}";
},
{
name = ogonek;
position = "{375, 0}";
},
{
name = top;
position = "{397, 641}";
},
{
name = topright;
position = "{587, 641}";
}
);
layerId = "E1BF09ED-4302-4AD3-9939-8FDA35DE0FE8";
paths = (
{
closed = 1;
nodes = (
"428 -12 OFFCURVE",
"515 66 OFFCURVE",
"538 214 CURVE SMOOTH",
"603 624 LINE",
"597 611 LINE",
"642 621 LINE SMOOTH",
"652 623 OFFCURVE",
"658 629 OFFCURVE",
"660 641 CURVE",
"545 641 LINE",
"532 641 OFFCURVE",
"529 638 OFFCURVE",
"527 623 CURVE",
"587 610 LINE",
"583 619 LINE",
"517 206 LINE SMOOTH",
"497 80 OFFCURVE",
"418 7 OFFCURVE",
"303 7 CURVE SMOOTH",
"169 7 OFFCURVE",
"113 72 OFFCURVE",
"134 204 CURVE SMOOTH",
"201 619 LINE",
"189 607 LINE",
"251 621 LINE SMOOTH",
"262 623 OFFCURVE",
"267 629 OFFCURVE",
"269 641 CURVE",
"127 641 LINE SMOOTH",
"114 641 OFFCURVE",
"110 637 OFFCURVE",
"108 623 CURVE",
"181 607 LINE",
"170 618 LINE",
"105 211 LINE SMOOTH",
"82 67 OFFCURVE",
"148 -12 OFFCURVE",
"288 -12 CURVE SMOOTH"
);
}
);
width = 638;
},
{
anchors = (
{
name = bottom;
position = "{337, 0}";
},
{
name = ogonek;
position = "{411, 0}";
},
{
name = top;
position = "{438, 641}";
},
{
name = topright;
position = "{565, 641}";
}
);
layerId = "7B53E429-1BF0-49C5-9F57-63EEBF39C6CC";
paths = (
{
closed = 1;
nodes = (
"501 -12 OFFCURVE",
"579 105 OFFCURVE",
"596 214 CURVE SMOOTH",
"655 589 LINE",
"631 545 LINE",
"716 572 LINE SMOOTH",
"726 575 OFFCURVE",
"736 604 OFFCURVE",
"742 641 CURVE",
"502 641 LINE",
"483 614 OFFCURVE",
"475 591 OFFCURVE",
"471 565 CURVE",
"565 538 LINE",
"564 584 LINE",
"513 256 LINE SMOOTH",
"503 189 OFFCURVE",
"482 87 OFFCURVE",
"349 87 CURVE SMOOTH",
"234 87 OFFCURVE",
"247 165 OFFCURVE",
"261 254 CURVE SMOOTH",
"311 571 LINE",
"279 545 LINE",
"362 572 LINE SMOOTH",
"372 575 OFFCURVE",
"382 603 OFFCURVE",
"388 641 CURVE",
"106 641 LINE",
"86 614 OFFCURVE",
"78 591 OFFCURVE",
"74 565 CURVE",
"155 541 LINE",
"137 566 LINE",
"81 211 LINE SMOOTH",
"60 77 OFFCURVE",
"131 -12 OFFCURVE",
"303 -12 CURVE SMOOTH"
);
}
);
width = 696;
}
);
leftKerningGroup = U;
leftMetricsKey = "=H*.6";
rightKerningGroup = U;
rightMetricsKey = "=H*.6";
unicode = 0055;
},
{
color = 1;
glyphname = Uacute;
layers = (
{
background = {
paths = (
{
closed = 1;
nodes = (
"271 602 LINE SMOOTH",
"283 606 OFFCURVE",
"287 625 OFFCURVE",
"287 641 CURVE",
"47 641 LINE",
"32 630 OFFCURVE",
"28 622 OFFCURVE",
"28 595 CURVE",
"107 574 LINE",
"107 211 LINE SMOOTH",
"107 77 OFFCURVE",
"185 -12 OFFCURVE",
"366 -12 CURVE SMOOTH",
"534 -12 OFFCURVE",
"611 85 OFFCURVE",
"611 214 CURVE SMOOTH",
"611 579 LINE",
"680 602 LINE SMOOTH",
"692 606 OFFCURVE",
"696 625 OFFCURVE",
"696 641 CURVE",
"485 641 LINE",
"470 630 OFFCURVE",
"466 622 OFFCURVE",
"466 595 CURVE",
"545 574 LINE",
"545 206 LINE SMOOTH",
"545 80 OFFCURVE",
"478 41 OFFCURVE",
"366 41 CURVE SMOOTH",
"258 41 OFFCURVE",
"197 91 OFFCURVE",
"197 204 CURVE SMOOTH",
"197 579 LINE"
);
},
{
closed = 1;
nodes = (
"545 833 OFFCURVE",
"534 858 OFFCURVE",
"511 858 CURVE SMOOTH",
"480 858 OFFCURVE",
"427 825 OFFCURVE",
"291 743 CURVE",
"290 741 OFFCURVE",
"290 738 OFFCURVE",
"290 736 CURVE SMOOTH",
"290 728 OFFCURVE",
"294 721 OFFCURVE",
"304 715 CURVE",
"455 760 OFFCURVE",
"545 781 OFFCURVE",
"545 816 CURVE SMOOTH"
);
}
);
};
components = (
{
name = U;
},
{
name = acutecomb.case;
transform = "{1, 0, 0, 1, 269, 198}";
}
);
layerId = "A9E90CC4-8E6C-407E-8E88-16513AA8D05B";
width = 658;
},
{
components = (
{
name = U;
},
{
name = acutecomb.case;
transform = "{1, 0, 0, 1, 271, 198}";
}
);
layerId = "E1BF09ED-4302-4AD3-9939-8FDA35DE0FE8";
width = 638;
},
{
components = (
{
name = U;
},
{
name = acutecomb.case;
transform = "{1, 0, 0, 1, 262, 198}";
}
);
layerId = "7B53E429-1BF0-49C5-9F57-63EEBF39C6CC";
width = 696;
}
);
leftKerningGroup = U;
rightKerningGroup = U;
unicode = 00DA;
},
{
color = 1;
glyphname = Ucircumflex;
layers = (
{
background = {
paths = (
{
closed = 1;
nodes = (
"271 602 LINE SMOOTH",
"283 606 OFFCURVE",
"287 625 OFFCURVE",
"287 641 CURVE",
"47 641 LINE",
"32 630 OFFCURVE",
"28 622 OFFCURVE",
"28 595 CURVE",
"107 574 LINE",
"107 211 LINE SMOOTH",
"107 77 OFFCURVE",
"185 -12 OFFCURVE",
"366 -12 CURVE SMOOTH",
"534 -12 OFFCURVE",
"611 85 OFFCURVE",
"611 214 CURVE SMOOTH",
"611 579 LINE",
"680 602 LINE SMOOTH",
"692 606 OFFCURVE",
"696 625 OFFCURVE",
"696 641 CURVE",
"485 641 LINE",
"470 630 OFFCURVE",
"466 622 OFFCURVE",
"466 595 CURVE",
"545 574 LINE",
"545 206 LINE SMOOTH",
"545 80 OFFCURVE",
"478 41 OFFCURVE",
"366 41 CURVE SMOOTH",
"258 41 OFFCURVE",
"197 91 OFFCURVE",
"197 204 CURVE SMOOTH",
"197 579 LINE"
);
},
{
closed = 1;
nodes = (
"397 854 OFFCURVE",
"382 858 OFFCURVE",
"373 858 CURVE SMOOTH",
"364 858 OFFCURVE",
"349 853 OFFCURVE",
"329 839 CURVE SMOOTH",
"192 743 LINE",
"192 743 OFFCURVE",
"191 740 OFFCURVE",
"191 737 CURVE SMOOTH",
"191 728 OFFCURVE",
"196 720 OFFCURVE",
"205 715 CURVE",
"373 787 LINE",
"541 715 LINE",
"550 720 OFFCURVE",
"555 728 OFFCURVE",
"555 737 CURVE SMOOTH",
"555 740 OFFCURVE",
"554 743 OFFCURVE",
"554 743 CURVE",
"417 839 LINE SMOOTH"
);
}
);
};
components = (
{
name = U;
},
{
name = circumflexcomb.case;
transform = "{1, 0, 0, 1, 228, 198}";
}
);
layerId = "A9E90CC4-8E6C-407E-8E88-16513AA8D05B";
width = 658;
},
{
components = (
{
name = U;
},
{
name = circumflexcomb.case;
transform = "{1, 0, 0, 1, 234, 198}";
}
);
layerId = "E1BF09ED-4302-4AD3-9939-8FDA35DE0FE8";
width = 638;
},
{
components = (
{
name = U;
},
{
name = circumflexcomb.case;
transform = "{1, 0, 0, 1, 219, 198}";
}
);
layerId = "7B53E429-1BF0-49C5-9F57-63EEBF39C6CC";
width = 696;
}
);
leftKerningGroup = U;
rightKerningGroup = U;
unicode = 00DB;
},
{
color = 1;
glyphname = Udieresis;
layers = (
{
background = {
paths = (
{
closed = 1;
nodes = (
"223 775 OFFCURVE",
"238 756 OFFCURVE",
"269 756 CURVE SMOOTH",
"293 756 OFFCURVE",
"316 777 OFFCURVE",
"316 802 CURVE SMOOTH",
"316 829 OFFCURVE",
"300 848 OFFCURVE",
"269 848 CURVE SMOOTH",
"246 848 OFFCURVE",
"223 827 OFFCURVE",
"223 802 CURVE SMOOTH"
);
},
{
closed = 1;
nodes = (
"430 775 OFFCURVE",
"445 756 OFFCURVE",
"476 756 CURVE SMOOTH",
"500 756 OFFCURVE",
"523 777 OFFCURVE",
"523 802 CURVE SMOOTH",
"523 829 OFFCURVE",
"507 848 OFFCURVE",
"476 848 CURVE SMOOTH",
"453 848 OFFCURVE",
"430 827 OFFCURVE",
"430 802 CURVE SMOOTH"
);
},
{
closed = 1;
nodes = (
"271 602 LINE SMOOTH",
"283 606 OFFCURVE",
"287 625 OFFCURVE",
"287 641 CURVE",
"47 641 LINE",
"32 630 OFFCURVE",
"28 622 OFFCURVE",
"28 595 CURVE",
"107 574 LINE",
"107 211 LINE SMOOTH",
"107 77 OFFCURVE",
"185 -12 OFFCURVE",
"366 -12 CURVE SMOOTH",
"534 -12 OFFCURVE",
"611 85 OFFCURVE",
"611 214 CURVE SMOOTH",
"611 579 LINE",
"680 602 LINE SMOOTH",
"692 606 OFFCURVE",
"696 625 OFFCURVE",
"696 641 CURVE",
"485 641 LINE",
"470 630 OFFCURVE",
"466 622 OFFCURVE",
"466 595 CURVE",
"545 574 LINE",
"545 206 LINE SMOOTH",
"545 80 OFFCURVE",
"478 41 OFFCURVE",
"366 41 CURVE SMOOTH",
"258 41 OFFCURVE",
"197 91 OFFCURVE",
"197 204 CURVE SMOOTH",
"197 579 LINE"
);
}
);
};
components = (
{
name = U;
},
{
name = dieresiscomb.case;
transform = "{1, 0, 0, 1, 227, 198}";
}
);
layerId = "A9E90CC4-8E6C-407E-8E88-16513AA8D05B";
width = 658;
},
{
components = (
{
name = U;
},
{
name = dieresiscomb.case;
transform = "{1, 0, 0, 1, 261, 198}";
}
);
layerId = "E1BF09ED-4302-4AD3-9939-8FDA35DE0FE8";
width = 638;
},
{
components = (
{
name = U;
},
{
name = dieresiscomb.case;
transform = "{1, 0, 0, 1, 189, 198}";
}
);
layerId = "7B53E429-1BF0-49C5-9F57-63EEBF39C6CC";
width = 696;
}
);
leftKerningGroup = U;
rightKerningGroup = U;
unicode = 00DC;
},
{
color = 1;
glyphname = Ugrave;
layers = (
{
background = {
paths = (
{
closed = 1;
nodes = (
"271 602 LINE SMOOTH",
"283 606 OFFCURVE",
"287 625 OFFCURVE",
"287 641 CURVE",
"47 641 LINE",
"32 630 OFFCURVE",
"28 622 OFFCURVE",
"28 595 CURVE",
"107 574 LINE",
"107 211 LINE SMOOTH",
"107 77 OFFCURVE",
"185 -12 OFFCURVE",
"366 -12 CURVE SMOOTH",
"534 -12 OFFCURVE",
"611 85 OFFCURVE",
"611 214 CURVE SMOOTH",
"611 579 LINE",
"680 602 LINE SMOOTH",
"692 606 OFFCURVE",
"696 625 OFFCURVE",
"696 641 CURVE",
"485 641 LINE",
"470 630 OFFCURVE",
"466 622 OFFCURVE",
"466 595 CURVE",
"545 574 LINE",
"545 206 LINE SMOOTH",
"545 80 OFFCURVE",
"478 41 OFFCURVE",
"366 41 CURVE SMOOTH",
"258 41 OFFCURVE",
"197 91 OFFCURVE",
"197 204 CURVE SMOOTH",
"197 579 LINE"
);
},
{
closed = 1;
nodes = (
"196 781 OFFCURVE",
"286 760 OFFCURVE",
"437 715 CURVE",
"447 721 OFFCURVE",
"451 728 OFFCURVE",
"451 736 CURVE SMOOTH",
"451 738 OFFCURVE",
"451 741 OFFCURVE",
"450 743 CURVE",
"314 825 OFFCURVE",
"261 858 OFFCURVE",
"230 858 CURVE SMOOTH",
"207 858 OFFCURVE",
"196 833 OFFCURVE",
"196 816 CURVE SMOOTH"
);
}
);
};
components = (
{
name = U;
},
{
name = gravecomb.case;
transform = "{1, 0, 0, 1, 233, 198}";
}
);
layerId = "A9E90CC4-8E6C-407E-8E88-16513AA8D05B";
width = 658;
},
{
components = (
{
name = U;
},
{
name = gravecomb.case;
transform = "{1, 0, 0, 1, 299, 198}";
}
);
layerId = "E1BF09ED-4302-4AD3-9939-8FDA35DE0FE8";
width = 638;
},
{
components = (
{
name = U;
},
{
name = gravecomb.case;
transform = "{1, 0, 0, 1, 291, 198}";
}
);
layerId = "7B53E429-1BF0-49C5-9F57-63EEBF39C6CC";
width = 696;
}
);
leftKerningGroup = U;
rightKerningGroup = U;
unicode = 00D9;
},
{
color = 4;
glyphname = V;
layers = (
{
layerId = "A9E90CC4-8E6C-407E-8E88-16513AA8D05B";
paths = (
{
closed = 1;
nodes = (
"277 -12 OFFCURVE",
"301 -5 OFFCURVE",
"311 16 CURVE SMOOTH",
"595 613 LINE",
"575 589 LINE",
"634 604 LINE SMOOTH",
"644 607 OFFCURVE",
"651 620 OFFCURVE",
"655 641 CURVE",
"497 641 LINE SMOOTH",
"481 632 OFFCURVE",
"477 621 OFFCURVE",
"474 603 CURVE",
"547 587 LINE",
"546 609 LINE",
"279 44 LINE",
"293 44 LINE",
"196 608 LINE",
"184 586 LINE",
"253 604 LINE SMOOTH",
"263 607 OFFCURVE",
"271 620 OFFCURVE",
"274 641 CURVE",
"86 641 LINE SMOOTH",
"71 632 OFFCURVE",
"66 621 OFFCURVE",
"63 603 CURVE",
"139 585 LINE",
"118 607 LINE",
"225 -6 LINE",
"233 -9 OFFCURVE",
"251 -12 OFFCURVE",
"261 -12 CURVE SMOOTH"
);
}
);
width = 592;
},
{
layerId = "E1BF09ED-4302-4AD3-9939-8FDA35DE0FE8";
paths = (
{
closed = 1;
nodes = (
"261 -12 OFFCURVE",
"268 -6 OFFCURVE",
"276 11 CURVE SMOOTH",
"561 625 LINE",
"551 611 LINE",
"596 621 LINE SMOOTH",
"606 623 OFFCURVE",
"612 629 OFFCURVE",
"614 641 CURVE",
"500 641 LINE SMOOTH",
"486 641 OFFCURVE",
"483 637 OFFCURVE",
"481 623 CURVE",
"541 610 LINE",
"539 621 LINE",
"249 -5 LINE",
"258 -5 LINE",
"157 618 LINE",
"149 607 LINE",
"211 621 LINE SMOOTH",
"221 623 OFFCURVE",
"227 629 OFFCURVE",
"229 641 CURVE",
"87 641 LINE SMOOTH",
"74 641 OFFCURVE",
"70 637 OFFCURVE",
"68 623 CURVE",
"141 607 LINE",
"127 618 LINE",
"228 -6 LINE",
"232 -9 OFFCURVE",
"243 -12 OFFCURVE",
"249 -12 CURVE SMOOTH"
);
}
);
width = 552;
},
{
guideLines = (
{
angle = 111.1613;
position = "{309, 589}";
},
{
angle = 249.9547;
position = "{427, 362}";
}
);
layerId = "7B53E429-1BF0-49C5-9F57-63EEBF39C6CC";
paths = (
{
closed = 1;
nodes = (
"310 -12 OFFCURVE",
"368 -4 OFFCURVE",
"382 25 CURVE SMOOTH",
"666 589 LINE",
"624 545 LINE",
"712 572 LINE SMOOTH",
"722 575 OFFCURVE",
"731 602 OFFCURVE",
"738 641 CURVE",
"493 641 LINE",
"474 614 OFFCURVE",
"467 591 OFFCURVE",
"462 565 CURVE",
"562 541 LINE",
"564 584 LINE",
"340 140 LINE",
"366 140 LINE",
"275 589 LINE",
"256 545 LINE",
"339 572 LINE SMOOTH",
"349 575 OFFCURVE",
"359 602 OFFCURVE",
"365 641 CURVE",
"88 641 LINE",
"68 614 OFFCURVE",
"60 591 OFFCURVE",
"56 565 CURVE",
"137 541 LINE",
"102 584 LINE",
"221 -5 LINE",
"238 -9 OFFCURVE",
"271 -12 OFFCURVE",
"287 -12 CURVE SMOOTH"
);
}
);
width = 674;
}
);
leftKerningGroup = V;
leftMetricsKey = "=H*.05";
rightKerningGroup = V;
rightMetricsKey = "=H*.05";
unicode = 0056;
},
{
color = 4;
glyphname = W;
layers = (
{
anchors = (
{
name = bottom;
position = "{422, 0}";
},
{
name = top;
position = "{523, 641}";
}
);
layerId = "A9E90CC4-8E6C-407E-8E88-16513AA8D05B";
paths = (
{
closed = 1;
nodes = (
"262 -12 OFFCURVE",
"287 -5 OFFCURVE",
"297 16 CURVE",
"490 455 LINE",
"467 455 LINE",
"534 -6 LINE",
"542 -9 OFFCURVE",
"559 -12 OFFCURVE",
"569 -12 CURVE SMOOTH",
"584 -12 OFFCURVE",
"609 -5 OFFCURVE",
"619 16 CURVE SMOOTH",
"882 613 LINE",
"861 589 LINE",
"920 604 LINE SMOOTH",
"930 607 OFFCURVE",
"937 620 OFFCURVE",
"941 641 CURVE",
"781 641 LINE SMOOTH",
"766 632 OFFCURVE",
"762 621 OFFCURVE",
"759 603 CURVE",
"832 587 LINE",
"834 609 LINE",
"591 58 LINE",
"602 58 LINE",
"529 561 LINE",
"491 561 LINE",
"270 58 LINE",
"280 58 LINE",
"197 614 LINE",
"185 587 LINE",
"254 605 LINE SMOOTH",
"264 607 OFFCURVE",
"272 621 OFFCURVE",
"275 642 CURVE",
"87 642 LINE SMOOTH",
"71 633 OFFCURVE",
"67 622 OFFCURVE",
"64 604 CURVE",
"139 585 LINE",
"118 609 LINE",
"210 -6 LINE",
"219 -9 OFFCURVE",
"238 -12 OFFCURVE",
"247 -12 CURVE SMOOTH"
);
}
);
width = 878;
},
{
anchors = (
{
name = bottom;
position = "{400, 0}";
},
{
name = top;
position = "{501, 641}";
}
);
layerId = "E1BF09ED-4302-4AD3-9939-8FDA35DE0FE8";
paths = (
{
closed = 1;
nodes = (
"257 -12 OFFCURVE",
"264 -6 OFFCURVE",
"272 11 CURVE",
"480 490 LINE",
"469 490 LINE",
"533 -6 LINE",
"537 -9 OFFCURVE",
"547 -12 OFFCURVE",
"554 -12 CURVE SMOOTH",
"566 -12 OFFCURVE",
"573 -6 OFFCURVE",
"581 11 CURVE SMOOTH",
"852 625 LINE",
"842 611 LINE",
"887 621 LINE SMOOTH",
"897 623 OFFCURVE",
"903 629 OFFCURVE",
"905 641 CURVE",
"790 641 LINE SMOOTH",
"777 641 OFFCURVE",
"774 637 OFFCURVE",
"772 623 CURVE",
"832 610 LINE",
"831 621 LINE",
"557 1 LINE",
"563 1 LINE",
"492 552 LINE",
"487 552 LINE",
"248 1 LINE",
"254 1 LINE",
"158 626 LINE",
"149 608 LINE",
"211 622 LINE SMOOTH",
"221 624 OFFCURVE",
"227 630 OFFCURVE",
"229 642 CURVE",
"86 642 LINE SMOOTH",
"73 642 OFFCURVE",
"70 638 OFFCURVE",
"68 624 CURVE",
"141 608 LINE",
"127 621 LINE",
"224 -6 LINE",
"228 -9 OFFCURVE",
"239 -12 OFFCURVE",
"245 -12 CURVE SMOOTH"
);
}
);
width = 843;
},
{
anchors = (
{
name = bottom;
position = "{464, 0}";
},
{
name = top;
position = "{565, 641}";
}
);
guideLines = (
{
angle = 111.4424;
position = "{612, 170}";
}
);
layerId = "7B53E429-1BF0-49C5-9F57-63EEBF39C6CC";
paths = (
{
closed = 1;
nodes = (
"273 -12 OFFCURVE",
"333 -4 OFFCURVE",
"346 25 CURVE SMOOTH",
"510 386 LINE",
"463 386 LINE",
"535 -5 LINE",
"551 -9 OFFCURVE",
"583 -12 OFFCURVE",
"598 -12 CURVE SMOOTH",
"620 -12 OFFCURVE",
"680 -4 OFFCURVE",
"693 25 CURVE SMOOTH",
"940 589 LINE",
"898 545 LINE",
"986 572 LINE SMOOTH",
"996 575 OFFCURVE",
"1005 602 OFFCURVE",
"1012 641 CURVE",
"764 641 LINE",
"745 614 OFFCURVE",
"738 591 OFFCURVE",
"734 565 CURVE",
"833 541 LINE",
"841 584 LINE",
"659 170 LINE",
"677 170 LINE",
"601 579 LINE",
"500 579 LINE",
"314 170 LINE",
"332 170 LINE",
"273 589 LINE",
"256 545 LINE",
"339 572 LINE SMOOTH",
"349 575 OFFCURVE",
"359 602 OFFCURVE",
"365 641 CURVE",
"88 641 LINE",
"68 614 OFFCURVE",
"60 591 OFFCURVE",
"56 565 CURVE",
"136 541 LINE",
"101 584 LINE",
"184 -5 LINE",
"201 -9 OFFCURVE",
"235 -12 OFFCURVE",
"251 -12 CURVE SMOOTH"
);
}
);
width = 948;
}
);
leftKerningGroup = V;
leftMetricsKey = V;
rightKerningGroup = V;
rightMetricsKey = V;
unicode = 0057;
},
{
color = 4;
glyphname = X;
layers = (
{
layerId = "A9E90CC4-8E6C-407E-8E88-16513AA8D05B";
paths = (
{
closed = 1;
nodes = (
"507 0 LINE SMOOTH",
"522 9 OFFCURVE",
"527 20 OFFCURVE",
"531 38 CURVE",
"452 57 LINE",
"475 34 LINE",
"214 610 LINE",
"202 586 LINE",
"274 604 LINE SMOOTH",
"284 607 OFFCURVE",
"292 620 OFFCURVE",
"295 641 CURVE",
"99 641 LINE SMOOTH",
"84 632 OFFCURVE",
"78 621 OFFCURVE",
"76 603 CURVE",
"155 585 LINE",
"129 605 LINE",
"391 29 LINE",
"404 55 LINE",
"332 37 LINE SMOOTH",
"322 35 OFFCURVE",
"314 21 OFFCURVE",
"311 0 CURVE"
);
},
{
closed = 1;
nodes = (
"137 0 LINE SMOOTH",
"152 9 OFFCURVE",
"156 20 OFFCURVE",
"159 38 CURVE",
"83 55 LINE",
"84 35 LINE",
"305 312 LINE",
"271 337 LINE",
"26 30 LINE",
"58 53 LINE",
"-9 37 LINE SMOOTH",
"-19 35 OFFCURVE",
"-26 21 OFFCURVE",
"-29 0 CURVE"
);
},
{
closed = 1;
nodes = (
"562 614 LINE",
"528 588 LINE",
"595 604 LINE SMOOTH",
"605 607 OFFCURVE",
"612 620 OFFCURVE",
"616 641 CURVE",
"450 641 LINE SMOOTH",
"435 632 OFFCURVE",
"430 621 OFFCURVE",
"427 603 CURVE",
"504 587 LINE",
"503 609 LINE",
"294 343 LINE",
"328 319 LINE"
);
}
);
width = 566;
},
{
layerId = "E1BF09ED-4302-4AD3-9939-8FDA35DE0FE8";
paths = (
{
closed = 1;
nodes = (
"469 0 LINE SMOOTH",
"482 0 OFFCURVE",
"485 4 OFFCURVE",
"488 18 CURVE",
"410 34 LINE",
"426 22 LINE",
"175 621 LINE",
"166 607 LINE",
"232 621 LINE SMOOTH",
"243 623 OFFCURVE",
"249 629 OFFCURVE",
"251 641 CURVE",
"99 641 LINE SMOOTH",
"86 641 OFFCURVE",
"82 637 OFFCURVE",
"80 623 CURVE",
"158 607 LINE",
"144 616 LINE",
"396 17 LINE",
"402 34 LINE",
"335 20 LINE SMOOTH",
"325 18 OFFCURVE",
"319 12 OFFCURVE",
"317 0 CURVE"
);
},
{
closed = 1;
nodes = (
"96 0 LINE SMOOTH",
"109 0 OFFCURVE",
"112 4 OFFCURVE",
"115 18 CURVE",
"53 31 LINE",
"53 23 LINE",
"289 331 LINE",
"276 343 LINE",
"27 18 LINE",
"44 30 LINE",
"-10 20 LINE SMOOTH",
"-20 18 OFFCURVE",
"-26 12 OFFCURVE",
"-28 0 CURVE"
);
},
{
closed = 1;
nodes = (
"522 627 LINE",
"503 611 LINE",
"557 621 LINE SMOOTH",
"568 623 OFFCURVE",
"573 629 OFFCURVE",
"575 641 CURVE",
"451 641 LINE SMOOTH",
"438 641 OFFCURVE",
"435 637 OFFCURVE",
"433 623 CURVE",
"495 610 LINE",
"496 622 LINE",
"277 332 LINE",
"291 321 LINE"
);
}
);
width = 527;
},
{
guideLines = (
{
angle = 232.2998;
position = "{295, 366}";
}
);
layerId = "7B53E429-1BF0-49C5-9F57-63EEBF39C6CC";
paths = (
{
closed = 1;
nodes = (
"581 1 LINE",
"601 28 OFFCURVE",
"609 51 OFFCURVE",
"614 77 CURVE",
"533 101 LINE",
"571 57 LINE",
"290 589 LINE",
"272 545 LINE",
"355 572 LINE SMOOTH",
"365 575 OFFCURVE",
"375 602 OFFCURVE",
"381 641 CURVE",
"99 641 LINE",
"79 614 OFFCURVE",
"71 591 OFFCURVE",
"67 565 CURVE",
"148 541 LINE",
"100 584 LINE",
"380 52 LINE",
"408 97 LINE",
"325 70 LINE SMOOTH",
"315 67 OFFCURVE",
"305 40 OFFCURVE",
"299 1 CURVE"
);
},
{
closed = 1;
nodes = (
"216 1 LINE",
"235 28 OFFCURVE",
"242 51 OFFCURVE",
"246 77 CURVE",
"142 101 LINE",
"144 58 LINE",
"335 276 LINE",
"262 326 LINE",
"23 53 LINE",
"86 99 LINE",
"-6 70 LINE SMOOTH",
"-16 67 OFFCURVE",
"-26 40 OFFCURVE",
"-32 1 CURVE"
);
},
{
closed = 1;
nodes = (
"640 589 LINE",
"577 543 LINE",
"669 572 LINE SMOOTH",
"678 575 OFFCURVE",
"688 602 OFFCURVE",
"695 641 CURVE",
"447 641 LINE",
"428 614 OFFCURVE",
"421 591 OFFCURVE",
"416 565 CURVE",
"521 541 LINE",
"518 584 LINE",
"326 366 LINE",
"400 316 LINE"
);
}
);
width = 640;
}
);
leftKerningGroup = X;
leftMetricsKey = "=H*.1";
rightKerningGroup = X;
rightMetricsKey = "=H*.1";
unicode = 0058;
},
{
color = 4;
glyphname = Y;
layers = (
{
anchors = (
{
name = bottom;
position = "{255, 0}";
},
{
name = top;
position = "{366, 641}";
},
{
name = topleft;
position = "{86, 641}";
}
);
layerId = "A9E90CC4-8E6C-407E-8E88-16513AA8D05B";
paths = (
{
closed = 1;
nodes = (
"564 611 LINE",
"542 589 LINE",
"607 604 LINE SMOOTH",
"617 607 OFFCURVE",
"624 620 OFFCURVE",
"627 641 CURVE",
"464 641 LINE",
"449 632 OFFCURVE",
"444 621 OFFCURVE",
"441 603 CURVE",
"516 587 LINE",
"511 606 LINE",
"304 280 LINE",
"326 283 LINE",
"195 610 LINE",
"185 586 LINE",
"258 604 LINE SMOOTH",
"269 607 OFFCURVE",
"276 620 OFFCURVE",
"279 641 CURVE",
"86 641 LINE",
"70 632 OFFCURVE",
"66 621 OFFCURVE",
"63 603 CURVE",
"137 585 LINE",
"113 605 LINE",
"286 174 LINE"
);
},
{
closed = 1;
nodes = (
"349 0 LINE SMOOTH",
"364 10 OFFCURVE",
"369 20 OFFCURVE",
"372 38 CURVE",
"286 56 LINE",
"300 37 LINE",
"338 275 LINE",
"260 275 LINE",
"222 32 LINE",
"239 55 LINE",
"167 37 LINE SMOOTH",
"157 34 OFFCURVE",
"150 21 OFFCURVE",
"147 0 CURVE"
);
}
);
width = 564;
},
{
anchors = (
{
name = bottom;
position = "{241, 0}";
},
{
name = top;
position = "{343, 641}";
},
{
name = topleft;
position = "{86, 641}";
}
);
layerId = "E1BF09ED-4302-4AD3-9939-8FDA35DE0FE8";
paths = (
{
closed = 1;
nodes = (
"529 622 LINE",
"518 611 LINE",
"570 621 LINE SMOOTH",
"581 623 OFFCURVE",
"587 629 OFFCURVE",
"588 641 CURVE",
"465 641 LINE",
"452 641 OFFCURVE",
"448 637 OFFCURVE",
"446 623 CURVE",
"508 610 LINE",
"504 617 LINE",
"280 268 LINE",
"296 272 LINE",
"153 621 LINE",
"147 607 LINE",
"216 621 LINE SMOOTH",
"227 623 OFFCURVE",
"232 629 OFFCURVE",
"234 641 CURVE",
"86 641 LINE",
"73 641 OFFCURVE",
"70 637 OFFCURVE",
"68 623 CURVE",
"139 607 LINE",
"123 616 LINE",
"279 234 LINE"
);
},
{
closed = 1;
nodes = (
"315 0 LINE SMOOTH",
"328 0 OFFCURVE",
"331 4 OFFCURVE",
"334 18 CURVE",
"251 34 LINE",
"259 17 LINE",
"300 275 LINE",
"269 275 LINE",
"228 12 LINE",
"243 34 LINE",
"172 20 LINE SMOOTH",
"162 18 OFFCURVE",
"156 12 OFFCURVE",
"154 0 CURVE"
);
}
);
width = 526;
},
{
anchors = (
{
name = bottom;
position = "{286, 0}";
},
{
name = top;
position = "{414, 641}";
},
{
name = topleft;
position = "{88, 641}";
}
);
guideLines = (
{
angle = 63.392;
position = "{320, 304}";
},
{
position = "{176, 366}";
}
);
layerId = "7B53E429-1BF0-49C5-9F57-63EEBF39C6CC";
paths = (
{
closed = 1;
nodes = (
"635 589 LINE",
"593 545 LINE",
"681 572 LINE SMOOTH",
"690 575 OFFCURVE",
"700 602 OFFCURVE",
"707 641 CURVE",
"466 641 LINE",
"447 614 OFFCURVE",
"439 591 OFFCURVE",
"435 565 CURVE",
"534 541 LINE",
"528 584 LINE",
"353 304 LINE",
"389 304 LINE",
"279 589 LINE",
"261 545 LINE",
"344 572 LINE SMOOTH",
"354 575 OFFCURVE",
"364 602 OFFCURVE",
"370 641 CURVE",
"88 641 LINE",
"68 614 OFFCURVE",
"60 591 OFFCURVE",
"56 565 CURVE",
"136 541 LINE",
"97 584 LINE",
"302 56 LINE"
);
},
{
closed = 1;
nodes = (
"419 0 LINE",
"438 29 OFFCURVE",
"446 50 OFFCURVE",
"450 76 CURVE",
"359 100 LINE",
"383 75 LINE",
"415 275 LINE",
"244 275 LINE",
"212 70 LINE",
"234 96 LINE",
"161 69 LINE SMOOTH",
"151 65 OFFCURVE",
"142 39 OFFCURVE",
"135 0 CURVE"
);
}
);
width = 643;
}
);
leftKerningGroup = Y;
leftMetricsKey = V;
rightKerningGroup = Y;
rightMetricsKey = V;
unicode = 0059;
},
{
color = 1;
glyphname = Yacute;
layers = (
{
background = {
paths = (
{
closed = 1;
nodes = (
"467 833 OFFCURVE",
"456 858 OFFCURVE",
"433 858 CURVE SMOOTH",
"402 858 OFFCURVE",
"349 825 OFFCURVE",
"213 743 CURVE",
"212 741 OFFCURVE",
"212 738 OFFCURVE",
"212 736 CURVE SMOOTH",
"212 728 OFFCURVE",
"216 721 OFFCURVE",
"226 715 CURVE",
"377 760 OFFCURVE",
"467 781 OFFCURVE",
"467 816 CURVE SMOOTH"
);
},
{
closed = 1;
nodes = (
"385 630 OFFCURVE",
"381 622 OFFCURVE",
"381 595 CURVE",
"460 574 LINE",
"325 322 LINE",
"163 579 LINE",
"237 602 LINE SMOOTH",
"249 606 OFFCURVE",
"253 625 OFFCURVE",
"253 641 CURVE",
"5 641 LINE",
"-10 630 OFFCURVE",
"-14 622 OFFCURVE",
"-14 595 CURVE",
"65 574 LINE",
"266 260 LINE",
"266 62 LINE",
"203 39 LINE SMOOTH",
"191 35 OFFCURVE",
"187 16 OFFCURVE",
"187 0 CURVE",
"423 0 LINE",
"438 11 OFFCURVE",
"442 19 OFFCURVE",
"442 46 CURVE",
"352 67 LINE",
"352 260 LINE",
"527 579 LINE",
"601 602 LINE SMOOTH",
"613 606 OFFCURVE",
"617 625 OFFCURVE",
"617 641 CURVE",
"400 641 LINE"
);
}
);
};
components = (
{
name = Y;
},
{
name = acutecomb.case;
transform = "{1, 0, 0, 1, 224, 198}";
}
);
layerId = "A9E90CC4-8E6C-407E-8E88-16513AA8D05B";
width = 564;
},
{
components = (
{
name = Y;
},
{
name = acutecomb.case;
transform = "{1, 0, 0, 1, 217, 198}";
}
);
layerId = "E1BF09ED-4302-4AD3-9939-8FDA35DE0FE8";
width = 526;
},
{
components = (
{
name = Y;
},
{
name = acutecomb.case;
transform = "{1, 0, 0, 1, 238, 198}";
}
);
layerId = "7B53E429-1BF0-49C5-9F57-63EEBF39C6CC";
width = 643;
}
);
leftKerningGroup = Y;
rightKerningGroup = Y;
unicode = 00DD;
},
{
color = 1;
glyphname = Ydieresis;
layers = (
{
background = {
paths = (
{
closed = 1;
nodes = (
"160 775 OFFCURVE",
"175 756 OFFCURVE",
"206 756 CURVE SMOOTH",
"230 756 OFFCURVE",
"253 777 OFFCURVE",
"253 802 CURVE SMOOTH",
"253 829 OFFCURVE",
"237 848 OFFCURVE",
"206 848 CURVE SMOOTH",
"183 848 OFFCURVE",
"160 827 OFFCURVE",
"160 802 CURVE SMOOTH"
);
},
{
closed = 1;
nodes = (
"367 775 OFFCURVE",
"382 756 OFFCURVE",
"413 756 CURVE SMOOTH",
"437 756 OFFCURVE",
"460 777 OFFCURVE",
"460 802 CURVE SMOOTH",
"460 829 OFFCURVE",
"444 848 OFFCURVE",
"413 848 CURVE SMOOTH",
"390 848 OFFCURVE",
"367 827 OFFCURVE",
"367 802 CURVE SMOOTH"
);
},
{
closed = 1;
nodes = (
"385 630 OFFCURVE",
"381 622 OFFCURVE",
"381 595 CURVE",
"460 574 LINE",
"325 322 LINE",
"163 579 LINE",
"237 602 LINE SMOOTH",
"249 606 OFFCURVE",
"253 625 OFFCURVE",
"253 641 CURVE",
"5 641 LINE",
"-10 630 OFFCURVE",
"-14 622 OFFCURVE",
"-14 595 CURVE",
"65 574 LINE",
"266 260 LINE",
"266 62 LINE",
"203 39 LINE SMOOTH",
"191 35 OFFCURVE",
"187 16 OFFCURVE",
"187 0 CURVE",
"423 0 LINE",
"438 11 OFFCURVE",
"442 19 OFFCURVE",
"442 46 CURVE",
"352 67 LINE",
"352 260 LINE",
"527 579 LINE",
"601 602 LINE SMOOTH",
"613 606 OFFCURVE",
"617 625 OFFCURVE",
"617 641 CURVE",
"400 641 LINE"
);
}
);
};
components = (
{
name = Y;
},
{
name = dieresiscomb.case;
transform = "{1, 0, 0, 1, 182, 198}";
}
);
layerId = "A9E90CC4-8E6C-407E-8E88-16513AA8D05B";
width = 564;
},
{
components = (
{
name = Y;
},
{
name = dieresiscomb.case;
transform = "{1, 0, 0, 1, 207, 198}";
}
);
layerId = "E1BF09ED-4302-4AD3-9939-8FDA35DE0FE8";
width = 526;
},
{
components = (
{
name = Y;
},
{
name = dieresiscomb.case;
transform = "{1, 0, 0, 1, 165, 198}";
}
);
layerId = "7B53E429-1BF0-49C5-9F57-63EEBF39C6CC";
width = 643;
}
);
leftKerningGroup = Y;
rightKerningGroup = Y;
unicode = 0178;
},
{
color = 4;
glyphname = Z;
layers = (
{
anchors = (
{
name = bottom;
position = "{243, 0}";
},
{
name = center;
position = "{281, 321}";
},
{
name = top;
position = "{345, 641}";
}
);
background = {
paths = (
{
closed = 1;
nodes = (
"57 478 LINE",
"73 478 OFFCURVE",
"92 482 OFFCURVE",
"96 494 CURVE SMOOTH",
"129 595 LINE",
"395 579 LINE",
"45 46 LINE SMOOTH",
"40 39 OFFCURVE",
"38 32 OFFCURVE",
"38 25 CURVE SMOOTH",
"38 10 OFFCURVE",
"47 0 OFFCURVE",
"64 0 CURVE SMOOTH",
"533 0 LINE",
"533 159 LINE",
"522 174 OFFCURVE",
"514 178 OFFCURVE",
"487 178 CURVE",
"456 46 LINE",
"161 67 LINE",
"508 595 LINE SMOOTH",
"513 602 OFFCURVE",
"515 610 OFFCURVE",
"515 617 CURVE SMOOTH",
"515 632 OFFCURVE",
"506 641 OFFCURVE",
"490 641 CURVE SMOOTH",
"57 641 LINE"
);
}
);
};
layerId = "A9E90CC4-8E6C-407E-8E88-16513AA8D05B";
paths = (
{
closed = 1;
nodes = (
"461 0 LINE",
"484 148 LINE SMOOTH",
"477 158 OFFCURVE",
"469 164 OFFCURVE",
"452 164 CURVE",
"404 29 LINE",
"428 42 LINE",
"100 60 LINE",
"105 34 LINE",
"539 595 LINE",
"539 619 OFFCURVE",
"528 641 OFFCURVE",
"503 641 CURVE SMOOTH",
"126 641 LINE",
"102 489 LINE",
"123 489 OFFCURVE",
"134 494 OFFCURVE",
"139 507 CURVE SMOOTH",
"179 608 LINE",
"158 599 LINE",
"466 584 LINE",
"451 613 LINE",
"15 50 LINE",
"14 24 OFFCURVE",
"27 0 OFFCURVE",
"50 0 CURVE SMOOTH"
);
}
);
width = 538;
},
{
anchors = (
{
name = bottom;
position = "{241, 0}";
},
{
name = center;
position = "{272, 321}";
},
{
name = top;
position = "{343, 641}";
}
);
guideLines = (
{
angle = -2.1769;
position = "{302, 619}";
},
{
angle = 177.2073;
position = "{197, 25}";
}
);
layerId = "E1BF09ED-4302-4AD3-9939-8FDA35DE0FE8";
paths = (
{
closed = 1;
nodes = (
"437 0 LINE",
"455 118 LINE SMOOTH",
"456 125 OFFCURVE",
"454 131 OFFCURVE",
"441 131 CURVE",
"398 7 LINE",
"411 16 LINE",
"42 34 LINE",
"51 23 LINE",
"518 612 LINE",
"518 627 OFFCURVE",
"511 641 OFFCURVE",
"496 641 CURVE SMOOTH",
"135 641 LINE",
"116 517 LINE",
"124 517 OFFCURVE",
"132 520 OFFCURVE",
"137 533 CURVE SMOOTH",
"175 634 LINE",
"161 625 LINE",
"503 612 LINE",
"489 625 LINE",
"21 35 LINE",
"21 17 OFFCURVE",
"30 0 OFFCURVE",
"43 0 CURVE SMOOTH"
);
}
);
width = 523;
},
{
anchors = (
{
name = bottom;
position = "{248, 0}";
},
{
name = center;
position = "{299, 321}";
},
{
name = top;
position = "{349, 641}";
}
);
layerId = "7B53E429-1BF0-49C5-9F57-63EEBF39C6CC";
paths = (
{
closed = 1;
nodes = (
"507 0 LINE",
"540 206 LINE",
"518 223 OFFCURVE",
"497 228 OFFCURVE",
"473 228 CURVE",
"416 72 LINE",
"460 93 LINE",
"214 112 LINE",
"210 57 LINE",
"579 561 LINE",
"580 602 OFFCURVE",
"560 641 OFFCURVE",
"518 641 CURVE SMOOTH",
"108 641 LINE",
"76 435 LINE",
"122 435 OFFCURVE",
"138 443 OFFCURVE",
"144 455 CURVE SMOOTH",
"187 558 LINE",
"151 548 LINE",
"393 530 LINE",
"377 589 LINE",
"2 80 LINE",
"1 39 OFFCURVE",
"21 0 OFFCURVE",
"63 0 CURVE SMOOTH"
);
}
);
width = 566;
}
);
leftKerningGroup = Z;
leftMetricsKey = "=H*.7";
rightKerningGroup = Z;
rightMetricsKey = "=H*.7";
unicode = 005A;
},
{
color = 1;
glyphname = Zcaron;
layers = (
{
background = {
paths = (
{
closed = 1;
nodes = (
"135 858 LINE",
"126 853 OFFCURVE",
"121 845 OFFCURVE",
"121 836 CURVE SMOOTH",
"121 833 OFFCURVE",
"121 831 OFFCURVE",
"122 830 CURVE",
"259 734 LINE SMOOTH",
"277 721 OFFCURVE",
"292 715 OFFCURVE",
"301 715 CURVE SMOOTH",
"311 715 OFFCURVE",
"324 718 OFFCURVE",
"347 734 CURVE SMOOTH",
"484 830 LINE",
"485 831 OFFCURVE",
"485 833 OFFCURVE",
"485 836 CURVE SMOOTH",
"485 845 OFFCURVE",
"480 853 OFFCURVE",
"471 858 CURVE",
"303 786 LINE"
);
},
{
closed = 1;
nodes = (
"57 478 LINE",
"73 478 OFFCURVE",
"92 482 OFFCURVE",
"96 494 CURVE SMOOTH",
"129 595 LINE",
"395 579 LINE",
"45 46 LINE SMOOTH",
"40 39 OFFCURVE",
"38 32 OFFCURVE",
"38 25 CURVE SMOOTH",
"38 10 OFFCURVE",
"47 0 OFFCURVE",
"64 0 CURVE SMOOTH",
"533 0 LINE",
"533 159 LINE",
"522 174 OFFCURVE",
"514 178 OFFCURVE",
"487 178 CURVE",
"456 46 LINE",
"161 67 LINE",
"508 595 LINE SMOOTH",
"513 602 OFFCURVE",
"515 610 OFFCURVE",
"515 617 CURVE SMOOTH",
"515 632 OFFCURVE",
"506 641 OFFCURVE",
"490 641 CURVE SMOOTH",
"57 641 LINE"
);
}
);
};
components = (
{
name = Z;
},
{
name = caroncomb.case;
transform = "{1, 0, 0, 1, 162, 198}";
}
);
layerId = "A9E90CC4-8E6C-407E-8E88-16513AA8D05B";
width = 538;
},
{
components = (
{
name = Z;
},
{
name = caroncomb.case;
transform = "{1, 0, 0, 1, 180, 198}";
}
);
layerId = "E1BF09ED-4302-4AD3-9939-8FDA35DE0FE8";
width = 523;
},
{
components = (
{
name = Z;
},
{
name = caroncomb.case;
transform = "{1, 0, 0, 1, 130, 198}";
}
);
layerId = "7B53E429-1BF0-49C5-9F57-63EEBF39C6CC";
width = 566;
}
);
leftKerningGroup = Z;
rightKerningGroup = Z;
unicode = 017D;
},
{
color = 5;
glyphname = O.OE;
layers = (
{
anchors = (
{
name = "#exit";
position = "{319, 0}";
}
);
background = {
paths = (
{
closed = 1;
nodes = (
"340 39 LINE",
"222 39 OFFCURVE",
"153 123 OFFCURVE",
"153 259 CURVE SMOOTH",
"153 283 OFFCURVE",
"155 308 OFFCURVE",
"159 334 CURVE SMOOTH",
"184 495 OFFCURVE",
"281 595 OFFCURVE",
"413 595 CURVE",
"438 641 LINE",
"253 641 OFFCURVE",
"94 490 OFFCURVE",
"64 297 CURVE SMOOTH",
"61 278 OFFCURVE",
"59 259 OFFCURVE",
"59 241 CURVE SMOOTH",
"59 95 OFFCURVE",
"159 0 OFFCURVE",
"319 0 CURVE"
);
}
);
};
layerId = "A9E90CC4-8E6C-407E-8E88-16513AA8D05B";
paths = (
{
closed = 1;
nodes = (
"340 39 LINE",
"222 39 OFFCURVE",
"153 123 OFFCURVE",
"153 259 CURVE SMOOTH",
"153 434 OFFCURVE",
"244 595 OFFCURVE",
"413 595 CURVE",
"438 641 LINE",
"230 641 OFFCURVE",
"59 448 OFFCURVE",
"59 241 CURVE SMOOTH",
"59 95 OFFCURVE",
"159 0 OFFCURVE",
"319 0 CURVE"
);
}
);
width = 372;
},
{
anchors = (
{
name = "#exit";
position = "{309, 0}";
}
);
layerId = "E1BF09ED-4302-4AD3-9939-8FDA35DE0FE8";
paths = (
{
closed = 1;
nodes = (
"327 20 LINE",
"189 20 OFFCURVE",
"112 106 OFFCURVE",
"112 254 CURVE SMOOTH",
"112 441 OFFCURVE",
"234 623 OFFCURVE",
"408 623 CURVE",
"427 641 LINE",
"239 641 OFFCURVE",
"73 443 OFFCURVE",
"73 242 CURVE SMOOTH",
"73 102 OFFCURVE",
"162 0 OFFCURVE",
"309 0 CURVE"
);
}
);
width = 361;
},
{
anchors = (
{
name = "#exit";
position = "{298, 0}";
}
);
layerId = "7B53E429-1BF0-49C5-9F57-63EEBF39C6CC";
paths = (
{
closed = 1;
nodes = (
"324 69 LINE",
"255 69 OFFCURVE",
"216 137 OFFCURVE",
"216 245 CURVE SMOOTH",
"216 387 OFFCURVE",
"273 565 OFFCURVE",
"387 565 CURVE",
"420 641 LINE",
"210 641 OFFCURVE",
"31 455 OFFCURVE",
"31 243 CURVE SMOOTH",
"31 97 OFFCURVE",
"133 0 OFFCURVE",
"298 0 CURVE"
);
}
);
width = 354;
}
);
leftKerningGroup = O;
leftMetricsKey = O;
rightKerningGroup = O;
},
{
color = 4;
glyphname = U.horn;
layers = (
{
anchors = (
{
name = bottom;
position = "{309, 0}";
},
{
name = ogonek;
position = "{389, 0}";
},
{
name = top;
position = "{411, 641}";
},
{
name = topright;
position = "{563, 641}";
}
);
background = {
paths = (
{
closed = 1;
nodes = (
"267 602 LINE SMOOTH",
"279 606 OFFCURVE",
"283 625 OFFCURVE",
"283 641 CURVE",
"43 641 LINE",
"28 630 OFFCURVE",
"24 622 OFFCURVE",
"24 595 CURVE",
"103 574 LINE",
"103 211 LINE SMOOTH",
"103 77 OFFCURVE",
"181 -12 OFFCURVE",
"362 -12 CURVE SMOOTH",
"530 -12 OFFCURVE",
"607 85 OFFCURVE",
"607 214 CURVE SMOOTH",
"607 579 LINE",
"676 602 LINE SMOOTH",
"688 606 OFFCURVE",
"692 625 OFFCURVE",
"692 641 CURVE",
"481 641 LINE",
"466 630 OFFCURVE",
"462 622 OFFCURVE",
"462 595 CURVE",
"541 574 LINE",
"541 206 LINE SMOOTH",
"541 80 OFFCURVE",
"474 41 OFFCURVE",
"362 41 CURVE SMOOTH",
"254 41 OFFCURVE",
"193 91 OFFCURVE",
"193 204 CURVE SMOOTH",
"193 579 LINE"
);
}
);
};
layerId = "A9E90CC4-8E6C-407E-8E88-16513AA8D05B";
paths = (
{
closed = 1;
nodes = (
"453 -12 OFFCURVE",
"537 79 OFFCURVE",
"558 214 CURVE SMOOTH",
"626 641 LINE",
"530 641 LINE",
"515 632 OFFCURVE",
"511 622 OFFCURVE",
"508 603 CURVE",
"580 586 LINE",
"577 607 LINE",
"516 223 LINE SMOOTH",
"499 117 OFFCURVE",
"440 34 OFFCURVE",
"319 34 CURVE SMOOTH",
"191 34 OFFCURVE",
"158 103 OFFCURVE",
"177 221 CURVE SMOOTH",
"238 603 LINE",
"219 586 LINE",
"289 604 LINE SMOOTH",
"299 607 OFFCURVE",
"306 620 OFFCURVE",
"309 641 CURVE",
"120 641 LINE SMOOTH",
"105 632 OFFCURVE",
"99 621 OFFCURVE",
"97 603 CURVE",
"172 585 LINE",
"159 600 LINE",
"97 211 LINE SMOOTH",
"75 70 OFFCURVE",
"142 -12 OFFCURVE",
"293 -12 CURVE SMOOTH"
);
}
);
width = 656;
},
{
anchors = (
{
name = bottom;
position = "{295, 0}";
},
{
name = ogonek;
position = "{377, 0}";
},
{
name = top;
position = "{396, 641}";
},
{
name = topright;
position = "{550, 641}";
}
);
background = {
paths = (
{
closed = 1;
nodes = (
"436 -12 OFFCURVE",
"516 75 OFFCURVE",
"538 214 CURVE SMOOTH",
"606 641 LINE",
"545 641 LINE",
"532 641 OFFCURVE",
"529 637 OFFCURVE",
"526 623 CURVE",
"587 610 LINE",
"583 619 LINE",
"518 206 LINE SMOOTH",
"494 56 OFFCURVE",
"399 7 OFFCURVE",
"295 7 CURVE SMOOTH",
"204 7 OFFCURVE",
"113 67 OFFCURVE",
"135 204 CURVE SMOOTH",
"200 619 LINE",
"189 607 LINE",
"251 621 LINE SMOOTH",
"261 623 OFFCURVE",
"267 629 OFFCURVE",
"269 641 CURVE",
"127 641 LINE SMOOTH",
"114 641 OFFCURVE",
"110 637 OFFCURVE",
"108 623 CURVE",
"181 607 LINE",
"169 618 LINE",
"105 211 LINE SMOOTH",
"84 77 OFFCURVE",
"137 -12 OFFCURVE",
"292 -12 CURVE SMOOTH"
);
}
);
};
layerId = "E1BF09ED-4302-4AD3-9939-8FDA35DE0FE8";
paths = (
{
closed = 1;
nodes = (
"428 -12 OFFCURVE",
"515 66 OFFCURVE",
"538 214 CURVE SMOOTH",
"606 641 LINE",
"545 641 LINE",
"532 641 OFFCURVE",
"529 638 OFFCURVE",
"527 623 CURVE",
"587 610 LINE",
"583 619 LINE",
"517 206 LINE SMOOTH",
"497 80 OFFCURVE",
"418 7 OFFCURVE",
"303 7 CURVE SMOOTH",
"169 7 OFFCURVE",
"113 72 OFFCURVE",
"134 204 CURVE SMOOTH",
"201 619 LINE",
"189 607 LINE",
"251 621 LINE SMOOTH",
"262 623 OFFCURVE",
"267 629 OFFCURVE",
"269 641 CURVE",
"127 641 LINE SMOOTH",
"114 641 OFFCURVE",
"110 637 OFFCURVE",
"108 623 CURVE",
"181 607 LINE",
"170 618 LINE",
"105 211 LINE SMOOTH",
"82 67 OFFCURVE",
"148 -12 OFFCURVE",
"288 -12 CURVE SMOOTH"
);
}
);
width = 636;
},
{
anchors = (
{
name = bottom;
position = "{337, 0}";
},
{
name = ogonek;
position = "{412, 0}";
},
{
name = top;
position = "{439, 641}";
},
{
name = topright;
position = "{589, 641}";
}
);
background = {
paths = (
{
closed = 1;
nodes = (
"488 -12 OFFCURVE",
"579 105 OFFCURVE",
"596 214 CURVE SMOOTH",
"664 641 LINE",
"502 641 LINE",
"483 614 OFFCURVE",
"475 591 OFFCURVE",
"471 565 CURVE",
"566 538 LINE",
"562 584 LINE",
"510 256 LINE SMOOTH",
"493 147 OFFCURVE",
"457 87 OFFCURVE",
"344 87 CURVE SMOOTH",
"251 87 OFFCURVE",
"243 138 OFFCURVE",
"261 254 CURVE SMOOTH",
"311 571 LINE",
"279 545 LINE",
"363 572 LINE SMOOTH",
"372 575 OFFCURVE",
"382 602 OFFCURVE",
"388 641 CURVE",
"107 641 LINE",
"87 614 OFFCURVE",
"78 591 OFFCURVE",
"74 565 CURVE",
"155 541 LINE",
"138 566 LINE",
"81 211 LINE SMOOTH",
"60 77 OFFCURVE",
"119 -12 OFFCURVE",
"328 -12 CURVE SMOOTH"
);
}
);
};
layerId = "7B53E429-1BF0-49C5-9F57-63EEBF39C6CC";
paths = (
{
closed = 1;
nodes = (
"501 -12 OFFCURVE",
"579 105 OFFCURVE",
"596 214 CURVE SMOOTH",
"664 641 LINE",
"502 641 LINE",
"483 614 OFFCURVE",
"475 591 OFFCURVE",
"471 565 CURVE",
"565 538 LINE",
"564 584 LINE",
"513 256 LINE SMOOTH",
"503 189 OFFCURVE",
"482 87 OFFCURVE",
"349 87 CURVE SMOOTH",
"234 87 OFFCURVE",
"247 165 OFFCURVE",
"261 254 CURVE SMOOTH",
"311 571 LINE",
"279 545 LINE",
"362 572 LINE SMOOTH",
"372 575 OFFCURVE",
"382 603 OFFCURVE",
"388 641 CURVE",
"106 641 LINE",
"86 614 OFFCURVE",
"78 591 OFFCURVE",
"74 565 CURVE",
"155 541 LINE",
"137 566 LINE",
"81 211 LINE SMOOTH",
"60 77 OFFCURVE",
"131 -12 OFFCURVE",
"303 -12 CURVE SMOOTH"
);
}
);
width = 696;
}
);
leftKerningGroup = U;
leftMetricsKey = "=H*.6";
rightKerningGroup = U;
},
{
color = 5;
glyphname = Q.ss01;
layers = (
{
background = {
paths = (
{
closed = 1;
nodes = (
"840 -183 OFFCURVE",
"866 -154 OFFCURVE",
"870 -129 CURVE SMOOTH",
"872 -120 OFFCURVE",
"870 -112 OFFCURVE",
"865 -105 CURVE",
"692 -105 OFFCURVE",
"468 -13 OFFCURVE",
"399 21 CURVE",
"299 1 LINE",
"432 -72 OFFCURVE",
"669 -183 OFFCURVE",
"785 -183 CURVE SMOOTH"
);
},
{
closed = 1;
nodes = (
"512 -182 OFFCURVE",
"553 -153 OFFCURVE",
"575 -105 CURVE",
"489 -105 OFFCURVE",
"382 -49 OFFCURVE",
"281 27 CURVE",
"254 3 LINE",
"361 -128 OFFCURVE",
"424 -182 OFFCURVE",
"476 -182 CURVE SMOOTH"
);
}
);
};
components = (
{
name = O;
}
);
layerId = "A9E90CC4-8E6C-407E-8E88-16513AA8D05B";
paths = (
{
closed = 1;
nodes = (
"820 -182 OFFCURVE",
"851 -162 OFFCURVE",
"865 -105 CURVE",
"652 -105 OFFCURVE",
"387 -49 OFFCURVE",
"281 27 CURVE",
"254 3 LINE",
"507 -128 OFFCURVE",
"655 -182 OFFCURVE",
"778 -182 CURVE SMOOTH"
);
}
);
width = 649;
},
{
components = (
{
name = O;
}
);
layerId = "E1BF09ED-4302-4AD3-9939-8FDA35DE0FE8";
paths = (
{
closed = 1;
nodes = (
"670 -166 OFFCURVE",
"688 -154 OFFCURVE",
"696 -121 CURVE",
"491 -121 OFFCURVE",
"350 -61 OFFCURVE",
"282 10 CURVE",
"272 -7 LINE",
"380 -98 OFFCURVE",
"540 -166 OFFCURVE",
"645 -166 CURVE SMOOTH"
);
}
);
width = 647;
},
{
background = {
paths = (
{
closed = 1;
nodes = (
"816 -191 OFFCURVE",
"846 -142 OFFCURVE",
"853 -99 CURVE SMOOTH",
"855 -84 OFFCURVE",
"854 -71 OFFCURVE",
"849 -63 CURVE",
"706 -63 OFFCURVE",
"516 15 OFFCURVE",
"424 58 CURVE",
"294 -1 LINE",
"431 -76 OFFCURVE",
"654 -191 OFFCURVE",
"761 -191 CURVE SMOOTH"
);
},
{
closed = 1;
nodes = (
"481 -207 OFFCURVE",
"543 -157 OFFCURVE",
"579 -73 CURVE",
"489 -73 OFFCURVE",
"376 -12 OFFCURVE",
"267 64 CURVE",
"217 14 LINE",
"314 -163 OFFCURVE",
"377 -207 OFFCURVE",
"427 -207 CURVE SMOOTH"
);
}
);
};
components = (
{
name = O;
}
);
layerId = "7B53E429-1BF0-49C5-9F57-63EEBF39C6CC";
paths = (
{
closed = 1;
nodes = (
"791 -207 OFFCURVE",
"845 -173 OFFCURVE",
"869 -73 CURVE",
"578 -73 OFFCURVE",
"361 -12 OFFCURVE",
"267 64 CURVE",
"217 14 LINE",
"448 -163 OFFCURVE",
"597 -207 OFFCURVE",
"717 -207 CURVE SMOOTH"
);
}
);
width = 627;
}
);
leftKerningGroup = O;
leftMetricsKey = O;
rightKerningGroup = Q;
},
{
export = 0;
glyphname = C.sup;
layers = (
{
layerId = "E1BF09ED-4302-4AD3-9939-8FDA35DE0FE8";
paths = (
{
closed = 1;
nodes = (
"229 324 OFFCURVE",
"268 337 OFFCURVE",
"304 365 CURVE",
"308 424 LINE",
"306 429 OFFCURVE",
"299 431 OFFCURVE",
"288 431 CURVE",
"271 366 LINE",
"280 381 LINE",
"257 355 OFFCURVE",
"226 344 OFFCURVE",
"197 344 CURVE SMOOTH",
"133 344 OFFCURVE",
"94 389 OFFCURVE",
"94 455 CURVE SMOOTH",
"94 551 OFFCURVE",
"154 637 OFFCURVE",
"245 637 CURVE SMOOTH",
"274 637 OFFCURVE",
"300 628 OFFCURVE",
"316 611 CURVE",
"312 622 LINE",
"309 572 LINE SMOOTH",
"310 567 OFFCURVE",
"318 563 OFFCURVE",
"326 563 CURVE",
"346 633 LINE",
"323 649 OFFCURVE",
"293 658 OFFCURVE",
"262 658 CURVE SMOOTH",
"155 658 OFFCURVE",
"66 555 OFFCURVE",
"66 446 CURVE SMOOTH",
"66 373 OFFCURVE",
"113 324 OFFCURVE",
"190 324 CURVE SMOOTH"
);
}
);
userData = {
RMXScaler = {
height = 50;
verticalShift = 330;
width = 52;
};
};
width = 308;
},
{
layerId = "A9E90CC4-8E6C-407E-8E88-16513AA8D05B";
paths = (
{
closed = 1;
nodes = (
"236 324 OFFCURVE",
"276 338 OFFCURVE",
"311 367 CURVE",
"315 432 LINE",
"312 436 OFFCURVE",
"304 438 OFFCURVE",
"289 438 CURVE",
"271 369 LINE",
"282 387 LINE",
"258 363 OFFCURVE",
"231 352 OFFCURVE",
"202 352 CURVE SMOOTH",
"147 352 OFFCURVE",
"113 393 OFFCURVE",
"113 455 CURVE SMOOTH",
"113 542 OFFCURVE",
"164 630 OFFCURVE",
"247 630 CURVE SMOOTH",
"275 630 OFFCURVE",
"299 621 OFFCURVE",
"316 602 CURVE",
"311 616 LINE",
"309 565 LINE SMOOTH",
"310 560 OFFCURVE",
"319 556 OFFCURVE",
"331 555 CURVE",
"352 633 LINE",
"329 649 OFFCURVE",
"296 658 OFFCURVE",
"261 658 CURVE SMOOTH",
"154 658 OFFCURVE",
"63 559 OFFCURVE",
"63 448 CURVE SMOOTH",
"63 373 OFFCURVE",
"111 324 OFFCURVE",
"193 324 CURVE SMOOTH"
);
}
);
userData = {
RMXScaler = {
height = 50;
verticalShift = 330;
weight = -10;
width = 52;
};
};
width = 314;
},
{
layerId = "7B53E429-1BF0-49C5-9F57-63EEBF39C6CC";
paths = (
{
closed = 1;
nodes = (
"251 324 OFFCURVE",
"291 339 OFFCURVE",
"325 370 CURVE",
"330 447 LINE",
"324 451 OFFCURVE",
"314 453 OFFCURVE",
"291 453 CURVE",
"270 375 LINE",
"285 400 LINE",
"261 378 OFFCURVE",
"240 368 OFFCURVE",
"213 368 CURVE SMOOTH",
"173 368 OFFCURVE",
"149 402 OFFCURVE",
"149 455 CURVE SMOOTH",
"149 525 OFFCURVE",
"183 615 OFFCURVE",
"251 615 CURVE SMOOTH",
"277 615 OFFCURVE",
"297 608 OFFCURVE",
"317 583 CURVE",
"308 603 LINE",
"309 551 LINE SMOOTH",
"309 546 OFFCURVE",
"321 542 OFFCURVE",
"342 540 CURVE",
"365 632 LINE",
"341 648 OFFCURVE",
"302 658 OFFCURVE",
"258 658 CURVE SMOOTH",
"151 658 OFFCURVE",
"56 567 OFFCURVE",
"56 452 CURVE SMOOTH",
"56 372 OFFCURVE",
"108 324 OFFCURVE",
"200 324 CURVE SMOOTH"
);
}
);
userData = {
RMXScaler = {
adjustSpace = 5;
height = 50;
verticalShift = 330;
weight = -100;
width = 52;
};
};
width = 326;
}
);
leftKerningGroup = O.sup;
rightKerningGroup = C.sup;
userData = {
RMXScaler = {
source = C;
};
};
},
{
export = 0;
glyphname = M.sup;
layers = (
{
layerId = "E1BF09ED-4302-4AD3-9939-8FDA35DE0FE8";
paths = (
{
closed = 1;
nodes = (
"231 329 OFFCURVE",
"235 332 OFFCURVE",
"239 340 CURVE SMOOTH",
"390 631 LINE",
"384 631 LINE",
"362 349 LINE",
"367 358 LINE",
"329 346 LINE SMOOTH",
"324 344 OFFCURVE",
"321 337 OFFCURVE",
"320 332 CURVE",
"420 332 LINE SMOOTH",
"427 332 OFFCURVE",
"430 336 OFFCURVE",
"432 348 CURVE",
"389 358 LINE",
"393 351 LINE",
"415 633 LINE",
"408 624 LINE",
"448 634 LINE SMOOTH",
"452 635 OFFCURVE",
"456 642 OFFCURVE",
"458 651 CURVE",
"379 651 LINE",
"237 376 LINE",
"245 376 LINE",
"186 649 LINE",
"121 649 LINE SMOOTH",
"114 649 OFFCURVE",
"111 645 OFFCURVE",
"109 633 CURVE",
"147 622 LINE",
"146 631 LINE",
"75 349 LINE",
"81 357 LINE",
"47 346 LINE SMOOTH",
"41 344 OFFCURVE",
"38 338 OFFCURVE",
"37 332 CURVE",
"124 332 LINE SMOOTH",
"131 332 OFFCURVE",
"134 336 OFFCURVE",
"136 348 CURVE",
"94 358 LINE",
"96 351 LINE",
"165 628 LINE",
"158 628 LINE",
"222 331 LINE",
"223 329 OFFCURVE",
"225 329 OFFCURVE",
"228 329 CURVE SMOOTH"
);
}
);
userData = {
RMXScaler = {
height = 50;
verticalShift = 330;
width = 52;
};
};
width = 429;
},
{
layerId = "A9E90CC4-8E6C-407E-8E88-16513AA8D05B";
paths = (
{
closed = 1;
nodes = (
"233 329 OFFCURVE",
"240 332 OFFCURVE",
"245 341 CURVE SMOOTH",
"386 622 LINE",
"378 622 LINE",
"357 355 LINE",
"364 365 LINE",
"326 352 LINE SMOOTH",
"320 349 OFFCURVE",
"317 340 OFFCURVE",
"315 331 CURVE",
"429 331 LINE SMOOTH",
"437 336 OFFCURVE",
"441 342 OFFCURVE",
"443 355 CURVE",
"399 366 LINE",
"403 357 LINE",
"424 626 LINE",
"415 616 LINE",
"458 629 LINE SMOOTH",
"463 630 OFFCURVE",
"467 640 OFFCURVE",
"469 651 CURVE",
"371 651 LINE",
"241 395 LINE",
"255 395 LINE",
"201 650 LINE",
"117 650 LINE SMOOTH",
"109 645 OFFCURVE",
"105 640 OFFCURVE",
"103 626 CURVE",
"144 614 LINE",
"142 624 LINE",
"74 355 LINE",
"82 365 LINE",
"45 352 LINE SMOOTH",
"38 349 OFFCURVE",
"35 340 OFFCURVE",
"34 331 CURVE",
"134 331 LINE SMOOTH",
"142 336 OFFCURVE",
"146 341 OFFCURVE",
"148 355 CURVE",
"102 366 LINE",
"104 357 LINE",
"169 617 LINE",
"159 617 LINE",
"220 332 LINE",
"221 330 OFFCURVE",
"225 329 OFFCURVE",
"229 329 CURVE SMOOTH"
);
}
);
userData = {
RMXScaler = {
height = 50;
verticalShift = 330;
weight = -10;
width = 52;
};
};
width = 436;
},
{
layerId = "7B53E429-1BF0-49C5-9F57-63EEBF39C6CC";
paths = (
{
closed = 1;
nodes = (
"238 329 OFFCURVE",
"251 333 OFFCURVE",
"257 344 CURVE SMOOTH",
"379 603 LINE",
"366 603 LINE",
"348 368 LINE",
"359 380 LINE",
"319 363 LINE SMOOTH",
"313 360 OFFCURVE",
"308 345 OFFCURVE",
"305 330 CURVE",
"448 330 LINE",
"458 343 OFFCURVE",
"463 353 OFFCURVE",
"465 369 CURVE",
"418 383 LINE",
"423 370 LINE",
"442 613 LINE",
"430 601 LINE",
"479 618 LINE SMOOTH",
"485 620 OFFCURVE",
"490 637 OFFCURVE",
"492 651 CURVE",
"354 651 LINE",
"250 433 LINE",
"275 433 LINE",
"231 651 LINE",
"108 651 LINE",
"99 638 OFFCURVE",
"94 629 OFFCURVE",
"92 612 CURVE",
"137 598 LINE",
"133 609 LINE",
"73 367 LINE",
"84 381 LINE",
"40 363 LINE SMOOTH",
"33 360 OFFCURVE",
"29 343 OFFCURVE",
"27 330 CURVE",
"154 330 LINE",
"164 343 OFFCURVE",
"169 352 OFFCURVE",
"171 369 CURVE",
"118 383 LINE",
"119 369 LINE",
"176 596 LINE",
"162 596 LINE",
"215 333 LINE",
"217 331 OFFCURVE",
"224 329 OFFCURVE",
"232 329 CURVE SMOOTH"
);
}
);
userData = {
RMXScaler = {
adjustSpace = 5;
height = 50;
verticalShift = 330;
weight = -100;
width = 52;
};
};
width = 451;
}
);
leftKerningGroup = M.sup;
rightKerningGroup = M.sup;
userData = {
RMXScaler = {
source = M;
};
};
},
